<svg xmlns="http://www.w3.org/2000/svg" width="66.453" height="80" viewBox="0 0 66.453 80">
  <g id="Grupo_549" data-name="Grupo 549" transform="translate(-28.622 -21.002)">
    <path id="Trazado_1179" data-name="Trazado 1179" d="M55.967,69.874h0a2.906,2.906,0,0,1,2.906,2.906v.09a2.906,2.906,0,0,1-2.906,2.9h0a2.908,2.908,0,0,1-2.908-2.9v-.087A2.908,2.908,0,0,1,55.967,69.874Z" transform="translate(-2.714 -5.428)" fill="#f2f4ff"/>
    <path id="Trazado_1180" data-name="Trazado 1180" d="M83.041,72.18l-3.277-1.664a7.092,7.092,0,0,0-2.693-.644H74.1a1.426,1.426,0,0,0-1.421,1.422v3.054A1.426,1.426,0,0,0,74.1,75.77h2.97A1.427,1.427,0,0,0,78.5,74.349v-.1a.8.8,0,0,1,1.269-.777l3.277,1.664a.8.8,0,0,0,1.267-.776v-.106A2.551,2.551,0,0,0,83.041,72.18Z" transform="translate(-4.894 -5.428)" fill="#f2f4ff"/>
    <path id="Trazado_1181" data-name="Trazado 1181" d="M80.5,97.685a2.4,2.4,0,0,0-1.471.768c-.092.09-.589.571-1.372,1.22a26.555,26.555,0,0,1-2.76,2,25.459,25.459,0,0,1-3.03,1.628,18.776,18.776,0,0,1-3.153,1.11,19.221,19.221,0,0,1-3.31.528l-.2.013a26.706,26.706,0,0,1-3.267,0,25.592,25.592,0,0,1-3.39-.437c-1.045-.206-1.731-.4-1.805-.421a2.927,2.927,0,0,0-1.007-.129,1.528,1.528,0,0,0-1.2.6,1.346,1.346,0,0,0-.205,1.139,3.794,3.794,0,0,0,2.037,2.065,18.9,18.9,0,0,0,2.2.832,20.933,20.933,0,0,0,3.7.777,21.673,21.673,0,0,0,2.5.144c.425,0,.852-.013,1.27-.038h.092a20.28,20.28,0,0,0,7.258-1.857,22.025,22.025,0,0,0,3.279-1.886,20.779,20.779,0,0,0,2.9-2.453,18.4,18.4,0,0,0,1.541-1.775,3.794,3.794,0,0,0,.808-2.789A1.348,1.348,0,0,0,80.5,97.685Z" transform="translate(-2.85 -8.517)" fill="#f2f4ff"/>
    <g id="Grupo_548" data-name="Grupo 548" transform="translate(43.426 21.002)">
      <path id="Trazado_1182" data-name="Trazado 1182" d="M77.788,25.936a10.533,10.533,0,0,0-6.242-2.189h-.1c-.436-.025-1.581-.052-2.59-.076l-.13,0c-.617-.01-1.118-.026-1.277-.034a2.784,2.784,0,0,1-2.131-1.351A3.7,3.7,0,0,0,64,21.171l-.189-.1V21h-.684l-.489.014v.057l-.188.1a3.709,3.709,0,0,0-1.314,1.121A2.75,2.75,0,0,1,59,23.6c-.414.018-1.626.036-2.018.04-.594.008-1.266.016-1.965.059h-.1a10.538,10.538,0,0,0-6.276,2.171c-.027.022-3.57,3.039-3.359,5.309a1.748,1.748,0,0,0,.974,1.421,1.555,1.555,0,0,0,.756.193c1.142-.014,2.019-1.349,2.723-2.423a7.464,7.464,0,0,1,.714-.987l.041-.041a7.54,7.54,0,0,1,5.453-1.724c.292-.012.868-.059,1.427-.1l.079-.006c.842-.067,1.794-.141,2.3-.15a5.52,5.52,0,0,0,2.261-1.084,2.2,2.2,0,0,1,1.154-.706l.032,0,.032,0a2.191,2.191,0,0,1,1.236.719,5.481,5.481,0,0,0,2.215,1.106c.508.011,1.44.087,2.341.161l.068.006c.6.05,1.129.093,1.421.107a7.492,7.492,0,0,1,5.419,1.743l.041.04a7.382,7.382,0,0,1,.721,1.009c.693,1.063,1.562,2.4,2.706,2.416a1.524,1.524,0,0,0,.741-.182,1.753,1.753,0,0,0,.993-1.421C81.35,29.058,77.925,26.056,77.788,25.936Z" transform="translate(-45.276 -21.002)" fill="#f2f4ff"/>
    </g>
    <path id="Trazado_1183" data-name="Trazado 1183" d="M61.288,69.69q0-6.032-2.331-8.239c-1.553-1.469-7.3-2.061-7.3-2.061-.776-.079-2.054-.152-2.836-.162h-.18c-.777-.01-1.929-.018-2.552-.018s-1.765.03-2.546.068c0,0-10.509.5-12.274,1.635s-2.65,4.06-2.65,8.777q0,7.111,2.673,8.787t14.091,1.673q10.6,0,13.25-1.746T61.288,69.69Zm-4.479,6.428c-.955.912-5.314,1.257-5.314,1.257-.776.062-2.058.111-2.84.12h-.182c-.776,0-1.886.007-2.465.007s-1.684-.02-2.466-.045c0,0-9.06-.285-10.185-.945s-1.689-2.941-1.689-6.84.563-6.165,1.689-6.825,4.993-.989,11.609-.989,10.459.332,11.585.989,1.688,2.935,1.688,6.825q0,5.076-1.428,6.445Z" transform="translate(0 -4.244)" fill="#f2f4ff"/>
    <path id="Trazado_1184" data-name="Trazado 1184" d="M96.974,61.451c-1.553-1.469-7.3-2.061-7.3-2.061-.776-.079-2.054-.152-2.837-.162H86.66c-.776-.01-1.928-.018-2.552-.018s-1.764.03-2.551.068c0,0-10.509.5-12.275,1.635s-2.649,4.06-2.649,8.777q0,7.111,2.674,8.787T83.4,80.151q10.6,0,13.25-1.746t2.65-8.714Q99.307,63.657,96.974,61.451ZM94.83,76.116c-.955.912-5.313,1.258-5.313,1.258-.776.062-2.058.11-2.84.119H86.5c-.777,0-1.893.008-2.467.008s-1.682-.02-2.464-.045c0,0-9.062-.285-10.187-.945S69.69,73.57,69.69,69.67s.564-6.165,1.688-6.825,4.993-.989,11.609-.989,10.459.332,11.585.989,1.688,2.934,1.688,6.825Q96.262,74.746,94.83,76.116Z" transform="translate(-4.222 -4.244)" fill="#f2f4ff"/>
  </g>
</svg>
