<svg id="download-on-the-app-store-apple" xmlns="http://www.w3.org/2000/svg" xmlns:xlink="http://www.w3.org/1999/xlink" width="300" height="88.889" viewBox="0 0 300 88.889">
  <defs>
    <linearGradient id="linear-gradient" x1="-1.199" y1="2.436" x2="-1.199" y2="1.535" gradientUnits="objectBoundingBox">
      <stop offset="0" stop-color="#1a1a1a" stop-opacity="0.102"/>
      <stop offset="0.123" stop-color="#212121" stop-opacity="0.153"/>
      <stop offset="0.308" stop-color="#353535" stop-opacity="0.227"/>
      <stop offset="0.532" stop-color="#575757" stop-opacity="0.318"/>
      <stop offset="0.783" stop-color="#858585" stop-opacity="0.42"/>
      <stop offset="1" stop-color="#b3b3b3" stop-opacity="0.51"/>
    </linearGradient>
  </defs>
  <path id="Trazado_692" data-name="Trazado 692" d="M299.593,79.978a8.515,8.515,0,0,1-8.525,8.513H12.1a8.526,8.526,0,0,1-8.536-8.513V12.086A8.537,8.537,0,0,1,12.1,3.561H291.066a8.523,8.523,0,0,1,8.525,8.525l0,67.892Z" transform="translate(-1.583 -1.583)" fill="#fff"/>
  <path id="Trazado_693" data-name="Trazado 693" d="M289.485,88.889H10.515A10.515,10.515,0,0,1,0,78.4V10.505A10.522,10.522,0,0,1,10.515,0H289.483A10.526,10.526,0,0,1,300,10.505v67.89a10.514,10.514,0,0,1-10.512,10.494Z" fill="#a6a6a6"/>
  <path id="Trazado_694" data-name="Trazado 694" d="M299.593,79.978a8.515,8.515,0,0,1-8.525,8.513H12.1a8.526,8.526,0,0,1-8.536-8.513V12.086A8.537,8.537,0,0,1,12.1,3.561H291.066a8.523,8.523,0,0,1,8.525,8.525l0,67.892Z" transform="translate(-1.583 -1.583)"/>
  <path id="Trazado_695" data-name="Trazado 695" d="M89.741,55.032c-.064-7.164,5.868-10.65,6.139-10.812a13.2,13.2,0,0,0-10.4-5.619c-4.373-.46-8.616,2.616-10.844,2.616-2.272,0-5.7-2.572-9.4-2.5a13.842,13.842,0,0,0-11.651,7.1c-5.038,8.72-1.281,21.535,3.546,28.583,2.415,3.454,5.236,7.306,8.929,7.171,3.613-.147,4.963-2.3,9.323-2.3,4.32,0,5.587,2.3,9.354,2.214,3.878-.06,6.319-3.468,8.649-6.951a28.49,28.49,0,0,0,3.955-8.053,12.467,12.467,0,0,1-7.6-11.456ZM82.626,33.964a12.681,12.681,0,0,0,2.9-9.089A12.924,12.924,0,0,0,77.174,29.2c-1.792,2.094-3.393,5.526-2.979,8.754,3.159.236,6.4-1.594,8.431-3.986Z" transform="translate(-22.753 -11.055)" fill="#fff"/>
  <path id="Trazado_696" data-name="Trazado 696" d="M401.533,0H252.108l58.527,88.889h90.9a10.522,10.522,0,0,0,10.515-10.5V10.505A10.524,10.524,0,0,0,401.533,0Z" transform="translate(-112.048)" fill="url(#linear-gradient)"/>
  <g id="Grupo_370" data-name="Grupo 370" transform="translate(94.34 40.009)">
    <path id="Trazado_697" data-name="Trazado 697" d="M194.792,102.035h-5.049l-2.766-8.689h-9.614l-2.635,8.689h-4.916l9.527-29.581h5.883ZM186.143,89.7l-2.5-7.724q-.4-1.184-1.492-5.573h-.089q-.44,1.887-1.405,5.573L178.2,89.7Zm33.1,1.407q0,5.441-2.957,8.6a8.671,8.671,0,0,1-6.577,2.81q-4.239,0-6.092-3.025v11.192h-4.74V87.716q0-3.418-.176-7.011h4.169l.265,3.381h.089a8.434,8.434,0,0,1,13.5-.838,11.793,11.793,0,0,1,2.521,7.86Zm-4.829.173a8.792,8.792,0,0,0-1.405-5.137,4.857,4.857,0,0,0-4.127-2.105A4.93,4.93,0,0,0,205.7,85.2a5.392,5.392,0,0,0-1.865,3.052,6.186,6.186,0,0,0-.22,1.443v3.559a5.706,5.706,0,0,0,1.427,3.93,4.739,4.739,0,0,0,3.709,1.6,4.859,4.859,0,0,0,4.169-2.063A9.077,9.077,0,0,0,214.416,91.281Zm29.369-.173q0,5.441-2.957,8.6a8.676,8.676,0,0,1-6.579,2.81q-4.239,0-6.092-3.025v11.192h-4.74V87.716q0-3.418-.176-7.011h4.169l.265,3.381h.089a8.436,8.436,0,0,1,13.5-.838,11.8,11.8,0,0,1,2.521,7.86Zm-4.831.173a8.792,8.792,0,0,0-1.407-5.137,4.849,4.849,0,0,0-4.122-2.105,4.951,4.951,0,0,0-3.186,1.163,5.389,5.389,0,0,0-1.863,3.052,6.33,6.33,0,0,0-.222,1.443v3.559a5.725,5.725,0,0,0,1.425,3.93,4.749,4.749,0,0,0,3.713,1.6,4.853,4.853,0,0,0,4.169-2.063A9.077,9.077,0,0,0,238.953,91.281Zm32.269,2.456a7.9,7.9,0,0,1-2.63,6.146q-2.888,2.587-8.06,2.59a14.071,14.071,0,0,1-7.662-1.843l1.1-3.95a13.19,13.19,0,0,0,6.848,1.845,6.462,6.462,0,0,0,4.169-1.207,3.943,3.943,0,0,0,1.5-3.223,4.13,4.13,0,0,0-1.232-3.03,11.42,11.42,0,0,0-4.082-2.281q-7.771-2.9-7.773-8.473a7.481,7.481,0,0,1,2.744-5.968,10.851,10.851,0,0,1,7.266-2.327,14.362,14.362,0,0,1,6.717,1.4l-1.19,3.863a11.747,11.747,0,0,0-5.685-1.36,5.782,5.782,0,0,0-3.922,1.229,3.517,3.517,0,0,0-1.19,2.681,3.622,3.622,0,0,0,1.363,2.9,15.355,15.355,0,0,0,4.3,2.281,14.578,14.578,0,0,1,5.619,3.6A7.5,7.5,0,0,1,271.222,93.737Zm15.713-9.476H281.71V94.618q0,3.951,2.766,3.948a8.329,8.329,0,0,0,2.106-.22l.131,3.6a10.743,10.743,0,0,1-3.686.525,5.682,5.682,0,0,1-4.391-1.714q-1.578-1.714-1.581-5.75V84.253h-3.113V80.7h3.113V76.79l4.656-1.4V80.7h5.225v3.565Zm23.528,6.933a11.7,11.7,0,0,1-2.81,8.076,10.019,10.019,0,0,1-7.813,3.248,9.551,9.551,0,0,1-7.486-3.112,11.344,11.344,0,0,1-2.788-7.855,11.6,11.6,0,0,1,2.875-8.118,9.967,9.967,0,0,1,7.751-3.161,9.751,9.751,0,0,1,7.549,3.116,11.2,11.2,0,0,1,2.724,7.807Zm-4.914.109a9.549,9.549,0,0,0-1.27-5.033,4.693,4.693,0,0,0-4.26-2.541,4.76,4.76,0,0,0-4.347,2.541,9.707,9.707,0,0,0-1.272,5.121,9.521,9.521,0,0,0,1.272,5.035,4.862,4.862,0,0,0,8.567-.042,9.587,9.587,0,0,0,1.31-5.081Zm20.329-6.431a8.251,8.251,0,0,0-1.494-.131,4.474,4.474,0,0,0-3.864,1.889,7.115,7.115,0,0,0-1.183,4.212v11.192H314.6V87.422q.006-3.359-.138-6.715h4.129l.173,4.081h.131a7.317,7.317,0,0,1,2.37-3.381,5.733,5.733,0,0,1,3.426-1.143,7.612,7.612,0,0,1,1.185.087l0,4.521Zm21.2,5.488a11.115,11.115,0,0,1-.173,2.149H332.684a6.185,6.185,0,0,0,2.063,4.832,7.057,7.057,0,0,0,4.651,1.489,15.732,15.732,0,0,0,5.754-1.007l.743,3.288a17.794,17.794,0,0,1-7.153,1.318,10.371,10.371,0,0,1-7.8-2.916,10.781,10.781,0,0,1-2.83-7.833,12.216,12.216,0,0,1,2.637-8.029,9.086,9.086,0,0,1,7.46-3.421,7.952,7.952,0,0,1,6.984,3.421A11.51,11.51,0,0,1,347.079,90.361Zm-4.52-1.229a6.415,6.415,0,0,0-.921-3.643,4.14,4.14,0,0,0-3.775-1.978,4.494,4.494,0,0,0-3.773,1.932,7.078,7.078,0,0,0-1.4,3.685l9.872,0Z" transform="translate(-169.812 -72.016)" fill="#fff"/>
  </g>
  <g id="Grupo_371" data-name="Grupo 371" transform="translate(97.115 14.566)">
    <path id="Trazado_698" data-name="Trazado 698" d="M178.215,41.641a30.276,30.276,0,0,1-3.409-.173v-14.3a25.811,25.811,0,0,1,4.013-.3c5.436,0,7.94,2.674,7.94,7.033C186.759,38.925,183.8,41.641,178.215,41.641Zm.8-12.944a9.512,9.512,0,0,0-1.877.151V39.721a12.306,12.306,0,0,0,1.574.064c3.562,0,5.59-2.027,5.59-5.824C184.3,30.576,182.464,28.7,179.011,28.7ZM194.561,41.75c-3.064,0-5.049-2.287-5.049-5.393,0-3.236,2.028-5.544,5.223-5.544,3.019,0,5.049,2.178,5.049,5.373C199.784,39.463,197.692,41.75,194.561,41.75Zm.089-9.234c-1.683,0-2.762,1.574-2.762,3.774,0,2.158,1.1,3.732,2.739,3.732s2.739-1.683,2.739-3.777c0-2.134-1.078-3.73-2.717-3.73Zm22.606-1.487-3.28,10.483H211.84l-1.359-4.552a34.506,34.506,0,0,1-.843-3.385h-.044a22.69,22.69,0,0,1-.84,3.385l-1.445,4.552h-2.159l-3.086-10.483h2.395l1.187,4.984q.42,1.78.711,3.365h.044c.171-.882.451-1.985.863-3.343l1.49-5h1.9l1.425,4.9c.345,1.187.625,2.352.843,3.452h.062a30.169,30.169,0,0,1,.711-3.452l1.274-4.9,2.288,0Zm12.073,10.483H227V35.493c0-1.854-.712-2.783-2.114-2.783a2.42,2.42,0,0,0-2.33,2.567v6.235h-2.33V34.026c0-.927-.022-1.921-.087-3h2.05l.109,1.618h.064a3.767,3.767,0,0,1,3.324-1.832c2.2,0,3.646,1.683,3.646,4.421l0,6.277Zm6.426,0h-2.332V26.219h2.332Zm8.5.238c-3.062,0-5.049-2.287-5.049-5.393,0-3.236,2.028-5.544,5.221-5.544,3.022,0,5.049,2.178,5.049,5.373C249.473,39.463,247.379,41.75,244.251,41.75Zm.087-9.234c-1.683,0-2.762,1.574-2.762,3.774,0,2.158,1.1,3.732,2.737,3.732s2.739-1.683,2.739-3.777c0-2.134-1.074-3.73-2.715-3.73Zm14.321,9-.169-1.207h-.062a3.58,3.58,0,0,1-3.066,1.445,3.048,3.048,0,0,1-3.213-3.085c0-2.587,2.243-3.926,6.128-3.926v-.193c0-1.38-.732-2.072-2.177-2.072a4.908,4.908,0,0,0-2.739.778l-.474-1.532a6.7,6.7,0,0,1,3.6-.907c2.739,0,4.122,1.445,4.122,4.337v3.861a15.835,15.835,0,0,0,.151,2.5l-2.1,0Zm-.32-5.221c-2.588,0-3.887.627-3.887,2.114a1.485,1.485,0,0,0,1.6,1.638,2.231,2.231,0,0,0,2.288-2.134Zm13.585,5.221-.109-1.683h-.064a3.515,3.515,0,0,1-3.366,1.921c-2.528,0-4.4-2.223-4.4-5.35,0-3.279,1.941-5.588,4.591-5.588a3.151,3.151,0,0,1,2.957,1.425h.047V26.219h2.332V38.687c0,1.014.024,1.963.087,2.825h-2.074Zm-.345-6.168a2.536,2.536,0,0,0-2.455-2.719c-1.728,0-2.784,1.532-2.784,3.688,0,2.114,1.1,3.561,2.737,3.561a2.616,2.616,0,0,0,2.5-2.783V35.344ZM288.7,41.75c-3.062,0-5.047-2.287-5.047-5.393,0-3.236,2.028-5.544,5.221-5.544,3.022,0,5.049,2.178,5.049,5.373,0,3.276-2.09,5.564-5.223,5.564Zm.087-9.234c-1.681,0-2.759,1.574-2.759,3.774,0,2.158,1.1,3.732,2.737,3.732s2.739-1.683,2.739-3.777C291.507,34.112,290.429,32.517,288.786,32.517Zm17.667,9h-2.332V35.493c0-1.854-.711-2.783-2.115-2.783a2.418,2.418,0,0,0-2.328,2.567v6.235h-2.332V34.026c0-.927-.022-1.921-.087-3h2.05l.109,1.618h.064a3.765,3.765,0,0,1,3.322-1.834c2.2,0,3.649,1.683,3.649,4.421Zm15.677-8.736h-2.564v5.09c0,1.3.449,1.943,1.356,1.943a4.591,4.591,0,0,0,1.034-.109l.064,1.769a5.163,5.163,0,0,1-1.808.26c-1.837,0-2.935-1.014-2.935-3.668V32.777h-1.53V31.029h1.53V29.109l2.288-.691v2.61h2.564Zm12.336,8.736h-2.328V35.537c0-1.876-.709-2.825-2.114-2.825a2.285,2.285,0,0,0-2.332,2.481v6.32h-2.328V26.219h2.328v6.3h.047a3.535,3.535,0,0,1,3.153-1.7c2.219,0,3.575,1.725,3.575,4.466v6.235ZM347.1,36.831h-6.993a3.009,3.009,0,0,0,3.3,3.105,7.877,7.877,0,0,0,2.826-.5l.362,1.618a8.755,8.755,0,0,1-3.517.647c-3.28,0-5.221-2.072-5.221-5.284s1.988-5.63,4.958-5.63c2.679,0,4.36,1.985,4.36,4.984a4.489,4.489,0,0,1-.08,1.056Zm-2.137-1.66c0-1.618-.816-2.761-2.306-2.761a2.764,2.764,0,0,0-2.548,2.761Z" transform="translate(-174.806 -26.219)" fill="#fff"/>
  </g>
</svg>
