<svg xmlns="http://www.w3.org/2000/svg" width="24.165" height="19.336" viewBox="0 0 24.165 19.336">
  <path id="Icon_awesome-home" data-name="Icon awesome-home" d="M11.761,7.27,4.027,13.824V20.9a.681.681,0,0,0,.671.691l4.7-.013a.681.681,0,0,0,.668-.691V16.755a.681.681,0,0,1,.671-.691h2.685a.681.681,0,0,1,.671.691v4.128a.7.7,0,0,0,.2.49.662.662,0,0,0,.475.2l4.7.013a.681.681,0,0,0,.671-.691V13.82L12.4,7.27A.5.5,0,0,0,11.761,7.27Zm12.217,4.455L20.471,8.75V2.771a.511.511,0,0,0-.5-.518H17.618a.511.511,0,0,0-.5.518V5.906l-3.756-3.18a1.97,1.97,0,0,0-2.559,0l-10.619,9a.528.528,0,0,0-.067.729l1.07,1.338a.5.5,0,0,0,.34.187.494.494,0,0,0,.369-.116L11.761,5.5a.5.5,0,0,1,.642,0l9.868,8.363a.494.494,0,0,0,.709-.069l1.07-1.338a.528.528,0,0,0,.112-.381.522.522,0,0,0-.183-.35Z" transform="translate(0.001 -2.254)" fill="#eff1ff"/>
</svg>
