<svg xmlns="http://www.w3.org/2000/svg" width="259.269" height="105.588" viewBox="0 0 259.269 105.588">
  <g id="logo" transform="translate(-9.651 -23.168)">
    <g id="Outline" transform="translate(9.651 23.168)">
      <circle id="Elipse_18" data-name="Elipse 18" cx="2.64" cy="2.64" r="2.64" transform="translate(27.885 35.196)" fill="#eff1ff"/>
      <circle id="Elipse_19" data-name="Elipse 19" cx="2.64" cy="2.64" r="2.64" transform="translate(43.723 35.196)" fill="#eff1ff"/>
      <path id="Trazado_216" data-name="Trazado 216" d="M84.121,120.386a1.761,1.761,0,0,1-1.76-1.76h-3.52a5.279,5.279,0,0,0,10.559,0H85.881A1.762,1.762,0,0,1,84.121,120.386Z" transform="translate(-45.677 -72.871)" fill="#eff1ff"/>
      <rect id="Rect치ngulo_21" data-name="Rect치ngulo 21" width="3.52" height="15.838" transform="translate(73.64 21.118)" fill="#eff1ff"/>
      <path id="Trazado_217" data-name="Trazado 217" d="M11.008,106.573l3.456.663a32.883,32.883,0,0,1,.825-3.34l-3.368-1.022A36.315,36.315,0,0,0,11.008,106.573Z" transform="translate(-10.358 -64.669)" fill="#eff1ff"/>
      <path id="Trazado_218" data-name="Trazado 218" d="M13.295,118.612l-3.506-.3A35.868,35.868,0,0,0,10.93,130.94l3.394-.93A32.373,32.373,0,0,1,13.295,118.612Z" transform="translate(-9.651 -72.705)" fill="#eff1ff"/>
      <path id="Trazado_219" data-name="Trazado 219" d="M185.509,159.012l-.3-.3-2.489,2.489.3.3a15.134,15.134,0,0,1,4.462,10.772H191A18.63,18.63,0,0,0,185.509,159.012Z" transform="translate(-99.763 -93.742)" fill="#eff1ff"/>
      <path id="Trazado_220" data-name="Trazado 220" d="M87.275,80.624v-2.9h-3.52v5.1A8.814,8.814,0,0,1,76.716,74.2V70.46a7.037,7.037,0,0,0,1.76-12.909V53.085a19.4,19.4,0,0,0-1.207-6.729,8.813,8.813,0,0,1,6.486,8.488V74.2h3.52V31.967a8.809,8.809,0,0,0-8.8-8.8H36.24a8.809,8.809,0,0,0-8.8,8.8v3.52h3.52v-3.52a5.285,5.285,0,0,1,5.28-5.279h5.951l1.274,2.547a1.76,1.76,0,0,0,1.574.973H69.676a1.76,1.76,0,0,0,1.574-.973l1.274-2.547h5.952a5.285,5.285,0,0,1,5.279,5.279V46.235a12.28,12.28,0,0,0-8.409-3.7,19.429,19.429,0,0,0-16.228-8.809H55.6A19.38,19.38,0,0,0,36.24,53.085v4.466A7.037,7.037,0,0,0,39.76,70.683h.359a17.515,17.515,0,0,0,2.5,6.092,4.357,4.357,0,0,0-.821.761l-.022-.027a4.37,4.37,0,0,0-3.342-1.546h-.067a4.259,4.259,0,0,0-3.229,1.469,4.353,4.353,0,0,0-3.262-1.469H31.8a4.341,4.341,0,0,0-.844.083V39.006h-3.52v80.951a8.809,8.809,0,0,0,8.8,8.8H77.6a1.76,1.76,0,0,0,1.618-2.452c-.038-.089-3.766-9.007.732-15.948a1.76,1.76,0,0,0-.139-2.1L70.775,97.682a3.218,3.218,0,0,1-.8-2.119v-.191a3.217,3.217,0,0,1,5.5-2.273l13.737,13.987,2.561-2.414-4.5-4.771V86.259l7.859,9.824a12.365,12.365,0,0,1,2.7,7.7v24.978h3.52V103.778a15.9,15.9,0,0,0-3.471-9.894Zm-8.8-16.981a3.524,3.524,0,0,1-3.52,3.52V60.124A3.524,3.524,0,0,1,78.476,63.643ZM39.76,67.163a3.519,3.519,0,0,1,0-7.039Zm1.374-10.947q-.711.16-1.374.255V53.085A15.856,15.856,0,0,1,55.6,37.247h3.52A15.835,15.835,0,0,1,74.956,53.077V56.6h-.672L67.731,43.5a1.76,1.76,0,0,0-2.361-.787,1.792,1.792,0,0,0-.313.2C64.92,43.022,51.152,53.968,41.133,56.216Zm13.949,34.34a6.7,6.7,0,0,0-3-1.738V83.956a17.7,17.7,0,0,0,10.558,0v6.353A3.508,3.508,0,0,0,64.4,93.36V100.6a7.021,7.021,0,0,1-1.072,3.733,7.149,7.149,0,0,1-.99,1.243A7.039,7.039,0,0,1,50.319,100.6V99.017L55.212,92.9a1.759,1.759,0,0,0-.13-2.344Zm8.53-10.778a14.04,14.04,0,0,1-14.224-1.01,4.368,4.368,0,0,0-2.884-2.641,14.039,14.039,0,0,1-3.226-8.964V59.3c8.444-2.384,18.329-9.366,22.259-12.315l5.9,11.8v8.383a14.008,14.008,0,0,1-7.823,12.616ZM48.559,85.834v2.989a6.694,6.694,0,0,0-.716.232Zm-9.775,22.1A1.759,1.759,0,0,0,38,109.4v15.839H36.24a5.286,5.286,0,0,1-5.28-5.28V80.326a.882.882,0,0,1,1.76,0v7.955a1.76,1.76,0,0,0,3.5.289l1.409-8.459c.172-1.033,1.822-.66,1.654.354l-1.254,7.526a1.76,1.76,0,0,0,3.406.846l2.926-8.777c.328-.985,2.019-.619,1.782.45L43.5,92.362l-6.29,3.146,1.574,3.148,7.039-3.52a1.754,1.754,0,0,0,.457-.33l1.76-1.76a3.221,3.221,0,0,1,3.192-.809L45.425,99.5a1.77,1.77,0,0,0-.3.543,14.531,14.531,0,0,1-5.7,7.459Zm33.3-3.305,1.136,6.819a1.763,1.763,0,0,0,.384.838,12.408,12.408,0,0,1,1.114,1.565,23.66,23.66,0,0,0,.44,11.386H41.52v-14.9a18.069,18.069,0,0,0,5.793-6.489,10.559,10.559,0,0,0,20.6-3.251v-.851q.095.119.2.234ZM83.755,94.9a10.529,10.529,0,0,0-3.59-2.1l-2.2-2.192a6.73,6.73,0,0,0-9.517,0l-.074.075-1.923-.321h0l-.289-.048V82.4a17.5,17.5,0,0,0,7.056-7.568A12.339,12.339,0,0,0,83.755,86.393Z" transform="translate(-18.914 -23.168)" fill="#eff1ff"/>
    </g>
    <text id="Online" transform="translate(131.785 116.404)" fill="#f2f4ff" font-size="37" font-family="Reross-Quadratic, Reross" opacity="0.996"><tspan x="0" y="0">Online</tspan></text>
    <text id="Ll치mame" transform="translate(100.92 77.308)" fill="#f2f4ff" font-size="47" font-family="BelloScriptPro-Regular, Bello Script Pro" opacity="0.996"><tspan x="0" y="0">Ll치mame</tspan></text>
  </g>
</svg>
