<svg xmlns="http://www.w3.org/2000/svg" width="759.5" height="592.013" viewBox="0 0 759.5 592.013">
  <g id="Grupo_395" data-name="Grupo 395" transform="translate(-112.54 -247.869)">
    <g id="Layer_5" data-name="Layer 5" transform="translate(112.54 247.869)">
      <ellipse id="Elipse_35" data-name="Elipse 35" cx="191.672" cy="11.838" rx="191.672" ry="11.838" transform="translate(0 531.818)" fill="#ebebec"/>
      <ellipse id="Elipse_36" data-name="Elipse 36" cx="191.672" cy="11.838" rx="191.672" ry="11.838" transform="translate(376.157 526.949)" fill="#ebebec"/>
      <g id="Grupo_379" data-name="Grupo 379" transform="translate(43.423 0.892)">
        <g id="Grupo_378" data-name="Grupo 378">
          <g id="Grupo_376" data-name="Grupo 376">
            <path id="Trazado_712" data-name="Trazado 712" d="M158.328,276.327V761.212a27.514,27.514,0,0,0,27.518,27.518H427.308a27.509,27.509,0,0,0,27.518-27.518V276.327a27.514,27.514,0,0,0-27.518-27.518H185.846a27.5,27.5,0,0,0-27.518,27.518Z" transform="translate(-158.328 -248.81)" fill="#2e3062"/>
          </g>
          <g id="Grupo_377" data-name="Grupo 377" transform="translate(13.73 13.724)">
            <path id="Trazado_713" data-name="Trazado 713" d="M441.841,275.4V763.615a12.086,12.086,0,0,1-12.118,12.117H184.932a12.106,12.106,0,0,1-12.126-12.117V275.4a11.773,11.773,0,0,1,.169-1.988,12.169,12.169,0,0,1,9.632-9.913,13.039,13.039,0,0,1,2.325-.217H429.723A12.121,12.121,0,0,1,441.841,275.4Z" transform="translate(-172.806 -263.281)" fill="#fff9ff"/>
          </g>
          <path id="Trazado_714" data-name="Trazado 714" d="M441.843,275.4v32.518H172.8V275.4a11.7,11.7,0,0,1,.167-1.99,12.19,12.19,0,0,1,7.2-9.165,11.848,11.848,0,0,1,2.438-.747,12.257,12.257,0,0,1,2.323-.222H429.719A12.129,12.129,0,0,1,441.843,275.4Z" transform="translate(-159.076 -249.557)" fill="#dadaef"/>
          <path id="Trazado_715" data-name="Trazado 715" d="M322.869,256.024H292.293v6.793c15.839,0,16.182,14.422,16.182,14.422h.042c-.006.169-.026.334-.026.5a13.525,13.525,0,0,0,27.05,0c0-.171-.019-.336-.026-.5l.059,0s.342-14.422,16.182-14.422v-6.793Z" transform="translate(-165.246 -249.183)" fill="#2e3062"/>
          <circle id="Elipse_37" data-name="Elipse 37" cx="7.753" cy="7.753" r="7.753" transform="translate(149.017 21.106)" fill="#524e82"/>
        </g>
      </g>
      <g id="Grupo_384" data-name="Grupo 384" transform="translate(419.334)">
        <g id="Grupo_383" data-name="Grupo 383" transform="translate(0)">
          <g id="Grupo_380" data-name="Grupo 380">
            <path id="Trazado_716" data-name="Trazado 716" d="M554.71,275.432V761.117a27.559,27.559,0,0,0,27.563,27.563H824.135A27.554,27.554,0,0,0,851.7,761.117V275.432a27.559,27.559,0,0,0-27.563-27.563H582.273a27.549,27.549,0,0,0-27.563,27.563Z" transform="translate(-554.71 -247.869)" fill="#2e3062"/>
          </g>
          <g id="Grupo_381" data-name="Grupo 381" transform="translate(13.754 13.746)">
            <path id="Trazado_717" data-name="Trazado 717" d="M838.693,274.5V763.525a12.106,12.106,0,0,1-12.138,12.137h-245.2a12.126,12.126,0,0,1-12.146-12.137V274.5a11.718,11.718,0,0,1,.169-1.991,12.188,12.188,0,0,1,9.648-9.929,13.087,13.087,0,0,1,2.329-.217h245.2A12.14,12.14,0,0,1,838.693,274.5Z" transform="translate(-569.213 -262.364)" fill="#fff9ff"/>
          </g>
          <path id="Trazado_718" data-name="Trazado 718" d="M838.695,274.508v32.571H569.211V274.508a11.847,11.847,0,0,1,.167-1.993,12.211,12.211,0,0,1,7.207-9.179,11.915,11.915,0,0,1,2.443-.749,12.29,12.29,0,0,1,2.326-.222h245.2A12.149,12.149,0,0,1,838.695,274.508Z" transform="translate(-555.459 -248.618)" fill="#dadaef"/>
          <g id="Grupo_382" data-name="Grupo 382" transform="translate(78.67 13.746)">
            <path id="Trazado_719" data-name="Trazado 719" d="M783.518,262.364l-10,10a11.84,11.84,0,0,0-3.464,8.371,11.844,11.844,0,0,1-11.839,11.835H662.965a11.844,11.844,0,0,1-11.84-11.835,11.835,11.835,0,0,0-3.464-8.371l-10-10Z" transform="translate(-637.664 -262.364)" fill="#2e3062"/>
            <circle id="Elipse_38" data-name="Elipse 38" cx="4.919" cy="4.919" r="4.919" transform="translate(107.148 9.957)" fill="#524e82"/>
            <rect id="Rectángulo_51" data-name="Rectángulo 51" width="75.71" height="9.838" rx="1.403" transform="translate(24.809 9.957)" fill="#524e82"/>
          </g>
        </g>
      </g>
    </g>
    <g id="Layer_4" data-name="Layer 4" transform="translate(169.694 319.404)">
      <path id="Trazado_720" data-name="Trazado 720" d="M241.706,770.87l-4.4,31.175H410.687L400.873,764.3Z" transform="translate(-176.137 -346.075)" fill="#144273"/>
      <path id="Trazado_721" data-name="Trazado 721" d="M194,642.008a167.727,167.727,0,0,0-11.788,20.941A256.8,256.8,0,0,0,214.3,689.212c8.144-18.811,14.873-28.577,14.873-28.577Z" transform="translate(-173.292 -339.759)" fill="#e98870"/>
      <path id="Trazado_722" data-name="Trazado 722" d="M397.683,650.643l.9,17.29,53.469-16.895s-36.277-86.559-52.28-103.786-57.2-25.05-57.2-25.05l-22.993,2.055-25.567-1.924s-41.079,8.4-56.839,25.85c-13.488,14.935-60.8,93.8-60.8,93.8l-.021,6.141,53.187,25.337,11.177-21.926-4.2,109.771c8.8,5.2,22.187,10.115,38.191,13.551H364.81a149.578,149.578,0,0,0,38.614-14.512l-4.837-92.412Z" transform="translate(-172.99 -333.572)" fill="#1f5d9a"/>
      <path id="Trazado_723" data-name="Trazado 723" d="M798.458,587.272c12.712-5.86,18.1-21.749,16.442-35.647s-8.761-26.447-15.076-38.938-12.107-26.043-10.829-39.982c1.014-11.073,6.432-21.37,7.544-32.434A43.022,43.022,0,0,0,783.7,405.458c-7.561-7.245-17.535-11.437-27.575-14.414-20.856-6.182-42.448-6-64.191-5.312a225.176,225.176,0,0,0-49.55,7.15c-7.136,1.858-14.3,4.123-20.407,8.255s-11.109,10.394-12.231,17.683c-1.379,8.956,3.309,17.959,9.884,24.2,3.3,3.131,7.078,5.737,10.333,8.916a40.383,40.383,0,0,1,11.54,22.158,31.462,31.462,0,0,1-.5,13.444c-1.9,6.858-6.5,12.573-10.321,18.576-5.215,8.2-9.157,17.482-9.475,27.192a39.639,39.639,0,0,0,13.378,30.722c.436.379,1.034.771,1.547.5a1.5,1.5,0,0,0,.6-.877l5.9-15.925c4.027,12.555,14.2,22.615,26.161,28.159s25.563,6.878,38.687,5.616C737.878,578.58,767.928,586.343,798.458,587.272Z" transform="translate(-195.359 -326.507)" fill="#173158"/>
      <path id="Trazado_724" data-name="Trazado 724" d="M804.854,568.561l.572.222c-16.7-6.516-41.313-11.368-41.313-11.368a19.425,19.425,0,0,1-13.532-16.444L747,508.082,699.531,527.4l.4,19a19.423,19.423,0,0,1-11.261,18.041s-12.79,6.9-27.626,14.074c7.062,3.755,15.032,5.961,22.928,7.547C724.683,594.233,768.03,587.63,804.854,568.561Z" transform="translate(-198.021 -332.842)" fill="#f7a87e"/>
      <path id="Trazado_725" data-name="Trazado 725" d="M755.395,538.6c9.353.91,18.807-3.695,24.732-10.989s8.5-16.968,8.125-26.359a95.619,95.619,0,0,0-1.607-12.5c-8.123,12.044-16.43,24.334-24.553,36.377C759.166,529.48,756.063,533.413,755.395,538.6Z" transform="translate(-202.893 -331.845)" fill="#0e284c"/>
      <path id="Trazado_726" data-name="Trazado 726" d="M498.178,828.311a33.046,33.046,0,0,0-3.475,1.109,9.151,9.151,0,0,0-3.4,1.973,3.729,3.729,0,0,0-1.064,3.617,5.69,5.69,0,0,0,2.538,2.674,59.01,59.01,0,0,0,8.4,4.967c1.477.666,3.218,1.2,4.671.487,1.654-.815,2.22-2.93,2.1-4.769a10.41,10.41,0,0,0-4.595-7.886c-.9-.588-1.9-1.014-2.762-1.657A2.2,2.2,0,0,0,498.178,828.311Z" transform="translate(-189.192 -349.372)" fill="#e98870"/>
      <path id="Trazado_727" data-name="Trazado 727" d="M512.967,862.725a9.063,9.063,0,0,1-9.154.952,4.039,4.039,0,0,1-1.842-1.515,1.967,1.967,0,0,1,.115-2.259,2.692,2.692,0,0,1,1.324-.683c2.613-.71,5.492-.474,7.911-1.69a5.491,5.491,0,0,1,.98,1.706q.5,1.393.868,2.829C513.278,862.494,513.318,862.459,512.967,862.725Z" transform="translate(-189.79 -350.889)" fill="#e98870"/>
      <path id="Trazado_728" data-name="Trazado 728" d="M521.334,832.112a50.537,50.537,0,0,0,3.125-28.721c-.633-3.408-1.619-6.916-.778-10.279.738-2.954,2.791-5.375,4.767-7.691,9.54-11.181,17.707-23.4,26.579-35.117-5.211-4.172-12-5.678-18.112-8.355-2.862-1.254-5.763-1.9-8.495-3.416q-17.612,24.614-32.786,50.857c3.171,3.868,4.4,7.2,6.826,11.574C508.516,811.876,515.28,821.2,521.334,832.112Z" transform="translate(-189.478 -344.744)" fill="#f7a87e"/>
      <path id="Trazado_729" data-name="Trazado 729" d="M495.635,791.307c3.171,3.868,4.4,7.2,6.826,11.574,6.055,10.912,12.819,20.236,18.873,31.148a50.574,50.574,0,0,0,3.9-21.97A139.1,139.1,0,0,0,505,775.649Q500.2,783.41,495.635,791.307Z" transform="translate(-189.478 -346.661)" fill="#e98870"/>
      <path id="Trazado_730" data-name="Trazado 730" d="M750.322,520.362l-1.337-12.28L701.516,527.4l.4,19a19.4,19.4,0,0,1-2.44,9.841,82.185,82.185,0,0,0,27.714-10.9A65.253,65.253,0,0,0,750.322,520.362Z" transform="translate(-200.005 -332.842)" fill="#e98870"/>
      <path id="Trazado_731" data-name="Trazado 731" d="M661.057,453.044a23.334,23.334,0,0,1-15.273-40.221c5.439-5.178,13.038-7.43,20.473-8.484a82.16,82.16,0,0,1,22.126-.121C675,417.876,666.263,434.646,661.057,453.044Z" transform="translate(-196.862 -327.443)" fill="#0e284c"/>
      <path id="Trazado_732" data-name="Trazado 732" d="M291.777,500.645l-.5,34.991s7.422,30.6,34.942,26.266,28.588-33.371,28.588-33.371l-4.146-34.592Z" transform="translate(-178.924 -332.112)" fill="#f7a87e"/>
      <path id="Trazado_733" data-name="Trazado 733" d="M352.515,509.425l-1.856-15.488-58.882,6.708-.5,34.991a42.409,42.409,0,0,0,2.635,7.12A83.032,83.032,0,0,0,330.3,529.4C338.6,523.83,345.768,516.839,352.515,509.425Z" transform="translate(-178.924 -332.112)" fill="#e98870"/>
      <g id="Grupo_389" data-name="Grupo 389" transform="translate(49.488 0)">
        <path id="Trazado_734" data-name="Trazado 734" d="M360.745,453.52A68.986,68.986,0,0,0,384.6,391.805c1.449,1.641,2.982,3.341,5.028,4.115s4.758.271,5.757-1.676a6.3,6.3,0,0,0,.379-3.5A42.609,42.609,0,0,0,384.64,366c4.222.39,8.442,4.5,12.079,2.325,2.147-1.287,2.66-4.342,1.774-6.683s-2.819-4.109-4.754-5.7a89.149,89.149,0,0,0-39.026-18.125,11.091,11.091,0,0,0,6.07-2.446A6.066,6.066,0,0,0,362.8,329.4c-.887-3.095-4.459-4.464-7.616-5.091-20.036-3.979-41.173,4.5-60.025,12.371a17.874,17.874,0,0,0,2.482-6.62c.218-2.364-.726-5-2.849-6.063a7.112,7.112,0,0,0-3.267-.595,24.192,24.192,0,0,0-10.3,2.773c-7.879,3.871-14.315,10.292-19.189,17.594s-7.941,16.089-10.811,24.385a46.013,46.013,0,0,0-25.045,23.777c-.94,2.095-1.715,4.553-.729,6.627,1.026,2.157,3.7,3.114,6.076,2.864a17.536,17.536,0,0,0,6.6-2.634,44.849,44.849,0,0,0,14.156,45.079c4.406,3.689,9.845,6.575,15.589,6.421C297.648,449.5,331.057,455.936,360.745,453.52Z" transform="translate(-224.989 -323.3)" fill="#173158"/>
        <path id="Trazado_735" data-name="Trazado 735" d="M369.7,447q-1.276-35.179-2.551-70.36a64.4,64.4,0,0,0-35.456-6.84q-8.116.788-16.227,1.66-10.352.72-20.7,1.569a67.957,67.957,0,0,0-34.37,13.1q2.546,35.065,5.092,70.132c1.059,14.586,2.669,30.51,12.208,40.549,4.289,4.513,9.8,7.357,15.332,9.814,3.681,1.636,11.552,4.342,18.1,6.471a25.445,25.445,0,0,0,19.788-1.8c6.165-3.237,13.521-7.248,16.961-9.506,5.208-3.419,10.361-7.22,14.12-12.454C370.363,477.693,370.232,461.635,369.7,447Z" transform="translate(-226.818 -325.686)" fill="#f7a87e"/>
        <path id="Trazado_736" data-name="Trazado 736" d="M310.556,415.45a5.221,5.221,0,0,1,2.58.452c1.224.676,1.745,2.134,2.167,3.466.471,1.491.9,3.264-.061,4.5a4.92,4.92,0,0,1-3.073,1.419l-23.6,4.672c-1.284.254-2.727.479-3.808-.26a3.3,3.3,0,0,1-1.127-3.384c.858-4.092,7.773-6.452,11.218-7.81A43.7,43.7,0,0,1,310.556,415.45Z" transform="translate(-228.014 -328.059)" fill="#173158"/>
        <path id="Trazado_737" data-name="Trazado 737" d="M341.718,413.952a5.221,5.221,0,0,0-2.547.608c-1.182.748-1.612,2.235-1.953,3.59-.381,1.517-.7,3.314.332,4.488a4.914,4.914,0,0,0,3.153,1.229l23.843,3.235c1.3.176,2.751.313,3.784-.489a3.3,3.3,0,0,0,.921-3.446c-1.106-4.032-8.149-5.969-11.671-7.116A43.651,43.651,0,0,0,341.718,413.952Z" transform="translate(-230.766 -327.978)" fill="#173158"/>
        <path id="Trazado_738" data-name="Trazado 738" d="M311.585,444.739c.142,4.39-2.29,8.031-5.434,8.133s-5.808-3.372-5.951-7.762,2.289-8.031,5.433-8.133S311.441,440.349,311.585,444.739Z" transform="translate(-228.873 -329.17)" fill="#173158"/>
        <path id="Trazado_739" data-name="Trazado 739" d="M355.611,441.775c.143,4.39-2.289,8.031-5.433,8.133s-5.809-3.372-5.951-7.762,2.289-8.031,5.433-8.133S355.468,437.385,355.611,441.775Z" transform="translate(-231.147 -329.017)" fill="#173158"/>
        <path id="Trazado_740" data-name="Trazado 740" d="M315.689,457.953c.941,4.719,4.771,8.216,9.283,8.127s8.2-3.73,8.961-8.482Z" transform="translate(-229.673 -330.235)" fill="#f17d6f"/>
        <path id="Trazado_741" data-name="Trazado 741" d="M332.384,481.124a22.852,22.852,0,0,0,8.8-7.392,97.052,97.052,0,0,1-34.826,2.256,30.868,30.868,0,0,0,14.418,6.3A21.292,21.292,0,0,0,332.384,481.124Z" transform="translate(-229.192 -331.068)" fill="#fff"/>
        <path id="Trazado_742" data-name="Trazado 742" d="M343.06,473.186q-.987.27-1.979.518a22.852,22.852,0,0,1-8.8,7.392,21.292,21.292,0,0,1-11.607,1.164,30.869,30.869,0,0,1-14.418-6.3c-.644-.076-1.287-.155-1.929-.245.6,3.171,3.02,16.4,10.356,22.946.3-.286.616-.56.939-.817a17.69,17.69,0,0,1,20.586-1.119C342.037,489.946,343.377,478.788,343.06,473.186Z" transform="translate(-229.086 -331.04)" fill="#c35c6a"/>
        <path id="Trazado_743" data-name="Trazado 743" d="M316.184,498.976c-.322.257-.637.53-.939.817a13.766,13.766,0,0,0,10.221,3.682,15.54,15.54,0,0,0,11.3-5.618,17.69,17.69,0,0,0-20.586,1.119Z" transform="translate(-229.65 -332.171)" fill="#f28487"/>
        <path id="Trazado_744" data-name="Trazado 744" d="M366.969,464.558a9.274,9.274,0,1,1-8.12-10.3A9.272,9.272,0,0,1,366.969,464.558Z" transform="translate(-231.367 -330.059)" fill="#f38e77" opacity="0.47"/>
        <path id="Trazado_745" data-name="Trazado 745" d="M297.561,467.963a9.274,9.274,0,1,1-8.12-10.3A9.275,9.275,0,0,1,297.561,467.963Z" transform="translate(-227.783 -330.235)" fill="#f38e77" opacity="0.47"/>
        <g id="Grupo_386" data-name="Grupo 386" transform="translate(137.021 112.668)">
          <path id="Trazado_746" data-name="Trazado 746" d="M369.472,480.38a30.647,30.647,0,0,0,19.842-7.313,25.144,25.144,0,0,0,8.647-19.052c-.092-3.969-1.478-8.224-4.817-10.371-2.549-1.64-5.8-1.772-8.8-1.308-4.16.643-8.432,2.594-10.413,6.308Z" transform="translate(-369.472 -442.103)" fill="#f7a87e"/>
          <g id="Grupo_385" data-name="Grupo 385" transform="translate(3.418 9.054)">
            <path id="Trazado_747" data-name="Trazado 747" d="M383.805,454.532a5.387,5.387,0,0,1,1.037.693,6.912,6.912,0,0,1,.926,9.638.676.676,0,0,1-1.051-.851,5.559,5.559,0,0,0-.744-7.754,3.257,3.257,0,0,0-1.69-.8,13.727,13.727,0,0,0-5.119,7,.677.677,0,0,1-.615.473.707.707,0,0,1-.233-.03.677.677,0,0,1-.442-.848A14.865,14.865,0,0,1,392.3,451.815a.676.676,0,0,1-.2,1.336A13.732,13.732,0,0,0,383.805,454.532Z" transform="translate(-373.218 -451.65)" fill="#e4876d"/>
            <path id="Trazado_748" data-name="Trazado 748" d="M373.144,469.918a.677.677,0,0,1,.9-.312c3.776,1.84,8.262.282,11.2-1.79A13.274,13.274,0,0,0,390.515,461a.676.676,0,0,1,1.3.38,14.6,14.6,0,0,1-5.785,7.541,15.249,15.249,0,0,1-7.822,2.84,9.749,9.749,0,0,1-4.75-.939A.676.676,0,0,1,373.144,469.918Z" transform="translate(-373.076 -452.108)" fill="#e4876d"/>
          </g>
        </g>
        <g id="Grupo_388" data-name="Grupo 388" transform="translate(15.918 116.393)">
          <path id="Trazado_749" data-name="Trazado 749" d="M271.466,483.458a30.648,30.648,0,0,1-20.162-6.381,25.143,25.143,0,0,1-9.525-18.63c-.093-3.968,1.092-8.283,4.327-10.584,2.47-1.756,5.712-2.04,8.726-1.716,4.185.449,8.543,2.2,10.7,5.816Z" transform="translate(-241.774 -446.031)" fill="#f7a87e"/>
          <g id="Grupo_387" data-name="Grupo 387" transform="translate(5.317 9.166)">
            <path id="Trazado_750" data-name="Trazado 750" d="M256.538,458.3a5.424,5.424,0,0,0-1,.741,6.91,6.91,0,0,0-.475,9.67.675.675,0,1,0,1.009-.9,5.561,5.561,0,0,1,.382-7.78,3.26,3.26,0,0,1,1.651-.878,13.733,13.733,0,0,1,5.441,6.754.677.677,0,0,0,.635.444.71.71,0,0,0,.231-.042.677.677,0,0,0,.4-.867,14.865,14.865,0,0,0-16.89-9.463.676.676,0,0,0,.267,1.326A13.728,13.728,0,0,1,256.538,458.3Z" transform="translate(-247.38 -455.696)" fill="#e4876d"/>
            <path id="Trazado_751" data-name="Trazado 751" d="M267.811,473.18a.676.676,0,0,0-.917-.269c-3.687,2.014-8.24.666-11.273-1.267a13.27,13.27,0,0,1-5.578-6.565.676.676,0,1,0-1.277.441,14.6,14.6,0,0,0,6.129,7.263,15.255,15.255,0,0,0,7.947,2.473,9.753,9.753,0,0,0,4.7-1.16A.675.675,0,0,0,267.811,473.18Z" transform="translate(-247.449 -456.157)" fill="#e4876d"/>
          </g>
        </g>
        <path id="Trazado_752" data-name="Trazado 752" d="M262.506,442.578c5.226-8.78,6.254-16.934,6.313-27.151a107.317,107.317,0,0,0-4.251-30.659,169.629,169.629,0,0,0,42.488,9.5c1.951.177,4.042.293,5.741-.681,3.926-2.252,2.787-8.651-.716-11.517a74.958,74.958,0,0,0,27.985,10.395,12.732,12.732,0,0,0,6.5-.219c2.048-.787,3.749-2.9,3.35-5.056,2.791,6.036,6.3,11.863,11.215,16.337s11.406,7.5,18.051,7.252c.61-13.508-1.423-27.077-7-39.395-1.959-4.326-4.433-8.663-8.414-11.251-2.788-1.813-6.1-2.621-9.355-3.288a146.9,146.9,0,0,0-71.8,3.352c-6.249,1.9-12.455,4.264-17.733,8.111a36.6,36.6,0,0,0-9.828,48.4A48.076,48.076,0,0,0,262.506,442.578Z" transform="translate(-226.273 -324.88)" fill="#173158"/>
        <path id="Trazado_753" data-name="Trazado 753" d="M344.927,331.407a4.558,4.558,0,0,1,3.181.979,3.222,3.222,0,0,1,.809,2.072c.167,2.765-1.906,5.156-4.118,6.825s-4.761,3.035-6.326,5.321a1.76,1.76,0,0,0-.4,1.408c.172.607.859.885,1.464,1.063,5,1.477,10.41,1.984,14.855,4.714a5.96,5.96,0,0,1,2.682,2.846c1.062,2.96-2.071,5.843-5.125,6.6s-6.416.437-9.189,1.921a1.841,1.841,0,0,0-.929.879c-.3.795.423,1.583,1.1,2.1a31.1,31.1,0,0,0,3.557,2.372c1.209.692,2.6,1.464,2.91,2.822.359,1.56-1.008,3.091-2.55,3.521a10.115,10.115,0,0,1-4.747-.258,106.191,106.191,0,0,0-42.232-.206,10.11,10.11,0,0,1-4.035.273,3.25,3.25,0,0,1-2.7-2.665c-.138-1.942,1.966-3.175,3.719-4.023a55.6,55.6,0,0,0,8.171-4.855,2.018,2.018,0,0,0,.959-1.181,1.738,1.738,0,0,0-.487-1.3c-1.383-1.72-3.6-2.475-5.5-3.6s-3.706-3.109-3.251-5.269a6.54,6.54,0,0,1,2.568-3.355c5.585-4.667,11.211-11.045,17.957-14.031A61.79,61.79,0,0,1,344.927,331.407Z" transform="translate(-228.508 -323.714)" fill="#18345b"/>
      </g>
      <path id="Trazado_754" data-name="Trazado 754" d="M773.293,458.072c-.433,13.761-5.66,27.131-13.585,38.388s-18.46,20.5-29.927,28.122c-10.839,7.2-23.623,13.216-36.459,11.069-9.18-1.536-17.147-7.056-24.526-12.73-7.1-5.457-14.5-12.123-15.454-21.023-.616-5.733,1.6-11.343,2.536-17.033,1.913-11.686-1.634-23.508-2.277-35.331-.3-5.556.07-11.272,2.24-16.4a38.505,38.505,0,0,1,7.375-10.72,87.638,87.638,0,0,1,28.236-20.525c19.743,4.726,39.849,13.593,57.546,23.54,6.336,3.562,12.68,7.345,17.664,12.635S773.523,450.806,773.293,458.072Z" transform="translate(-197.617 -327.358)" fill="#f7a87e"/>
      <path id="Trazado_755" data-name="Trazado 755" d="M690.378,394.988c-2.145,5.537-4.247,11.165-4.958,17.06s.091,12.168,3.376,17.115c2.758,4.153,7.033,7.065,11.469,9.338,12.158,6.226,26.007,8.332,38.588,13.655,7.4,3.13,14.712,7.787,18.082,15.079,2.086,4.51,2.463,9.629,2.248,14.593a67.7,67.7,0,0,1-29.676,52.6c10.857-.149,21.924.785,31.5-4.324,8.04-4.288,14.113-11.71,17.994-19.955s5.717-17.309,6.769-26.361a165.175,165.175,0,0,0,.631-31.591c-.478-6.282-1.339-12.625-3.784-18.431-5.364-12.733-17.609-21.238-30.164-27A131.939,131.939,0,0,0,690.378,394.988Z" transform="translate(-199.267 -326.991)" fill="#173158"/>
      <path id="Trazado_756" data-name="Trazado 756" d="M677.53,449.868a2.477,2.477,0,0,1,1.979.276,4.025,4.025,0,0,1,1.52,4.8c-.867,1.811-18.039,5.206-24.105,6.125a1.228,1.228,0,0,1-1.24-1.845c1.3-2.106,4.172-3.053,6.351-3.989A114.389,114.389,0,0,1,677.53,449.868Z" transform="translate(-197.734 -329.831)" fill="#173158"/>
      <path id="Trazado_757" data-name="Trazado 757" d="M705.846,449.8a2.478,2.478,0,0,0-1.92.553,4.026,4.026,0,0,0-.827,4.97c1.114,1.67,18.594,2.605,24.729,2.658a1.228,1.228,0,0,0,.966-2c-1.58-1.9-4.561-2.432-6.851-3.051A114.3,114.3,0,0,0,705.846,449.8Z" transform="translate(-200.165 -329.831)" fill="#173158"/>
      <path id="Trazado_758" data-name="Trazado 758" d="M677.327,472.5c0,3.3-1.837,5.978-4.1,5.978s-4.1-2.676-4.1-5.978,1.837-5.979,4.1-5.979S677.327,469.2,677.327,472.5Z" transform="translate(-198.438 -330.696)" fill="#173158"/>
      <path id="Trazado_759" data-name="Trazado 759" d="M716.1,472.32c0,3.3-1.837,5.978-4.1,5.978s-4.1-2.677-4.1-5.978,1.837-5.979,4.1-5.979S716.1,469.018,716.1,472.32Z" transform="translate(-200.44 -330.687)" fill="#173158"/>
      <path id="Trazado_760" data-name="Trazado 760" d="M683.56,486.739c0,.017,0,.034,0,.051a6.02,6.02,0,0,0,12.039,0c0-.017,0-.034,0-.051Z" transform="translate(-199.183 -331.74)" fill="#f17d6f"/>
      <path id="Trazado_761" data-name="Trazado 761" d="M699.7,508.364a36.149,36.149,0,0,0,11.457-5.428,43.24,43.24,0,0,0,1.09-6.206,87.318,87.318,0,0,1-35.71,6.039c.581,1.319,1.273,3.009,2.069,4.894A36.324,36.324,0,0,0,699.7,508.364Z" transform="translate(-198.821 -332.256)" fill="#fff"/>
      <path id="Trazado_762" data-name="Trazado 762" d="M690.564,527.29a9.008,9.008,0,0,0,6.326,2.465c4.506-.258,8.253-6.2,10.993-12.955A34.608,34.608,0,0,0,690.564,527.29Z" transform="translate(-199.545 -333.293)" fill="#f28487"/>
      <path id="Trazado_763" data-name="Trazado 763" d="M699.813,508.7a36.324,36.324,0,0,1-21.094-.7c2.623,6.2,6.4,14.508,11.233,18.591a34.608,34.608,0,0,1,17.32-10.49,88.649,88.649,0,0,0,4-12.827A36.148,36.148,0,0,1,699.813,508.7Z" transform="translate(-198.933 -332.594)" fill="#c35c6a"/>
      <path id="Trazado_764" data-name="Trazado 764" d="M474.132,784.182c1.578,3.491,3.177,7.061,3.548,10.873.556,5.721-1.695,11.294-2.641,16.962-1.194,7.151-.293,14.525,1.626,21.514s4.837,13.66,7.742,20.3c.759,1.731,1.741,3.664,3.571,4.141a4.13,4.13,0,0,0,4.092-1.632,9.331,9.331,0,0,0,1.634-4.312,26.583,26.583,0,0,0,.3-6.287c-.295-4.122-1.543-8.116-2.077-12.214a25,25,0,0,1-.212-4.183,6.229,6.229,0,0,1,8.531-.553c2.522,2.027,3.814,5.175,5.005,8.183l4.38,11.06c.94,2.372,1.785,5.354.065,7.238-1.037,1.137-2.672,1.44-4.149,1.876a17.848,17.848,0,0,0-4.729,2.192c-1.275.836-2.559,2.116-2.362,3.627a3.084,3.084,0,0,0,2.369,2.378,7.635,7.635,0,0,0,3.526-.138c5.868-1.277,11.249-4.181,16.36-7.336a12.154,12.154,0,0,0,4.243-3.683,11.916,11.916,0,0,0,1.307-5.69,102.062,102.062,0,0,0-2.282-27.124c-3.894-17.593-16.334-31.378-24.184-47.6-4.656-9.622-8.214-19.73-11.761-29.813l-28,12.906S469.728,774.438,474.132,784.182Z" transform="translate(-187.64 -345.024)" fill="#f7a87e"/>
      <circle id="Elipse_39" data-name="Elipse 39" cx="9.187" cy="9.187" r="9.187" transform="translate(518.373 149.854)" fill="#f38e77" opacity="0.64"/>
      <circle id="Elipse_40" data-name="Elipse 40" cx="9.187" cy="9.187" r="9.187" transform="translate(456.417 168.666) rotate(-80.783)" fill="#f38e77" opacity="0.64"/>
      <path id="Trazado_765" data-name="Trazado 765" d="M517.159,861.5c1.864-.624,2.834-2.625,3.6-4.434.093-.217.173-.5,0-.663a.573.573,0,0,0-.35-.113c-1.243-.112-2.309-.625-3.547-.465a28.067,28.067,0,0,0,5.236-6.92,10.672,10.672,0,0,0,1.319-3.646,4.81,4.81,0,0,0-.928-3.676c-3.437,1.351-6.229,2.752-8.576,5.6q2.266-3.728,4.356-7.561a21.646,21.646,0,0,0,2.815-7.212,5.321,5.321,0,0,0-.206-2.721,2.608,2.608,0,0,0-2.021-1.68,3.433,3.433,0,0,0-2.281.819,18.2,18.2,0,0,0-2.5,2.3,79.5,79.5,0,0,0-5.738,6.8,84.931,84.931,0,0,0,4.155-11.974c.49-1.848.773-4.171-.731-5.353-.756-.593-2.052-.417-2.984-.185a16.919,16.919,0,0,0-8.282,5.352,37.564,37.564,0,0,0-4.165,5.76,6.552,6.552,0,0,1,5.782,1.188c2.522,2.027,3.814,5.175,5.005,8.183q2.191,5.531,4.38,11.06c.94,2.372,1.785,5.353.065,7.238a5.191,5.191,0,0,1-2.282,1.331,11.421,11.421,0,0,0,5.356,1.16A6.951,6.951,0,0,0,517.159,861.5Z" transform="translate(-189.514 -348.962)" fill="#e98870"/>
      <path id="Trazado_766" data-name="Trazado 766" d="M494.7,843.8a41.5,41.5,0,0,1-1.344-7.352,6.172,6.172,0,0,0-1.586,3.324,3.7,3.7,0,0,0,.423,2.411A4.722,4.722,0,0,0,494.7,843.8Z" transform="translate(-189.276 -349.801)" fill="#e98870"/>
      <path id="Trazado_767" data-name="Trazado 767" d="M494.524,834.23a8.6,8.6,0,0,0-1.485,2.3,5.835,5.835,0,0,0-.3,2.533c.135,1.731.967,3.572,2.584,4.2,1.951.763,4.084-.511,5.649-1.9,4.805-4.269,7.95-10.076,10.649-15.911a9.741,9.741,0,0,0,.827-2.29,3.949,3.949,0,0,0-.591-3.009c-1.351-1.859-2.886-1.192-4.238.072q-2.366,2.211-4.629,4.528Q498.548,829.3,494.524,834.23Z" transform="translate(-189.327 -348.899)" fill="#f7a87e"/>
      <path id="Trazado_768" data-name="Trazado 768" d="M507.136,846.839a5.2,5.2,0,0,0,4.423.416,11.809,11.809,0,0,0,3.892-2.389c1.624-1.376,3.291-2.989,5.411-3.177a1.77,1.77,0,0,1,2.2,1.715,7.371,7.371,0,0,1-1.625,4.966,29.844,29.844,0,0,1-6.769,6.57c-2.359,1.771-5.2,3.487-8.077,2.847a9.289,9.289,0,0,1-4.124-2.488,28.777,28.777,0,0,1-4.84-5.85C501.135,848.551,503.624,847.736,507.136,846.839Z" transform="translate(-189.581 -350.07)" fill="#f7a87e"/>
      <path id="Trazado_769" data-name="Trazado 769" d="M520,828.091a3.116,3.116,0,0,0-2.962-.282c-2.343.757-4.146,2.6-5.849,4.374l-3.955,4.124c-1.8,1.873-3.707,3.819-6.191,4.574-1.106.336-2.278.417-3.38.768a7.233,7.233,0,0,0-2.912,1.782c.39,1.975.851,4.478,1.044,6.169a19.725,19.725,0,0,0,5.43,1.393,9.856,9.856,0,0,0,6.74-1.282,13.814,13.814,0,0,0,2.877-2.816,94.117,94.117,0,0,0,7.891-11.08,12.154,12.154,0,0,0,2.071-5.16A3.011,3.011,0,0,0,520,828.091Z" transform="translate(-189.433 -349.342)" fill="#f7a87e"/>
      <path id="Trazado_770" data-name="Trazado 770" d="M511.785,854.488c1.748.167,3.506-.259,5.259-.155s3.681.972,4.146,2.665a3.8,3.8,0,0,1-2.125,4.079,10.015,10.015,0,0,1-4.85.816,7.946,7.946,0,0,1-7.165-2.869q-1.57-1.623-3.031-3.348C506.891,855.122,508.874,854.211,511.785,854.488Z" transform="translate(-189.911 -350.723)" fill="#f7a87e"/>
      <path id="Trazado_771" data-name="Trazado 771" d="M815.722,573.072l.455.193Z" transform="translate(-206.009 -336.199)" fill="#f7a87e"/>
      <path id="Trazado_772" data-name="Trazado 772" d="M813.325,572.1l.524.207Z" transform="translate(-205.885 -336.149)" fill="#f7a87e"/>
      <path id="Trazado_773" data-name="Trazado 773" d="M654.566,585.438l.029-.014Z" transform="translate(-197.686 -336.837)" fill="#f7a87e"/>
      <path id="Trazado_774" data-name="Trazado 774" d="M813.954,572.35l.481.193Z" transform="translate(-205.917 -336.161)" fill="#f7a87e"/>
      <path id="Trazado_775" data-name="Trazado 775" d="M650.634,673.863q-.021-.509-.028-1.01Q650.613,673.354,650.634,673.863Z" transform="translate(-197.481 -341.352)" fill="#f7a87e"/>
      <path id="Trazado_776" data-name="Trazado 776" d="M816.285,573.31l.469.2Z" transform="translate(-206.038 -336.211)" fill="#f7a87e"/>
      <path id="Trazado_777" data-name="Trazado 777" d="M814.561,572.593l.456.187Z" transform="translate(-205.949 -336.174)" fill="#f7a87e"/>
      <path id="Trazado_778" data-name="Trazado 778" d="M650.775,668.3q.038-.425.082-.838Q650.813,667.873,650.775,668.3Z" transform="translate(-197.49 -341.073)" fill="#f7a87e"/>
      <path id="Trazado_779" data-name="Trazado 779" d="M650.646,670.235q.021-.474.052-.933Q650.667,669.762,650.646,670.235Z" transform="translate(-197.483 -341.168)" fill="#f7a87e"/>
      <path id="Trazado_780" data-name="Trazado 780" d="M651.256,586.976l.122-.056Z" transform="translate(-197.515 -336.914)" fill="#f7a87e"/>
      <path id="Trazado_781" data-name="Trazado 781" d="M650.873,667.322q.044-.407.1-.8Q650.917,666.916,650.873,667.322Z" transform="translate(-197.495 -341.025)" fill="#f7a87e"/>
      <path id="Trazado_782" data-name="Trazado 782" d="M650.974,666.477q.053-.417.113-.818Q651.027,666.06,650.974,666.477Z" transform="translate(-197.5 -340.98)" fill="#f7a87e"/>
      <path id="Trazado_783" data-name="Trazado 783" d="M511.27,765.072l22.6,14.754,19.255-20.278-23.479-20.8C518.529,754.547,511.27,765.072,511.27,765.072Z" transform="translate(-190.286 -344.755)" fill="#f7a87e"/>
      <path id="Trazado_784" data-name="Trazado 784" d="M815.147,572.833q.226.092.45.187Q815.373,572.926,815.147,572.833Z" transform="translate(-205.979 -336.186)" fill="#f7a87e"/>
      <path id="Trazado_785" data-name="Trazado 785" d="M822.481,576.339l.288.168Z" transform="translate(-206.358 -336.367)" fill="#f7a87e"/>
      <path id="Trazado_786" data-name="Trazado 786" d="M822.91,576.589l.33.2Z" transform="translate(-206.38 -336.38)" fill="#f7a87e"/>
      <path id="Trazado_787" data-name="Trazado 787" d="M821.584,575.84l.288.157Z" transform="translate(-206.311 -336.342)" fill="#f7a87e"/>
      <path id="Trazado_788" data-name="Trazado 788" d="M822.037,576.089l.284.159Z" transform="translate(-206.335 -336.355)" fill="#f7a87e"/>
      <path id="Trazado_789" data-name="Trazado 789" d="M823.326,576.838c.133.081.263.161.392.243C823.589,577,823.459,576.919,823.326,576.838Z" transform="translate(-206.401 -336.393)" fill="#f7a87e"/>
      <path id="Trazado_790" data-name="Trazado 790" d="M823.74,577.095c.125.079.247.156.367.235C823.987,577.251,823.865,577.173,823.74,577.095Z" transform="translate(-206.423 -336.406)" fill="#f7a87e"/>
      <path id="Trazado_791" data-name="Trazado 791" d="M820.138,575.087l.33.167Z" transform="translate(-206.237 -336.303)" fill="#f7a87e"/>
      <path id="Trazado_792" data-name="Trazado 792" d="M821.116,575.59l.3.157Z" transform="translate(-206.287 -336.329)" fill="#f7a87e"/>
      <path id="Trazado_793" data-name="Trazado 793" d="M819.618,574.831l.363.178Z" transform="translate(-206.21 -336.29)" fill="#f7a87e"/>
      <path id="Trazado_794" data-name="Trazado 794" d="M819.046,574.555c.147.069.292.139.436.209C819.338,574.694,819.193,574.624,819.046,574.555Z" transform="translate(-206.18 -336.275)" fill="#f7a87e"/>
      <path id="Trazado_795" data-name="Trazado 795" d="M816.843,573.551q1.058.462,2.05.933Q817.9,574.013,816.843,573.551Z" transform="translate(-206.066 -336.223)" fill="#f7a87e"/>
      <path id="Trazado_796" data-name="Trazado 796" d="M820.634,575.34l.311.16Z" transform="translate(-206.262 -336.316)" fill="#f7a87e"/>
      <path id="Trazado_797" data-name="Trazado 797" d="M650.691,674.946c-.023-.345-.042-.689-.055-1.028C650.649,674.257,650.668,674.6,650.691,674.946Z" transform="translate(-197.483 -341.407)" fill="#f7a87e"/>
      <path id="Trazado_798" data-name="Trazado 798" d="M818.471,651.887c.028.072.059.148.09.229C818.53,652.035,818.5,651.959,818.471,651.887Z" transform="translate(-206.151 -340.269)" fill="#f7a87e"/>
      <path id="Trazado_799" data-name="Trazado 799" d="M819.047,653.39q.044.117.088.239Q819.091,653.507,819.047,653.39Z" transform="translate(-206.18 -340.347)" fill="#f7a87e"/>
      <path id="Trazado_800" data-name="Trazado 800" d="M822.187,664.705c.074.431.142.863.2,1.3C822.329,665.568,822.261,665.136,822.187,664.705Z" transform="translate(-206.342 -340.931)" fill="#f7a87e"/>
      <path id="Trazado_801" data-name="Trazado 801" d="M651.518,680.694q-.151-.66-.272-1.314Q651.367,680.034,651.518,680.694Z" transform="translate(-197.514 -341.689)" fill="#f7a87e"/>
      <path id="Trazado_802" data-name="Trazado 802" d="M657.769,692.464q-.512-.693-1-1.382Q657.256,691.771,657.769,692.464Z" transform="translate(-197.8 -342.293)" fill="#f7a87e"/>
      <path id="Trazado_803" data-name="Trazado 803" d="M661.553,697.305q-.373-.454-.743-.911Q661.18,696.852,661.553,697.305Z" transform="translate(-198.008 -342.568)" fill="#f7a87e"/>
      <path id="Trazado_804" data-name="Trazado 804" d="M651.074,678.373q-.1-.615-.174-1.222Q650.975,677.757,651.074,678.373Z" transform="translate(-197.497 -341.574)" fill="#f7a87e"/>
      <path id="Trazado_805" data-name="Trazado 805" d="M650.785,676.1q-.054-.552-.091-1.1Q650.731,675.547,650.785,676.1Z" transform="translate(-197.486 -341.463)" fill="#f7a87e"/>
      <path id="Trazado_806" data-name="Trazado 806" d="M663.013,699.054q-.385-.455-.771-.917Q662.628,698.6,663.013,699.054Z" transform="translate(-198.082 -342.658)" fill="#f7a87e"/>
      <path id="Trazado_807" data-name="Trazado 807" d="M824.245,577.421c.083.055.166.109.247.164C824.411,577.53,824.327,577.476,824.245,577.421Z" transform="translate(-206.449 -336.423)" fill="#f7a87e"/>
      <path id="Trazado_808" data-name="Trazado 808" d="M818.609,652.238c.079.2.165.423.257.667C818.774,652.661,818.688,652.438,818.609,652.238Z" transform="translate(-206.158 -340.287)" fill="#f7a87e"/>
      <path id="Trazado_809" data-name="Trazado 809" d="M826.031,578.718l.162.134Z" transform="translate(-206.541 -336.49)" fill="#f7a87e"/>
      <path id="Trazado_810" data-name="Trazado 810" d="M826.91,579.484c.052.049.1.1.153.148C827.012,579.583,826.962,579.533,826.91,579.484Z" transform="translate(-206.586 -336.53)" fill="#f7a87e"/>
      <path id="Trazado_811" data-name="Trazado 811" d="M826.631,579.229c.052.045.1.092.152.138C826.732,579.321,826.683,579.274,826.631,579.229Z" transform="translate(-206.572 -336.517)" fill="#f7a87e"/>
      <path id="Trazado_812" data-name="Trazado 812" d="M827.173,579.74c.065.065.129.132.192.2C827.3,579.872,827.238,579.805,827.173,579.74Z" transform="translate(-206.6 -336.543)" fill="#f7a87e"/>
      <path id="Trazado_813" data-name="Trazado 813" d="M650.6,671.809q-.006.491,0,.99Q650.6,672.3,650.6,671.809Z" transform="translate(-197.481 -341.298)" fill="#f7a87e"/>
      <path id="Trazado_814" data-name="Trazado 814" d="M818.355,651.6c-.162-.4-.258-.624-.259-.624h0S818.193,651.2,818.355,651.6Z" transform="translate(-206.131 -340.222)" fill="#f7a87e"/>
      <path id="Trazado_815" data-name="Trazado 815" d="M822.411,672c-.275,3.347-2.239,8.237-4.615,13.084,2.376-4.847,4.34-9.737,4.615-13.084a27.328,27.328,0,0,0-.248-5.933A27.328,27.328,0,0,1,822.411,672Z" transform="translate(-206.116 -341.002)" fill="#f7a87e"/>
      <path id="Trazado_816" data-name="Trazado 816" d="M826.339,578.973l.156.135Z" transform="translate(-206.557 -336.504)" fill="#f7a87e"/>
      <path id="Trazado_817" data-name="Trazado 817" d="M665.1,701.473c4.308,4.9,8.036,8.613,8.036,8.613h0S669.409,706.377,665.1,701.473Z" transform="translate(-198.23 -342.83)" fill="#f7a87e"/>
      <path id="Trazado_818" data-name="Trazado 818" d="M652.942,657.96l0,0h0Z" transform="translate(-197.602 -340.583)" fill="#f7a87e"/>
      <path id="Trazado_819" data-name="Trazado 819" d="M646.618,588.637c-3.744,1.942-10.52,8.923-19.079,19.017C636.316,597.439,643.082,590.5,646.618,588.637Z" transform="translate(-196.29 -337.003)" fill="#f7a87e"/>
      <path id="Trazado_820" data-name="Trazado 820" d="M824.644,577.689c.072.049.144.1.215.149C824.788,577.788,824.716,577.738,824.644,577.689Z" transform="translate(-206.469 -336.437)" fill="#f7a87e"/>
      <path id="Trazado_821" data-name="Trazado 821" d="M825.708,578.462l.172.135Z" transform="translate(-206.524 -336.477)" fill="#f7a87e"/>
      <path id="Trazado_822" data-name="Trazado 822" d="M825.369,578.205l.184.138Z" transform="translate(-206.507 -336.464)" fill="#f7a87e"/>
      <path id="Trazado_823" data-name="Trazado 823" d="M842.114,676.45c3.252,3.556,6.716,7.39,10.3,11.42h0C848.83,683.839,845.366,680.006,842.114,676.45Z" transform="translate(-207.372 -341.538)" fill="#f7a87e"/>
      <path id="Trazado_824" data-name="Trazado 824" d="M825.016,577.948l.2.142Z" transform="translate(-206.489 -336.451)" fill="#f7a87e"/>
      <path id="Trazado_825" data-name="Trazado 825" d="M665,701.351c-.637-.726-1.288-1.478-1.94-2.247C663.707,699.873,664.358,700.625,665,701.351Z" transform="translate(-198.124 -342.708)" fill="#d75555"/>
      <path id="Trazado_826" data-name="Trazado 826" d="M651.07,586.979q-1.522.7-3.039,1.387c-.12.054-.246.118-.374.185.127-.065.253-.13.374-.185Q649.546,587.682,651.07,586.979Z" transform="translate(-197.329 -336.917)" fill="#d75555"/>
      <path id="Trazado_827" data-name="Trazado 827" d="M818.369,651.633c.03.074.063.155.1.241C818.432,651.788,818.4,651.707,818.369,651.633Z" transform="translate(-206.145 -340.256)" fill="#d75555"/>
      <path id="Trazado_828" data-name="Trazado 828" d="M818.1,650.975s9.664,9.822,22.778,24.159C827.76,660.8,818.1,650.975,818.1,650.975Z" transform="translate(-206.131 -340.222)" fill="#d75555"/>
      <path id="Trazado_829" data-name="Trazado 829" d="M651.237,679.331c-.056-.3-.108-.6-.154-.892C651.129,678.735,651.182,679.033,651.237,679.331Z" transform="translate(-197.506 -341.64)" fill="#d75555"/>
      <path id="Trazado_830" data-name="Trazado 830" d="M660.656,696.195c-.976-1.207-1.931-2.434-2.833-3.656C658.725,693.76,659.68,694.988,660.656,696.195Z" transform="translate(-197.854 -342.368)" fill="#d75555"/>
      <path id="Trazado_831" data-name="Trazado 831" d="M662.208,698.1q-.309-.368-.615-.742Q661.9,697.728,662.208,698.1Z" transform="translate(-198.049 -342.617)" fill="#d75555"/>
      <path id="Trazado_832" data-name="Trazado 832" d="M851.651,608.769h0c-8.058-10.441-16.2-20.213-24.233-28.777-.014-.015-.029-.029-.043-.045l.043.045C835.446,588.556,843.593,598.328,851.651,608.769Z" transform="translate(-206.61 -336.554)" fill="#d75555"/>
      <path id="Trazado_833" data-name="Trazado 833" d="M819.14,653.642a62.8,62.8,0,0,1,2.89,10.492A62.8,62.8,0,0,0,819.14,653.642Z" transform="translate(-206.185 -340.36)" fill="#d75555"/>
      <path id="Trazado_834" data-name="Trazado 834" d="M832.4,781.6h0l-24.51-78.59s3.112-4.821,6.407-10.827c-3.295,6.007-6.407,10.827-6.407,10.827Z" transform="translate(-205.604 -342.35)" fill="#d75555"/>
      <path id="Trazado_835" data-name="Trazado 835" d="M673.546,710.555,673.008,715l.538-4.448Z" transform="translate(-198.638 -343.299)" fill="#d75555"/>
      <path id="Trazado_836" data-name="Trazado 836" d="M817.771,686.124q-.225.461-.455.921Q817.546,686.585,817.771,686.124Z" transform="translate(-206.091 -342.037)" fill="#d75555"/>
      <path id="Trazado_837" data-name="Trazado 837" d="M815.617,690.312q-.32.6-.639,1.189Q815.3,690.912,815.617,690.312Z" transform="translate(-205.97 -342.254)" fill="#d75555"/>
      <path id="Trazado_838" data-name="Trazado 838" d="M817.23,687.095c-.515,1.028-1.045,2.05-1.578,3.051C816.185,689.145,816.715,688.123,817.23,687.095Z" transform="translate(-206.005 -342.087)" fill="#d75555"/>
      <path id="Trazado_839" data-name="Trazado 839" d="M818.88,652.941c.051.136.1.278.158.426C818.984,653.219,818.931,653.077,818.88,652.941Z" transform="translate(-206.172 -340.323)" fill="#d75555"/>
      <path id="Trazado_840" data-name="Trazado 840" d="M818.566,652.128l.041.1Z" transform="translate(-206.155 -340.281)" fill="#d75555"/>
      <path id="Trazado_841" data-name="Trazado 841" d="M652.918,657.959s-.2.521-.478,1.457c.279-.936.478-1.457.478-1.457Z" transform="translate(-197.576 -340.583)" fill="#d75555"/>
      <path id="Trazado_842" data-name="Trazado 842" d="M824.505,577.594c.045.029.088.06.132.09C824.593,577.654,824.55,577.623,824.505,577.594Z" transform="translate(-206.462 -336.432)" fill="#d75555"/>
      <path id="Trazado_843" data-name="Trazado 843" d="M651.533,680.766q.109.484.235.968c.638,2.451,2.441,5.569,4.732,8.815-2.291-3.246-4.094-6.364-4.732-8.815Q651.643,681.249,651.533,680.766Z" transform="translate(-197.529 -341.76)" fill="#d75555"/>
      <path id="Trazado_844" data-name="Trazado 844" d="M820,575.019l.13.065Z" transform="translate(-206.23 -336.299)" fill="#d75555"/>
      <path id="Trazado_845" data-name="Trazado 845" d="M826.2,578.859l.13.108Z" transform="translate(-206.55 -336.498)" fill="#d75555"/>
      <path id="Trazado_846" data-name="Trazado 846" d="M825.889,578.6l.135.108Z" transform="translate(-206.534 -336.484)" fill="#d75555"/>
      <path id="Trazado_847" data-name="Trazado 847" d="M815.621,573.03l.1.04Z" transform="translate(-206.003 -336.197)" fill="#d75555"/>
      <path id="Trazado_848" data-name="Trazado 848" d="M819.506,574.775l.106.053Z" transform="translate(-206.204 -336.287)" fill="#d75555"/>
      <path id="Trazado_849" data-name="Trazado 849" d="M826.5,579.115l.121.108Z" transform="translate(-206.565 -336.511)" fill="#d75555"/>
      <path id="Trazado_850" data-name="Trazado 850" d="M816.2,573.275l.079.033Z" transform="translate(-206.033 -336.209)" fill="#d75555"/>
      <path id="Trazado_851" data-name="Trazado 851" d="M650.894,677.1c-.039-.316-.074-.629-.1-.941C650.82,676.471,650.855,676.784,650.894,677.1Z" transform="translate(-197.491 -341.523)" fill="#d75555"/>
      <path id="Trazado_852" data-name="Trazado 852" d="M826.791,579.374l.113.1Z" transform="translate(-206.58 -336.524)" fill="#d75555"/>
      <path id="Trazado_853" data-name="Trazado 853" d="M820.962,575.509l.146.077Z" transform="translate(-206.279 -336.325)" fill="#d75555"/>
      <path id="Trazado_854" data-name="Trazado 854" d="M816.779,573.524l.061.026Z" transform="translate(-206.063 -336.222)" fill="#d75555"/>
      <path id="Trazado_855" data-name="Trazado 855" d="M820.486,575.263l.14.073Z" transform="translate(-206.255 -336.312)" fill="#d75555"/>
      <path id="Trazado_856" data-name="Trazado 856" d="M824.871,577.846l.138.1Z" transform="translate(-206.481 -336.445)" fill="#d75555"/>
      <path id="Trazado_857" data-name="Trazado 857" d="M823.258,576.8l.065.039Z" transform="translate(-206.398 -336.391)" fill="#d75555"/>
      <path id="Trazado_858" data-name="Trazado 858" d="M824.127,577.343l.112.074Z" transform="translate(-206.443 -336.419)" fill="#d75555"/>
      <path id="Trazado_859" data-name="Trazado 859" d="M823.739,577.094h0Z" transform="translate(-206.423 -336.406)" fill="#d75555"/>
      <path id="Trazado_860" data-name="Trazado 860" d="M821.428,575.756l.148.08Z" transform="translate(-206.303 -336.337)" fill="#d75555"/>
      <path id="Trazado_861" data-name="Trazado 861" d="M822.785,576.516l.119.069Z" transform="translate(-206.373 -336.377)" fill="#d75555"/>
      <path id="Trazado_862" data-name="Trazado 862" d="M821.888,576.006l.141.079Z" transform="translate(-206.327 -336.35)" fill="#d75555"/>
      <path id="Trazado_863" data-name="Trazado 863" d="M825.224,578.1l.138.1Z" transform="translate(-206.499 -336.458)" fill="#d75555"/>
      <path id="Trazado_864" data-name="Trazado 864" d="M825.563,578.351l.138.105Z" transform="translate(-206.517 -336.471)" fill="#d75555"/>
      <path id="Trazado_865" data-name="Trazado 865" d="M822.337,576.257l.137.078Z" transform="translate(-206.35 -336.363)" fill="#d75555"/>
      <path id="Trazado_866" data-name="Trazado 866" d="M819,574.535l.039.019Z" transform="translate(-206.178 -336.274)" fill="#d75555"/>
      <path id="Trazado_867" data-name="Trazado 867" d="M651.361,663.984q.1-.549.207-1.054Q651.461,663.435,651.361,663.984Z" transform="translate(-197.52 -340.839)" fill="#d75555"/>
      <path id="Trazado_868" data-name="Trazado 868" d="M651.093,665.616c.039-.266.081-.528.123-.784C651.174,665.088,651.132,665.35,651.093,665.616Z" transform="translate(-197.507 -340.938)" fill="#d75555"/>
      <path id="Trazado_869" data-name="Trazado 869" d="M651.8,661.788c.213-.917.426-1.691.6-2.293C652.229,660.1,652.016,660.871,651.8,661.788Z" transform="translate(-197.543 -340.662)" fill="#d75555"/>
      <path id="Trazado_870" data-name="Trazado 870" d="M651.579,662.878q.105-.505.212-.964Q651.685,662.372,651.579,662.878Z" transform="translate(-197.532 -340.787)" fill="#d75555"/>
      <path id="Trazado_871" data-name="Trazado 871" d="M815.042,572.79l.1.041Z" transform="translate(-205.973 -336.184)" fill="#d75555"/>
      <path id="Trazado_872" data-name="Trazado 872" d="M650.612,671.243c.007-.322.018-.642.032-.957C650.63,670.6,650.619,670.921,650.612,671.243Z" transform="translate(-197.482 -341.219)" fill="#d75555"/>
      <path id="Trazado_873" data-name="Trazado 873" d="M650.7,669.253c.021-.307.044-.61.07-.908C650.745,668.643,650.722,668.945,650.7,669.253Z" transform="translate(-197.486 -341.119)" fill="#d75555"/>
      <path id="Trazado_874" data-name="Trazado 874" d="M650.862,667.456l.01-.09Z" transform="translate(-197.495 -341.068)" fill="#d75555"/>
      <path id="Trazado_875" data-name="Trazado 875" d="M813.878,572.32l.072.028Z" transform="translate(-205.913 -336.16)" fill="#d75555"/>
      <path id="Trazado_876" data-name="Trazado 876" d="M660.716,582.346c-2.01.974-4.059,1.952-6.119,2.919,2.06-.967,4.108-1.945,6.119-2.919Z" transform="translate(-197.688 -336.678)" fill="#d75555"/>
      <path id="Trazado_877" data-name="Trazado 877" d="M827.071,579.64l.1.095Z" transform="translate(-206.595 -336.538)" fill="#d75555"/>
      <path id="Trazado_878" data-name="Trazado 878" d="M814.461,572.553l.095.038Z" transform="translate(-205.944 -336.172)" fill="#d75555"/>
      <path id="Trazado_879" data-name="Trazado 879" d="M813.288,572.088l.035.013Z" transform="translate(-205.883 -336.148)" fill="#d75555"/>
      <path id="Trazado_880" data-name="Trazado 880" d="M651.385,586.843q1.508-.7,3.017-1.4Q652.9,586.146,651.385,586.843Z" transform="translate(-197.522 -336.837)" fill="#d75555"/>
      <path id="Trazado_881" data-name="Trazado 881" d="M172.931,685.389a1.767,1.767,0,0,0-.125.66V786.694a9.805,9.805,0,0,0,9.805,9.805h3.457a1.8,1.8,0,0,0,1.782-1.553c5.381-39.322,16.767-82.555,25.4-103.2a1.792,1.792,0,0,0-.635-2.156,256.932,256.932,0,0,1-29.051-23.678,1.8,1.8,0,0,0-2.891.583C178.356,671.8,174.486,681.482,172.931,685.389Z" transform="translate(-172.806 -340.968)" fill="#f7a87e"/>
      <path id="Trazado_882" data-name="Trazado 882" d="M410.382,672.4l-5.63-63.71S418.294,645.524,410.382,672.4Z" transform="translate(-184.785 -338.038)" fill="#1d5690"/>
      <path id="Trazado_883" data-name="Trazado 883" d="M818.1,650.975s.061.138.165.393l.136-.087-.3-.305Z" transform="translate(-206.131 -340.222)" fill="none"/>
      <path id="Trazado_884" data-name="Trazado 884" d="M759.376,665.9c-15.987,1.244-32.034,1.533-48.069,1.569-20.008.046-40.561-.413-59.128-7.814-.138.494-.287,1.068-.438,1.714q-.107.46-.213.964t-.207,1.055c-.045.244-.089.493-.131.749s-.085.518-.123.784-.078.541-.113.818q-.051.394-.1.8l-.01.09q-.044.413-.082.838c-.027.3-.049.6-.07.908s-.038.617-.052.933-.026.635-.032.957c0,.162-.007.324-.008.487q-.006.491,0,.99t.028,1.01c.013.339.032.683.055,1.028q.037.545.091,1.1c.03.312.065.625.1.941q.075.606.174,1.222c.046.3.1.594.154.892q.121.654.272,1.314.11.484.235.968c.638,2.451,2.441,5.569,4.732,8.815q.485.689,1,1.382c.9,1.221,1.857,2.449,2.833,3.656q.37.458.743.911.307.373.615.742.386.462.771.917c.652.769,1.3,1.521,1.94,2.247,4.308,4.9,8.036,8.613,8.036,8.613l-.538,4.449-.5,4.15c13.952-4.034,27.978-7.81,42.241-10.523a290.9,290.9,0,0,1,67.81-4.806,158.311,158.311,0,0,1,18.9,1.87l-.541-1.736s3.113-4.82,6.407-10.827l.32-.584q.319-.589.639-1.189c.533-1,1.063-2.023,1.578-3.051q.23-.46.455-.921c2.376-4.847,4.34-9.737,4.615-13.083a27.329,27.329,0,0,0-.248-5.933c-.06-.433-.128-.866-.2-1.3a62.792,62.792,0,0,0-2.89-10.492q-.044-.122-.088-.239c-.055-.148-.107-.29-.158-.426-.092-.244-.178-.467-.257-.667l-.041-.1c-.031-.081-.062-.156-.09-.229s-.066-.167-.1-.241l-.094-.231a83.283,83.283,0,0,1-21.188,9.789C779.009,664.005,769.175,665.139,759.376,665.9Z" transform="translate(-197.481 -340.243)" fill="#dd7270"/>
      <path id="Trazado_885" data-name="Trazado 885" d="M830.854,796.389l-29.982-91.078a158.3,158.3,0,0,0-18.9-1.87,290.894,290.894,0,0,0-67.81,4.806c-14.262,2.713-28.289,6.489-42.241,10.523l-10.324,80.116,165.9-.462C829.874,798.424,830.052,797.574,830.854,796.389Z" transform="translate(-198.049 -342.915)" fill="#ee7b78"/>
      <path id="Trazado_886" data-name="Trazado 886" d="M244.055,655.874l1.713-49.639A77.624,77.624,0,0,0,244.055,655.874Z" transform="translate(-176.317 -337.911)" fill="#1d5690"/>
      <path id="Trazado_887" data-name="Trazado 887" d="M317.17,746.831c-15.233.154-30.607-.9-45.262-5.057a89.294,89.294,0,0,1-30.385-14.949l-1.72,44.932c8.8,5.2,22.187,10.115,38.191,13.551h90.093A149.583,149.583,0,0,0,406.7,770.8l-2.418-46.211A131.312,131.312,0,0,1,383,735.442C362.2,743.751,339.568,746.606,317.17,746.831Z" transform="translate(-176.266 -344.023)" fill="#1d5690"/>
      <rect id="Rectángulo_52" data-name="Rectángulo 52" width="61.978" height="269.48" rx="13.758" transform="translate(375.935 455.971) rotate(-90)" opacity="0.4"/>
      <g id="Grupo_391" data-name="Grupo 391" transform="translate(428.204 406.006)">
        <circle id="Elipse_41" data-name="Elipse 41" cx="18.976" cy="18.976" r="18.976" fill="#fff" opacity="0.8"/>
        <circle id="Elipse_42" data-name="Elipse 42" cx="18.976" cy="18.976" r="18.976" transform="translate(64.235)" fill="#f43853"/>
        <circle id="Elipse_43" data-name="Elipse 43" cx="18.976" cy="18.976" r="18.976" transform="translate(126.99)" fill="#fff" opacity="0.8"/>
        <g id="Grupo_390" data-name="Grupo 390" transform="translate(8.683 11.799)">
          <path id="Trazado_888" data-name="Trazado 888" d="M642.257,763.857a2.115,2.115,0,1,1-2.115,2.115A2.114,2.114,0,0,1,642.257,763.857Z" transform="translate(-633.828 -763.857)" fill="#454545"/>
          <path id="Trazado_889" data-name="Trazado 889" d="M654.07,775.351H633.485l4.774-5.244,3.273,3.306,6.09-5.659Z" transform="translate(-633.485 -764.058)" fill="#454545"/>
        </g>
        <path id="Trazado_890" data-name="Trazado 890" d="M711.5,770.443s-3.378-.188-3.8.656c-.629,1.258.079,4.035-3.948,3.8s-2.693-3.625-2.234-4.6,1.257-2.763,9.982-2.763,9.524,1.783,9.982,2.763,1.793,4.369-2.233,4.6-3.32-2.542-3.949-3.8C714.874,770.255,711.5,770.443,711.5,770.443Z" transform="translate(-628.284 -752.247)" fill="#fff"/>
        <rect id="Rectángulo_53" data-name="Rectángulo 53" width="18.61" height="12.51" transform="translate(136.661 12.078)" fill="#454545"/>
        <path id="Trazado_891" data-name="Trazado 891" d="M783.421,781.629v-5.575l-4.939.836Z" transform="translate(-632.29 -752.688)" fill="#454545"/>
        <rect id="Rectángulo_54" data-name="Rectángulo 54" width="13.955" height="2.119" transform="translate(138.989 15.208)" fill="#fff"/>
        <rect id="Rectángulo_55" data-name="Rectángulo 55" width="7.404" height="2.119" transform="translate(138.989 19.592)" fill="#fff"/>
      </g>
      <rect id="Rectángulo_56" data-name="Rectángulo 56" width="63.1" height="269.035" rx="12.059" transform="translate(0 456.05) rotate(-90)" opacity="0.4"/>
      <g id="Grupo_393" data-name="Grupo 393" transform="translate(51.309 407.233)">
        <circle id="Elipse_44" data-name="Elipse 44" cx="19.319" cy="19.319" r="19.319" fill="#fff" opacity="0.8"/>
        <circle id="Elipse_45" data-name="Elipse 45" cx="19.319" cy="19.319" r="19.319" transform="translate(65.398)" fill="#f43853"/>
        <circle id="Elipse_46" data-name="Elipse 46" cx="19.319" cy="19.319" r="19.319" transform="translate(129.288)" fill="#fff" opacity="0.8"/>
        <g id="Grupo_392" data-name="Grupo 392" transform="translate(8.84 12.012)">
          <path id="Trazado_892" data-name="Trazado 892" d="M245.162,765.375a2.153,2.153,0,1,1-2.154,2.154A2.154,2.154,0,0,1,245.162,765.375Z" transform="translate(-236.58 -765.375)" fill="#454545"/>
          <path id="Trazado_893" data-name="Trazado 893" d="M257.188,777.077H236.23l4.861-5.339,3.333,3.366,6.2-5.762Z" transform="translate(-236.23 -765.58)" fill="#454545"/>
        </g>
        <path id="Trazado_894" data-name="Trazado 894" d="M315.653,772.08s-3.439-.191-3.869.669c-.64,1.28.081,4.108-4.019,3.869s-2.743-3.69-2.275-4.687,1.279-2.813,10.164-2.813,9.7,1.815,10.163,2.813,1.826,4.448-2.275,4.687-3.379-2.589-4.019-3.869C319.092,771.889,315.653,772.08,315.653,772.08Z" transform="translate(-230.936 -753.556)" fill="#fff"/>
        <rect id="Rectángulo_57" data-name="Rectángulo 57" width="18.947" height="12.736" transform="translate(139.134 12.296)" fill="#454545"/>
        <path id="Trazado_895" data-name="Trazado 895" d="M388.88,783.47v-5.676l-5.029.851Z" transform="translate(-235.014 -754.004)" fill="#454545"/>
        <rect id="Rectángulo_58" data-name="Rectángulo 58" width="14.208" height="2.158" transform="translate(141.504 15.483)" fill="#fff"/>
        <rect id="Rectángulo_59" data-name="Rectángulo 59" width="7.538" height="2.158" transform="translate(141.504 19.946)" fill="#fff"/>
      </g>
      <g id="Grupo_394" data-name="Grupo 394" transform="translate(337.815 235.718)">
        <path id="Trazado_896" data-name="Trazado 896" d="M555.4,755.376l1.073.95L647.9,657.96Z" transform="translate(-530.38 -576.301)" fill="#ee7b78"/>
        <path id="Trazado_897" data-name="Trazado 897" d="M812.008,579.574c-.013-.015-.028-.029-.042-.045l-.192-.2-.1-.095c-.05-.049-.1-.1-.153-.148l-.113-.1c-.05-.046-.1-.092-.151-.138l-.122-.108-.156-.135-.13-.108-.162-.134-.135-.108-.172-.135-.137-.105-.184-.138-.137-.1c-.064-.047-.131-.095-.2-.142l-.138-.1c-.071-.05-.143-.1-.215-.149l-.132-.09c-.081-.055-.163-.109-.246-.164l-.112-.074c-.12-.079-.242-.157-.367-.235h0q-.192-.122-.391-.243l-.064-.039-.33-.2-.119-.069-.288-.168-.138-.078-.284-.159-.141-.079-.288-.157-.149-.08-.295-.157-.146-.077-.31-.16-.142-.073-.329-.167-.13-.065-.363-.178-.106-.053-.436-.21-.039-.018q-.99-.471-2.05-.933l-.061-.027-.469-.2-.079-.033-.455-.193-.1-.04q-.223-.094-.449-.187l-.1-.041-.456-.187-.095-.038-.48-.193-.073-.028-.524-.207-.035-.013-.572-.222c-36.824,19.07-80.171,25.672-120.876,17.5-7.9-1.586-15.866-3.792-22.928-7.547-2.01.974-4.059,1.952-6.119,2.919l-.029.014q-1.506.707-3.017,1.4l-.121.056q-1.523.7-3.04,1.387c-.12.054-.247.12-.374.185-3.536,1.862-10.3,8.8-19.079,19.017-24.341,28.327-64.148,81.827-93.434,121.97l1.546,1.371,23.479,20.8,92.5-97.416h0s-.2.521-.478,1.457c-.052.178-.108.373-.166.579,18.567,7.4,39.12,7.86,59.128,7.814,16.036-.036,32.082-.324,48.069-1.569,9.8-.763,19.633-1.9,29.046-4.724a83.283,83.283,0,0,0,21.188-9.789c-.1-.254-.165-.393-.165-.393l.3.305c1.711,1.749,10.7,10.977,22.477,23.854,3.252,3.556,6.716,7.39,10.3,11.42V608.351C828.184,597.91,820.038,588.138,812.008,579.574Z" transform="translate(-529.017 -571.854)" fill="#ee7b78"/>
      </g>
      <path id="Trazado_898" data-name="Trazado 898" d="M496.08,767.409,450.534,644.55s-36.552,19.412-36.351,20.873,48.412,95.985,48.412,95.985Z" transform="translate(-185.272 -339.89)" fill="#f7a87e"/>
    </g>
  </g>
</svg>
