<svg xmlns="http://www.w3.org/2000/svg" width="837.534" height="642.808" viewBox="0 0 837.534 642.808">
  <g id="banner" transform="translate(-19.788 -74.961)">
    <g id="Grupo_6" data-name="Grupo 6" transform="translate(19.788 74.961)">
      <path id="Trazado_1" data-name="Trazado 1" d="M367.721,201.018C335.978,85.868,192.935,48.773,110.958,134.831q-1.767,1.855-3.53,3.77C-10.1,266.358,42.188,585.546,289.646,658.289c256.806,75.489,501.448-63.225,515.781-193.482S706.6,293.617,530.99,330.04C431.776,350.62,387.483,272.7,367.721,201.018Z" transform="translate(3.531 -64.307)" fill="#dadaef"/>
      <path id="Trazado_2" data-name="Trazado 2" d="M49.449,260.891A54.019,54.019,0,0,0,62.24,219.936c-1.434-14.467-6.212-31.167-20.683-30.667-25.4.876-27.212,64.2-12.461,77.5C35.778,272.794,43.262,267.97,49.449,260.891Z" transform="translate(-19.788 21.438)" fill="#dadaef"/>
      <path id="Trazado_3" data-name="Trazado 3" d="M403.165,423a54.027,54.027,0,0,0,42.011-8.717c11.949-8.281,24.224-20.571,16.758-32.977-13.108-21.78-69.338,7.4-73.8,26.757C386.119,416.831,393.972,421.029,403.165,423Z" transform="translate(290.614 176.894)" fill="#dadaef"/>
      <path id="Trazado_4" data-name="Trazado 4" d="M466.793,351.687A28.428,28.428,0,0,0,479.461,333c1.478-7.506,1.609-16.646-5.759-18.594-12.931-3.42-23.468,28.21-18.058,37.152C458.1,355.6,462.6,354.312,466.793,351.687Z" transform="translate(346.594 126.769)" fill="#dadaef"/>
      <path id="Trazado_5" data-name="Trazado 5" d="M227.3,103.985a35.268,35.268,0,0,0-17.715-21.7c-8.4-4.422-19.214-7.823-24.145.24-8.659,14.156,25.194,37.912,37.742,34.658C228.865,115.712,228.93,109.9,227.3,103.985Z" transform="translate(118.743 -72.689)" fill="#dadaef"/>
      <path id="Trazado_6" data-name="Trazado 6" d="M186.384,84.064c.017-4.467-2.356-7.5-6.365-8.542-3.91-1.012-9.294-1.128-13.214,3.8-6.878,8.649,7.98,15.8,15.324,12.209C185.455,89.9,186.375,86.881,186.384,84.064Z" transform="translate(102.714 -74.961)" fill="#dadaef"/>
      <path id="Trazado_7" data-name="Trazado 7" d="M56.528,184.113c.02-5.91-3.119-9.93-8.424-11.3-5.174-1.34-12.3-1.5-17.487,5.025-9.1,11.448,10.561,20.917,20.279,16.159C55.3,191.836,56.515,187.84,56.528,184.113Z" transform="translate(-12.632 6.939)" fill="#dadaef"/>
      <path id="Trazado_8" data-name="Trazado 8" d="M483.9,308.355c.016-4.467-2.356-7.5-6.365-8.542-3.91-1.014-9.3-1.13-13.213,3.8-6.88,8.651,7.98,15.805,15.324,12.211C482.969,314.192,483.887,311.172,483.9,308.355Z" transform="translate(353.638 114.208)" fill="#dadaef"/>
      <g id="Grupo_3" data-name="Grupo 3" transform="translate(632.832 173.651)">
        <g id="Grupo_1" data-name="Grupo 1">
          <path id="Trazado_9" data-name="Trazado 9" d="M405.287,206.268H365.03a1.95,1.95,0,0,1-1.949-1.949V171.11a1.95,1.95,0,0,1,1.949-1.948h40.256a1.95,1.95,0,0,1,1.949,1.948v33.209A1.95,1.95,0,0,1,405.287,206.268Zm-39.32-2.885h38.385V172.045H365.967Z" transform="translate(-363.082 -169.162)" fill="#dadaef"/>
        </g>
        <g id="Grupo_2" data-name="Grupo 2" transform="translate(44.006 6.553)">
          <path id="Trazado_10" data-name="Trazado 10" d="M398.848,196.717a3.3,3.3,0,0,1-1.427-.324l-8.583-4.1a3.324,3.324,0,0,1-1.884-2.986v-9.184a3.326,3.326,0,0,1,1.884-2.986l8.583-4.1a3.308,3.308,0,0,1,4.734,2.986v17.378a3.316,3.316,0,0,1-3.307,3.311Zm0-21.116a.425.425,0,0,0-.183.044l-8.585,4.1a.43.43,0,0,0-.241.383v9.184a.426.426,0,0,0,.243.383l8.583,4.1a.424.424,0,0,0,.607-.383V176.028a.412.412,0,0,0-.2-.359A.419.419,0,0,0,398.846,175.6Z" transform="translate(-386.954 -172.717)" fill="#dadaef"/>
        </g>
      </g>
      <g id="Grupo_551" data-name="Grupo 551" transform="translate(538.41 273.978)">
        <g id="Grupo_143" data-name="Grupo 143">
          <path id="Trazado_163" data-name="Trazado 163" d="M380.954,310.76l-23.345-10.9a37.5,37.5,0,1,1,19.262-16.922l6.677,25.662A1.865,1.865,0,0,1,380.954,310.76Z" transform="translate(-306.436 -227.384)" fill="#6b5efd"/>
        </g>
        <g id="question" transform="translate(-78.81 8.022)">
          <path id="Trazado_1185" data-name="Trazado 1185" d="M229.26,392,226,398.52l3.26,6.52a6.52,6.52,0,1,0,0-13.04Z" transform="translate(-112.308 -349.403)" fill="#fda829"/>
          <path id="Trazado_1186" data-name="Trazado 1186" d="M196,398.52a6.52,6.52,0,0,0,6.52,6.52V392A6.52,6.52,0,0,0,196,398.52Z" transform="translate(-85.568 -349.403)" fill="#ffcf2f"/>
          <path id="Trazado_1187" data-name="Trazado 1187" d="M202.52,0,196,6.52l6.52,6.52a3.912,3.912,0,0,1,2.528,6.9l-2.528,2.149-4.347,8.625,4.347,8.625h6.52V33.658l4.453-3.786A16.951,16.951,0,0,0,202.52,0Z" transform="translate(-85.568)" fill="#fda829"/>
          <g id="Grupo_550" data-name="Grupo 550" transform="translate(100)">
            <path id="Trazado_1188" data-name="Trazado 1188" d="M196,208.789V220.5h6.52V203.246Z" transform="translate(-185.568 -181.16)" fill="#ffcf2f"/>
            <path id="Trazado_1189" data-name="Trazado 1189" d="M100,16.952v1.63h13.04v-1.63a3.916,3.916,0,0,1,3.912-3.912V0A16.971,16.971,0,0,0,100,16.952Z" transform="translate(-100)" fill="#ffcf2f"/>
          </g>
        </g>
      </g>
    </g>
    <g id="Grupo_29" data-name="Grupo 29" transform="translate(252.414 382.611)">
      <g id="Grupo_27" data-name="Grupo 27" transform="translate(0 0)">
        <g id="Grupo_7" data-name="Grupo 7" transform="translate(146.262 95.159)">
          <path id="Trazado_12" data-name="Trazado 12" d="M225.324,378.42S251.888,401.9,276.4,419.375a117.133,117.133,0,0,0,16.183,10.085c8.386,4.063,15.809,5.337,20.408,1.2,17.055-15.322,39.392-105.487,39.392-105.487a34.089,34.089,0,0,1-18.274-4.852s-9.547,22.987-20.187,40.308c-9.811,15.973-17.43,27.994-17.43,27.994-2.6-2.221-5.392-4.67-8.31-7.272-3.1-2.761-6.343-5.7-9.65-8.721-23.99-21.972-52.8-44.727-52.8-44.727Z" transform="translate(-225.324 -270.828)" fill="#542bd8"/>
          <path id="Trazado_13" data-name="Trazado 13" d="M300.229,348.6a16.367,16.367,0,0,1-16.878-11.114,13.524,13.524,0,0,1-.7-3.978c-.112-7.071-2.6-22.431,4.71-24.044,2.669-.588.573,6.708,3.949,11.975a100.483,100.483,0,0,0,10.756-11.125c3.6-4.623,11.468-12.7,15.14-16.41a1.406,1.406,0,0,1,2.393,1.272c-.59,2.21-2.537,5.814-7.761,11.554,0,0,13.271-13.223,16.451-12.025s-13.719,17.433-13.719,17.433,14.238-10.987,16.218-8.979c1.2,1.222-11.949,14.884-11.949,14.884s14.286-9.211,12.408-4.734c-.546,1.3-24.978,17.164-26.8,34.511A18.786,18.786,0,0,1,300.229,348.6Z" transform="translate(-177.394 -293.474)" fill="#f7ad89"/>
        </g>
        <g id="Grupo_11" data-name="Grupo 11" transform="translate(0 127.396)">
          <path id="Trazado_14" data-name="Trazado 14" d="M301.03,491c-10.183-38.877-2.955-81.96-1.648-109.731.533-11.289,1.357-38.975,1.357-38.975-5.1-4.321-32.72-25.673-32.72-25.673l-27.62-5.663s-56,9.718-72.2,33.323c-5.471,7.965-10.039,33.537-13.77,63.061q-.221,1.764-.444,3.541c-3.355,27.34-6.011,57.557-8,80.116Z" transform="translate(-145.981 -310.962)" fill="#6b5efd"/>
          <g id="Grupo_8" data-name="Grupo 8" transform="translate(79.606 14.811)">
            <path id="Trazado_15" data-name="Trazado 15" d="M213.7,344.453a1.389,1.389,0,0,0,.243-2.756c-16.939-3.042-22-21.479-22.043-21.666a1.389,1.389,0,0,0-2.688.7c.218.83,5.532,20.336,24.241,23.693A1.245,1.245,0,0,0,213.7,344.453Z" transform="translate(-189.165 -318.996)" fill="#542bd8"/>
          </g>
          <g id="Grupo_9" data-name="Grupo 9" transform="translate(57.391 115.709)">
            <path id="Trazado_16" data-name="Trazado 16" d="M185.378,417.691c19.181,0,37.287-10.024,49.654-19a159.694,159.694,0,0,0,25.061-22.67,1.388,1.388,0,1,0-2.114-1.8,156.792,156.792,0,0,1-24.626,22.257c-13.455,9.757-33.858,20.8-54.664,18a1.389,1.389,0,1,0-.371,2.752A53.089,53.089,0,0,0,185.378,417.691Z" transform="translate(-177.114 -373.731)" fill="#542bd8"/>
          </g>
          <g id="Grupo_10" data-name="Grupo 10" transform="translate(76.831 152.272)">
            <path id="Trazado_17" data-name="Trazado 17" d="M190.116,412.089c24.678,0,42.592-15.424,43.353-16.091a1.389,1.389,0,0,0-1.829-2.09c-.179.157-17.922,15.4-41.552,15.4-.339,0-.675,0-1.014-.009h-.028a1.388,1.388,0,0,0-.024,2.776C189.387,412.085,189.754,412.089,190.116,412.089Z" transform="translate(-187.66 -393.566)" fill="#542bd8"/>
          </g>
        </g>
        <g id="Grupo_26" data-name="Grupo 26" transform="translate(10.874 149.963)">
          <path id="Trazado_36" data-name="Trazado 36" d="M263.076,385.924s24.858-.839,36.588,5.482,26.637,10.782,25.515,15.518-17.142-1.56-17.142-1.56-1.777,8.485-12.672,14.235-39.725-9.11-39.725-9.11Z" transform="translate(-64.367 -270.337)" fill="#f7ad89"/>
          <g id="Grupo_25" data-name="Grupo 25">
            <path id="Trazado_37" data-name="Trazado 37" d="M174.331,323.2c17.547,17.582,66.385,79.691,79.624,85.488,17.236,7.549,69.686,25.006,96.333,30.16,4.808.931-5.209,24.733-5.209,24.733s-74.839-6.168-104.1-17.413c-8.277-3.182-36.815-24.995-63.105-48.648-8.129-7.313-26.228-20.678-25.99-34.745C152.253,340.9,163.676,328.176,174.331,323.2Z" transform="translate(-151.88 -323.204)" fill="#542bd8"/>
          </g>
        </g>
        <g id="Grupo_553" data-name="Grupo 553" transform="matrix(0.951, 0.309, -0.309, 0.951, -342.186, -368.513)">
          <g id="Grupo_475" data-name="Grupo 475" transform="translate(569.323 323.308)">
            <path id="Trazado_1042" data-name="Trazado 1042" d="M549.187,293.258c0,11.18,28.026,11.18,28.026,0V269.939H549.187Z" transform="translate(-549.187 -269.939)" fill="#f7ad89"/>
            <g id="Grupo_474" data-name="Grupo 474" opacity="0.5" style="mix-blend-mode: multiply;isolation: isolate">
              <path id="Trazado_1043" data-name="Trazado 1043" d="M549.187,293.258V269.939h28.026V283.2a38.5,38.5,0,0,0-24.73,15.691A6.723,6.723,0,0,1,549.187,293.258Z" transform="translate(-549.187 -269.939)" fill="#ffbe92"/>
            </g>
          </g>
          <g id="Grupo_481" data-name="Grupo 481" transform="translate(507.969 160.694)">
            <g id="Grupo_476" data-name="Grupo 476" transform="translate(123.296 85.459)">
              <path id="Trazado_1044" data-name="Trazado 1044" d="M590.894,220.971c3.72-1.737,7.956-4.205,12.245-1.983,5.707,2.958,3.1,11.119,1.929,15.756-1.843,7.318-6.78,16.686-14.268,14.284Z" transform="translate(-590.8 -218.106)" fill="#ffbe92"/>
              <path id="Trazado_1045" data-name="Trazado 1045" d="M594.58,222.463a12.133,12.133,0,0,1,3.715-1.045,2.811,2.811,0,0,1,1.477.323c2.38,1.216.7,6.652-.208,9.573l-.295.965c-1.314,4.363-3.465,7.751-5.353,9.366A61.829,61.829,0,0,1,594.58,222.463Z" transform="translate(-589.486 -216.489)" fill="#f2a46e"/>
            </g>
            <path id="Trazado_1046" data-name="Trazado 1046" d="M517.82,259.717c4.85,30.754,24.6,73.576,61.856,70.83,1.759-.141,3.462-.28,5.106-.506,6.316-.752,11.9-2.274,17.446-6.31,6.377-4.653,11.283-11.078,15.116-17.919a109.281,109.281,0,0,0,13.5-52.762,119.776,119.776,0,0,0-1.24-22.514,81.983,81.983,0,0,0-1.646-8.239c-2.6-10.247-6.913-19.171-13.162-26.015-9.153-10.07-22.492-15.689-40.531-14.626-26.293,1.553-43.277,13.922-51.633,32.064C516.663,226.717,515.126,242.684,517.82,259.717Z" transform="translate(-503.782 -150.516)" fill="#f7ad89"/>
            <g id="Grupo_477" data-name="Grupo 477" transform="translate(12.758 53.002)" opacity="0.5" style="mix-blend-mode: multiply;isolation: isolate">
              <path id="Trazado_1047" data-name="Trazado 1047" d="M517.82,252.5c4.85,30.754,24.6,73.576,61.856,70.83,1.759-.141,3.462-.28,5.106-.506-33.019-4.756-45.412-27.63-53.679-50.711-18.992-52.91,23.726-49.65,33.19-50.73,12.478-1.426,22.809-4.125,32.032-12.772,2.644-2.478,6.307-5.412,8.4-8.389,2.609,7.821,9.827,13.035,17.559,15.368-4.58-4.8-5.5-15.461-12.185-17.809-9.306-3.27-23.413-.386-32.768,1.63a246.821,246.821,0,0,1-41.469,5.03,52.507,52.507,0,0,0-13.23,2.063C516.663,219.5,515.126,235.467,517.82,252.5Z" transform="translate(-516.54 -196.301)" fill="#ffbe92"/>
            </g>
            <g id="Grupo_479" data-name="Grupo 479">
              <path id="Trazado_1048" data-name="Trazado 1048" d="M525.139,223.409c-3.9-1.286-8.4-3.239-12.394-.525-5.318,3.61-1.765,11.407-.059,15.874,2.693,7.05,8.7,15.771,15.851,12.5Z" transform="translate(-507.009 -130.981)" fill="#ffbe92"/>
              <g id="Grupo_478" data-name="Grupo 478" transform="translate(2.926 90.537)" opacity="0.5" style="mix-blend-mode: multiply;isolation: isolate">
                <path id="Trazado_1049" data-name="Trazado 1049" d="M525.139,223.409c-3.9-1.286-8.4-3.239-12.394-.525-5.318,3.61-1.765,11.407-.059,15.874,2.693,7.05,8.7,15.771,15.851,12.5Z" transform="translate(-509.935 -221.518)" fill="#ffbe92"/>
              </g>
              <path id="Trazado_1050" data-name="Trazado 1050" d="M639.754,231.345c-.03.128-.061.255-.092.383-1.015,4.146-2.047,8.275-3.154,12.487-.767,2.915-1.841,9.2-1.841,9.2s1.029,17.891-1.809,18.974c-.764-2.163-1.557-28.581-2.164-29.84a46.378,46.378,0,0,0-4.433-7.8c-3.62-4.675-8.968-6.814-12.152-12.123-1.386-2.307-4.205-8.06-4.205-8.06S596.9,226.5,588.147,229.632a126.02,126.02,0,0,1-29.538,6.529c-7.693.677-16.383-.088-22.579,5.174-10.6,9-7.589,20.757-8.04,32.946-.805.235-.534.252-1.338.042-1.271-.332-1.06-8.919-1.075-10.293-.058-5.58-1.639-15.4-9.949-12.194-2.659,1.024-6.139-11.365-6.236-12.41-.682-7.331-1.855-14.205-1.259-21.634,1.716-21.4,15.3-42.064,35.509-51.168,20.625-9.291,50.2-8.41,67.258,8.014,1.119,1.078,2.542,4.046,3.811,4.631,1.557.719,5.216-.435,7.15-.144,9.348,1.405,15.147,12.7,17.87,20.9C642.852,209.41,642.064,221.689,639.754,231.345Z" transform="translate(-507.969 -160.694)" fill="#2e3062"/>
              <path id="Trazado_1051" data-name="Trazado 1051" d="M519.079,225.441c-8.211-2.255-6.928,2.525-3.5,10.3,1.819,4.178,4.354,7.288,6.42,8.671A61.789,61.789,0,0,0,519.079,225.441Z" transform="translate(-505.549 -129.338)" fill="#da8751"/>
            </g>
            <path id="Trazado_1190" data-name="Trazado 1190" d="M970.648,245.014c-1.044,14.276-14.994,32.678-34.463,35.948a89.827,89.827,0,0,1-15.106,1.718c-30.153.77-47.964-19.873-52.475-29.182-2.993-6.192-5.415-34.92-5.415-34.92l1.5-4.391c2.152,10.824,7.172,26.713,15.119,30.686,4.768,2.383,7.883,1.717,11.363,2.229,9.285,1.365,3.711-11.242,24.55-9.424,7.487.653,18.841-2.912,26.99-2.87,6.989.036,10.869,3.741,15.6,2.823a15.215,15.215,0,0,0,1.852-.473c7.739-2.414,7.338-9.123,8.311-22.7.047-.77,2.135-2.2,2.182-3.018,0,0,.07.752.166,2.116A240.348,240.348,0,0,1,970.648,245.014Z" transform="translate(-831.777 -149.558) rotate(3)" fill="#55578d"/>
            <path id="Trazado_1052" data-name="Trazado 1052" d="M585.078,253.788l-44.01,1.584S567.181,291.583,585.078,253.788Z" transform="translate(-485.166 -114.216)" fill="#fff"/>
            <g id="Grupo_480" data-name="Grupo 480" transform="translate(52.019 101.011)">
              <path id="Trazado_1053" data-name="Trazado 1053" d="M567.506,235.487c.135,3.757,2.246,6.73,4.716,6.642s4.36-3.206,4.224-6.963-2.246-6.731-4.714-6.642S567.371,231.73,567.506,235.487Z" transform="translate(-524.582 -228.522)" fill="#2e3062"/>
              <path id="Trazado_1054" data-name="Trazado 1054" d="M538.674,236.676c.134,3.757,2.246,6.73,4.714,6.642s4.36-3.206,4.226-6.963-2.246-6.73-4.716-6.642S538.539,232.919,538.674,236.676Z" transform="translate(-538.667 -227.941)" fill="#2e3062"/>
            </g>
            <path id="Trazado_1055" data-name="Trazado 1055" d="M566.34,224.2s10.682-2.967,17.958.24l.2-1.995s-11.328-4.542-20.874-2.082Z" transform="translate(-473.482 -135.325)" fill="#2e3062"/>
            <path id="Trazado_1056" data-name="Trazado 1056" d="M551.324,226.273s-11.066-.878-17.614,3.654l-.573-1.922s10.28-6.614,20.132-6.017Z" transform="translate(-488.375 -134.192)" fill="#2e3062"/>
          </g>
        </g>
      </g>
      <g id="Grupo_28" data-name="Grupo 28" transform="translate(133.216 164.913)">
        <rect id="Rectángulo_1" data-name="Rectángulo 1" width="199.871" height="24.062" rx="2.313" transform="translate(199.871 142.359) rotate(180)" fill="#001030"/>
        <path id="Trazado_38" data-name="Trazado 38" d="M377.194,473.672l37.569-128.1c2.111-7.195-3.845-14.255-12.024-14.255H320.071c-5.578,0-10.474,3.377-11.982,8.268l-41.37,134.088Z" transform="translate(-177.365 -331.312)" fill="#2e3062"/>
        <path id="Trazado_39" data-name="Trazado 39" d="M312.249,339.587,271.226,472.571h-9.448L302.8,339.587c1.519-4.892,6.408-8.273,11.988-8.273h9.446C318.658,331.314,313.768,334.695,312.249,339.587Z" transform="translate(-181.533 -331.314)" fill="#001030"/>
        <path id="Trazado_40" data-name="Trazado 40" d="M300.885,380.01c-2.116,9.075,3.692,16.4,12.972,16.369s18.519-7.416,20.633-16.489-3.694-16.4-12.974-16.369S303,370.937,300.885,380.01Z" transform="translate(-148.916 -304.15)" fill="#524e82"/>
      </g>
    </g>
    <g id="Grupo_30" data-name="Grupo 30" transform="translate(68.192 689.893)">
      <path id="Rectángulo_2" data-name="Rectángulo 2" d="M7.218,0H709.44a7.215,7.215,0,0,1,7.215,7.215V20.66a7.215,7.215,0,0,1-7.215,7.215H7.215A7.215,7.215,0,0,1,0,20.66V7.218A7.218,7.218,0,0,1,7.218,0Z" transform="translate(0 0.001)" fill="#3700b1"/>
      <path id="Trazado_41" data-name="Trazado 41" d="M762.7,421.847v.636H46.046v-.636a13.3,13.3,0,0,1,13.3-13.3H749.4A13.3,13.3,0,0,1,762.7,421.847Z" transform="translate(-46.046 -408.545)" fill="#542bd8"/>
    </g>
    <g id="Grupo_69" data-name="Grupo 69" transform="translate(98.55 148.655)">
      <g id="Grupo_35" data-name="Grupo 35">
        <g id="Grupo_34" data-name="Grupo 34">
          <g id="Grupo_31" data-name="Grupo 31">
            <path id="Trazado_42" data-name="Trazado 42" d="M62.514,131.376V421.031a16.435,16.435,0,0,0,16.438,16.438H223.195a16.433,16.433,0,0,0,16.438-16.438V131.376a16.435,16.435,0,0,0-16.438-16.438H78.952a16.427,16.427,0,0,0-16.438,16.438Z" transform="translate(-62.514 -114.938)" fill="#2e3062"/>
          </g>
          <g id="Grupo_32" data-name="Grupo 32" transform="translate(8.199 8.198)">
            <path id="Trazado_43" data-name="Trazado 43" d="M227.68,126.624V418.27a7.219,7.219,0,0,1-7.243,7.239H74.21a7.236,7.236,0,0,1-7.248-7.239V126.624a6.9,6.9,0,0,1,.1-1.187,7.268,7.268,0,0,1,4.3-5.469,7.139,7.139,0,0,1,1.46-.452,7.6,7.6,0,0,1,1.39-.131H220.437A7.244,7.244,0,0,1,227.68,126.624Z" transform="translate(-66.962 -119.385)" fill="#fff9ff"/>
          </g>
          <path id="Trazado_44" data-name="Trazado 44" d="M227.679,126.628v19.424H66.963V126.628a7.042,7.042,0,0,1,.1-1.189,7.281,7.281,0,0,1,4.3-5.475,7.127,7.127,0,0,1,1.456-.446,7.324,7.324,0,0,1,1.388-.133h146.23A7.245,7.245,0,0,1,227.679,126.628Z" transform="translate(-58.762 -111.187)" fill="#dadaef"/>
          <g id="Grupo_33" data-name="Grupo 33" transform="translate(46.917 8.198)">
            <path id="Trazado_45" data-name="Trazado 45" d="M174.95,119.385l-5.962,5.962a7.058,7.058,0,0,0-2.066,4.992,7.062,7.062,0,0,1-7.06,7.058H103.055a7.065,7.065,0,0,1-7.062-7.058,7.051,7.051,0,0,0-2.066-4.992l-5.962-5.962Z" transform="translate(-87.965 -119.385)" fill="#2e3062"/>
            <circle id="Elipse_2" data-name="Elipse 2" cx="2.934" cy="2.934" r="2.934" transform="translate(63.902 5.939)" fill="#524e82"/>
            <rect id="Rectángulo_3" data-name="Rectángulo 3" width="45.152" height="5.867" rx="1.403" transform="translate(14.796 5.939)" fill="#524e82"/>
          </g>
        </g>
      </g>
      <g id="Grupo_48" data-name="Grupo 48" transform="translate(8.199 91.396)">
        <g id="Grupo_37" data-name="Grupo 37" transform="translate(86.058 107.128)">
          <path id="Trazado_46" data-name="Trazado 46" d="M188.306,222.632v41.3a3.732,3.732,0,0,1-.691.066H113.65l0,0a24.249,24.249,0,0,1,2.267-5.941,23.577,23.577,0,0,1,6.6-7.634c4-3,8.747-4.638,14.049-2.946.352.111.7.216,1.029.308a18.55,18.55,0,0,0,3.561.664c10.983.831,7.446-13.348,16.487-19.5,9.613-6.537,17.842-1.226,24.927-2.975a10.112,10.112,0,0,0,2.745-1.106,11.154,11.154,0,0,0,1.624-1.148Q187.6,223.145,188.306,222.632Z" transform="translate(-113.646 -222.632)" fill="#542bd8"/>
          <g id="Grupo_36" data-name="Grupo 36" transform="translate(32.353 14.209)">
            <path id="Trazado_47" data-name="Trazado 47" d="M173.5,230.34v2.97l-22.528,14.458v0l-5.888,3.778-9.262,5.946H131.2l9.262-5.946,10.022-6.436Z" transform="translate(-131.196 -230.34)" fill="#3700b1"/>
          </g>
        </g>
        <g id="Grupo_41" data-name="Grupo 41" transform="translate(14.723 17.196)">
          <path id="Trazado_48" data-name="Trazado 48" d="M118.716,287.418c2.516-2.542,4.959-5.152,7.241-7.908-5.528-14.873-14.41-42.133-15.848-67.087-2.28-39.556-20.141-44.011-28.436-34.053-26.947,32.343,35.8,109.187,35.8,109.187Z" transform="translate(-74.949 -173.846)" fill="#542bd8"/>
          <g id="Grupo_40" data-name="Grupo 40" transform="translate(16.202 25.182)">
            <g id="Grupo_39" data-name="Grupo 39">
              <g id="Grupo_38" data-name="Grupo 38">
                <path id="Trazado_49" data-name="Trazado 49" d="M114.048,273.056c.415-.441.826-.881,1.233-1.327-10.788-18.231-17.973-38.072-22.27-52.334a268.326,268.326,0,0,1-7.543-31.157.87.87,0,0,0-1.718.277,270.519,270.519,0,0,0,7.586,31.355C95.7,234.35,103.018,254.546,114.048,273.056Z" transform="translate(-83.738 -187.507)" fill="#3700b1"/>
              </g>
            </g>
          </g>
        </g>
        <g id="Grupo_45" data-name="Grupo 45">
          <path id="Trazado_50" data-name="Trazado 50" d="M132.663,314.124l-5.729,1.642-3.043.866-8.609,2.474a486.377,486.377,0,0,1-48.319-50.325V164.518c4.614,8.646,12.526,20.124,15.9,34.866q.719,3.188,1.547,6.369c10.9,42.544,32.787,82.52,42.9,99.631C130.615,310.975,132.663,314.124,132.663,314.124Z" transform="translate(-66.962 -164.518)" fill="#6b5efd"/>
          <g id="Grupo_44" data-name="Grupo 44" transform="translate(0 56.53)">
            <g id="Grupo_43" data-name="Grupo 43">
              <g id="Grupo_42" data-name="Grupo 42">
                <path id="Trazado_51" data-name="Trazado 51" d="M126.934,289.9l-3.043.866C99.5,263,81.108,230.576,69.62,207.345q-1.371-2.784-2.658-5.466v-6.7c1.62,3.493,3.364,7.152,5.239,10.941C83.755,229.464,102.315,262.144,126.934,289.9Z" transform="translate(-66.962 -195.184)" fill="#542bd8"/>
              </g>
            </g>
          </g>
        </g>
        <g id="Grupo_47" data-name="Grupo 47" transform="translate(76.572 12.075)">
          <path id="Trazado_52" data-name="Trazado 52" d="M192.646,172.845V267.1c-.437.212-.889.407-1.355.6-.553.221-1.1.442-1.644.658-.933.376-1.851.741-2.745,1.106-12.161,4.937-20.615,9.431-17.28,25.647.035.182.074.371.116.559.153.7.278,1.394.38,2.1v0a30.554,30.554,0,0,1,.332,3.779H110.972a33.78,33.78,0,0,1-.85-23.015c2.183-6.767,6.349-12.55,13.886-14.928,23.59-7.466,3.161-22.5,9.258-38.776,7.018-18.749,25.964-15.621,29.69-30.079C167.08,178.757,182.9,166.308,192.646,172.845Z" transform="translate(-108.5 -171.068)" fill="#6b5efd"/>
          <g id="Grupo_46" data-name="Grupo 46" transform="translate(29.262 32.098)">
            <path id="Trazado_53" data-name="Trazado 53" d="M128.2,286.857l38.861-95.935a1.775,1.775,0,1,0-3.29-1.331l-39.4,97.266Z" transform="translate(-124.374 -188.481)" fill="#542bd8"/>
          </g>
        </g>
      </g>
      <g id="Grupo_66" data-name="Grupo 66" transform="translate(8.199 67.06)">
        <g id="Grupo_65" data-name="Grupo 65">
          <g id="Grupo_54" data-name="Grupo 54" transform="translate(0 137.04)">
            <g id="Grupo_51" data-name="Grupo 51">
              <g id="Grupo_50" data-name="Grupo 50">
                <g id="Grupo_49" data-name="Grupo 49">
                  <path id="Trazado_54" data-name="Trazado 54" d="M227.68,281.842v46.8a7.219,7.219,0,0,1-7.243,7.239H74.21a7.236,7.236,0,0,1-7.248-7.239v-46.8c0-23.135,9.847-31.113,9.847-31.113a138.512,138.512,0,0,1,29.725-15.348c.183-.092,28.407-9.6,28.595-9.724l29.511,2.081c3.549,2.078,23.183,7.969,34.892,13.695,1.773.87,2.811,1.375,3.836,1.938,9.781,5.392,13.9,9.853,16.9,14.222C221.69,259.707,226.6,270.22,227.68,281.842Z" transform="translate(-66.962 -225.657)" fill="#ff495a"/>
                </g>
              </g>
            </g>
            <g id="Grupo_52" data-name="Grupo 52" transform="translate(20.196 74.948)">
              <path id="Trazado_55" data-name="Trazado 55" d="M85.764,267.966l-4.933,33.622H77.918l4.994-34.04a1.441,1.441,0,1,1,2.852.418Z" transform="translate(-77.918 -266.314)" fill="#e21c47"/>
            </g>
            <g id="Grupo_53" data-name="Grupo 53" transform="translate(138.12 82.744)">
              <path id="Trazado_56" data-name="Trazado 56" d="M148.111,298.02H145.2l-3.3-25.85a1.444,1.444,0,0,1,2.865-.365Z" transform="translate(-141.889 -270.544)" fill="#e21c47"/>
            </g>
            <path id="Trazado_57" data-name="Trazado 57" d="M121.972,255.553h31s.839,27.389-15.337,27.389C120.93,282.942,121.972,255.553,121.972,255.553Z" transform="translate(-20.577 -200.442)" fill="#e21c47"/>
          </g>
          <g id="Grupo_64" data-name="Grupo 64" transform="translate(33.112)">
            <path id="Trazado_58" data-name="Trazado 58" d="M172.211,208.408s16.5-5.759,14.854-18.593c-1.4-10.922-13.521-3.842-12.456-12.379s3.432-16.3-7-18.43c-9.125-1.867-9.278,4.752-21.26-4.852-14.156-11.344-25.03,14.926-37.663,15.717-18.635,1.163-20.987,12.32-22.82,21.243s7.18,19.4,7.18,19.4Z" transform="translate(-84.335 -151.316)" fill="#2e3062"/>
            <g id="Grupo_57" data-name="Grupo 57" transform="translate(82.447 71.221)">
              <path id="Trazado_59" data-name="Trazado 59" d="M132.314,194.574s6.924-9.234,12.074-1.6-2.131,30.186-14.738,24.681Z" transform="translate(-129.65 -189.952)" fill="#fa8465"/>
              <g id="Grupo_55" data-name="Grupo 55" transform="translate(1.686 8.083)">
                <path id="Trazado_60" data-name="Trazado 60" d="M131.631,206.988a1.064,1.064,0,0,0,1.025-.778c1.954-6.961,9.167-9.785,9.241-9.811a1.066,1.066,0,0,0-.756-1.995c-.337.129-8.286,3.213-10.537,11.23a1.068,1.068,0,0,0,.739,1.314A1.112,1.112,0,0,0,131.631,206.988Z" transform="translate(-130.565 -194.337)" fill="#fa664d"/>
              </g>
              <g id="Grupo_56" data-name="Grupo 56" transform="translate(5.429 12.269)">
                <path id="Trazado_61" data-name="Trazado 61" d="M137.2,201.567a1.049,1.049,0,0,0,.575-.17,1.066,1.066,0,0,0,.319-1.473,9.718,9.718,0,0,0-4-3.224,1.065,1.065,0,0,0-.87,1.945,7.71,7.71,0,0,1,3.077,2.433A1.07,1.07,0,0,0,137.2,201.567Z" transform="translate(-132.595 -196.608)" fill="#fa664d"/>
              </g>
            </g>
            <path id="Trazado_62" data-name="Trazado 62" d="M102.49,215.357v22.425s6.688,11.422,15.734,12.2,17.064-9.833,17.064-9.833V216.933Z" transform="translate(-70.11 -97.304)" fill="#f7ad89"/>
            <path id="Trazado_63" data-name="Trazado 63" d="M102.49,215.357v9.951c6.069,6.734,16.847,8.417,32.8,6.061V216.933Z" transform="translate(-70.11 -97.304)" fill="#fa8465"/>
            <path id="Trazado_64" data-name="Trazado 64" d="M170.073,205.41c-.076,2.262-.2,4.623-.385,7.051-.061.89-.136,1.8-.227,2.7-.339,3.687-.837,7.488-1.523,11.274a.259.259,0,0,1-.007.053c-.007.061-.024.151-.046.286l-.151.778c-.105.527-.21,1.064-.332,1.613-.166.83-.354,1.69-.557,2.564-3.455,14.6-10.249,28.062-23.282,32.71-30.951,11.04-43.267-13.094-48.583-29.767-.371-1.132-.695-2.24-1-3.3-.507-1.8-.966-3.8-1.373-5.928l-.007-.015a.394.394,0,0,1-.015-.083v-.022c-.89-4.655-1.539-9.925-2.015-15.168-.422-4.562-.7-9.1-.9-13.16a23.285,23.285,0,0,1,.793-7.256c.151-.557.324-1.115.52-1.659.107-.278.2-.549.31-.822q.329-.8.7-1.583c.256-.52.527-1.032.813-1.53s.6-.988.929-1.456v-.007a23.1,23.1,0,0,1,1.583-2.052,23.649,23.649,0,0,1,4.555-4.057c.483-.324.988-.642,1.5-.935a23.9,23.9,0,0,1,3.243-1.539c13.553-5.211,34.134-9.329,53.638,1.727A23.38,23.38,0,0,1,167.9,186.2c.219.452.415.913.6,1.379.112.295.225.588.324.89.21.6.4,1.207.557,1.825a17.121,17.121,0,0,1,.385,1.749,23.138,23.138,0,0,1,.369,3.7C170.193,198.616,170.193,201.88,170.073,205.41Z" transform="translate(-80.94 -136.541)" fill="#f7ad89"/>
            <g id="Grupo_58" data-name="Grupo 58" transform="translate(43.857 118.334)">
              <path id="Trazado_65" data-name="Trazado 65" d="M114.208,219.135a10.8,10.8,0,0,1-5.01-1.648,1.079,1.079,0,0,1,1.193-1.8h0a8.707,8.707,0,0,0,3.89,1.29,9.171,9.171,0,0,0,4.181-1.027,1.079,1.079,0,0,1,1.054,1.884A11.3,11.3,0,0,1,114.208,219.135Z" transform="translate(-108.716 -215.509)" fill="#fa8465"/>
            </g>
            <path id="Trazado_66" data-name="Trazado 66" d="M102.125,194.9c0,2.393,1.233,4.334,2.756,4.334s2.756-1.941,2.756-4.334-1.235-4.336-2.756-4.336S102.125,192.5,102.125,194.9Z" transform="translate(-70.417 -118.217)" fill="#2e3062"/>
            <path id="Trazado_67" data-name="Trazado 67" d="M120.282,194.9c0,2.393,1.233,4.334,2.756,4.334s2.756-1.941,2.756-4.334-1.235-4.336-2.756-4.336S120.282,192.5,120.282,194.9Z" transform="translate(-55.104 -118.217)" fill="#2e3062"/>
            <path id="Trazado_68" data-name="Trazado 68" d="M97.667,186s11.387-4.5,20.154-.711l-.876,4.876s-12.869-1.088-19.352,1.539A8.457,8.457,0,0,1,97.667,186Z" transform="translate(-74.627 -123.94)" fill="#2e3062"/>
            <path id="Trazado_69" data-name="Trazado 69" d="M136.083,186.023s-11.472-4.533-20.3-.717l.883,4.913s12.965-1.1,19.5,1.55A8.524,8.524,0,0,0,136.083,186.023Z" transform="translate(-58.901 -123.938)" fill="#2e3062"/>
            <g id="Grupo_59" data-name="Grupo 59" transform="translate(44.733 75.211)">
              <path id="Trazado_70" data-name="Trazado 70" d="M113.709,212.958a11.288,11.288,0,0,1-3.855-.813,1.065,1.065,0,1,1,.8-1.972c.962.391,3.274,1,4.275.4a1.162,1.162,0,0,0,.524-.992c.385-3.72-.634-16.191-.645-16.316a1.065,1.065,0,0,1,2.124-.175c.042.522,1.045,12.8.64,16.711a3.247,3.247,0,0,1-1.548,2.6A4.487,4.487,0,0,1,113.709,212.958Z" transform="translate(-109.191 -192.116)" fill="#fa8465"/>
            </g>
            <path id="Trazado_71" data-name="Trazado 71" d="M130.367,207.824c-.809,4.07-3.5,11.556-12.554,11.556-9.079,0-11.625-6.843-12.5-11.556Z" transform="translate(-67.727 -103.657)" fill="#fff9ff"/>
            <path id="Trazado_72" data-name="Trazado 72" d="M170.073,205.41c-.076,2.262-.2,4.623-.385,7.051-.061.89-.136,1.8-.227,2.7-.339,3.687-.837,7.488-1.523,11.274l-4.548-.92s3.3-13.846,2.269-18.991-5.294-8.176-3.867-13.138-3.825-10.3-7.693-11.184-13.3,4.638-21.669-.505-21.07-3.938-26.75.505-1.53,13.07-5.611,14.18-1.2,10.574-.671,15.37c.52,4.638,1.547,10.837,1.606,11.221l-5.344.125-2.12-9.879c-1.825-.8-2.007-2.358-2.966-3.06-.422-4.562-.7-9.1-.9-13.16a23.285,23.285,0,0,1,.793-7.256c.151-.557.324-1.115.52-1.659.107-.278.2-.549.31-.822q.329-.8.7-1.583c.256-.52.527-1.032.813-1.53s.6-.988.929-1.456v-.007a23.1,23.1,0,0,1,1.583-2.052,23.649,23.649,0,0,1,4.555-4.057c.49-.324.988-.642,1.5-.935a23.9,23.9,0,0,1,3.243-1.539c13.553-5.211,34.134-9.329,53.638,1.727A23.38,23.38,0,0,1,167.9,186.2c.219.459.415.92.6,1.379.112.295.225.588.324.89.217.6.4,1.207.557,1.825a17.121,17.121,0,0,1,.385,1.749,22.536,22.536,0,0,1,.378,3.711C170.2,198.623,170.193,201.888,170.073,205.41Z" transform="translate(-80.94 -136.541)" fill="#2e3062"/>
            <g id="Grupo_63" data-name="Grupo 63" transform="translate(0 71.221)">
              <path id="Trazado_73" data-name="Trazado 73" d="M99.055,197.93a9.251,9.251,0,0,0-4.492-7.02c-2.374-1.353-5.394-1.753-7.969,2.065-5.149,7.635,2.131,30.186,14.738,24.681Z" transform="translate(-84.925 -189.952)" fill="#f7ad89"/>
              <g id="Grupo_60" data-name="Grupo 60" transform="translate(2.704 8.083)">
                <path id="Trazado_74" data-name="Trazado 74" d="M97.342,206.988a1.064,1.064,0,0,1-1.025-.778c-1.954-6.961-9.167-9.785-9.239-9.811a1.066,1.066,0,0,1,.754-1.995c.337.129,8.286,3.213,10.537,11.23a1.066,1.066,0,0,1-.739,1.314A1.1,1.1,0,0,1,97.342,206.988Z" transform="translate(-86.391 -194.337)" fill="#fa8465"/>
              </g>
              <g id="Grupo_62" data-name="Grupo 62" transform="translate(5.31 12.269)">
                <g id="Grupo_61" data-name="Grupo 61">
                  <path id="Trazado_75" data-name="Trazado 75" d="M88.869,201.567a1.049,1.049,0,0,1-.575-.17,1.066,1.066,0,0,1-.319-1.473,9.718,9.718,0,0,1,4-3.224,1.065,1.065,0,0,1,.87,1.945,7.71,7.71,0,0,0-3.077,2.433A1.07,1.07,0,0,1,88.869,201.567Z" transform="translate(-87.805 -196.608)" fill="#fa8465"/>
                </g>
              </g>
            </g>
          </g>
        </g>
      </g>
      <rect id="Rectángulo_4" data-name="Rectángulo 4" width="37.914" height="160.715" rx="3.387" transform="translate(8.202 314.983) rotate(-90)" opacity="0.4"/>
      <g id="Grupo_68" data-name="Grupo 68" transform="translate(38.109 286.548)">
        <circle id="Elipse_3" data-name="Elipse 3" cx="11.608" cy="11.608" r="11.608" fill="#fff" opacity="0.8"/>
        <circle id="Elipse_4" data-name="Elipse 4" cx="11.608" cy="11.608" r="11.608" transform="translate(39.295)" fill="#f43853"/>
        <circle id="Elipse_5" data-name="Elipse 5" cx="11.608" cy="11.608" r="11.608" transform="translate(77.685)" fill="#fff" opacity="0.8"/>
        <g id="Grupo_67" data-name="Grupo 67" transform="translate(5.312 7.218)">
          <path id="Trazado_76" data-name="Trazado 76" d="M89.458,274.3a1.293,1.293,0,1,1-1.294,1.294A1.293,1.293,0,0,1,89.458,274.3Z" transform="translate(-84.301 -274.298)" fill="#454545"/>
          <path id="Trazado_77" data-name="Trazado 77" d="M98.661,280.172H86.069l2.921-3.208,2,2.022,3.725-3.462Z" transform="translate(-86.069 -273.264)" fill="#454545"/>
        </g>
        <path id="Trazado_78" data-name="Trazado 78" d="M113.758,277.234s-2.066-.114-2.325.4c-.385.769.048,2.468-2.417,2.325s-1.646-2.218-1.366-2.815.769-1.69,6.107-1.69,5.825,1.091,6.105,1.69,1.1,2.671-1.366,2.815-2.031-1.556-2.415-2.325C115.825,277.12,113.758,277.234,113.758,277.234Z" transform="translate(-62.854 -266.104)" fill="#fff"/>
        <rect id="Rectángulo_5" data-name="Rectángulo 5" width="11.384" height="7.653" transform="translate(83.601 7.388)" fill="#454545"/>
        <path id="Trazado_79" data-name="Trazado 79" d="M134.723,281.547v-3.41l-3.021.511Z" transform="translate(-42.27 -263.842)" fill="#454545"/>
        <rect id="Rectángulo_6" data-name="Rectángulo 6" width="8.537" height="1.296" transform="translate(85.024 9.303)" fill="#fff"/>
        <rect id="Rectángulo_7" data-name="Rectángulo 7" width="4.53" height="1.296" transform="translate(85.024 11.985)" fill="#fff"/>
      </g>
    </g>
    <g id="Grupo_110" data-name="Grupo 110" transform="translate(640.582 308.565)">
      <g id="Grupo_74" data-name="Grupo 74" transform="translate(0 0)">
        <g id="Grupo_73" data-name="Grupo 73">
          <g id="Grupo_70" data-name="Grupo 70">
            <path id="Trazado_80" data-name="Trazado 80" d="M356.552,218.125V507.78a16.436,16.436,0,0,0,16.438,16.438H517.233a16.433,16.433,0,0,0,16.438-16.438V218.125a16.437,16.437,0,0,0-16.438-16.44H372.99a16.432,16.432,0,0,0-16.438,16.44Z" transform="translate(-356.552 -201.685)" fill="#2e3062"/>
          </g>
          <g id="Grupo_71" data-name="Grupo 71" transform="translate(8.201 8.199)">
            <path id="Trazado_81" data-name="Trazado 81" d="M521.715,213.37V505.016a7.219,7.219,0,0,1-7.239,7.239H368.246A7.233,7.233,0,0,1,361,505.016V213.37a7.1,7.1,0,0,1,.1-1.187,7.266,7.266,0,0,1,5.753-5.921,7.839,7.839,0,0,1,1.39-.129h146.23A7.241,7.241,0,0,1,521.715,213.37Z" transform="translate(-361.001 -206.133)" fill="#fff9ff"/>
          </g>
          <path id="Trazado_82" data-name="Trazado 82" d="M521.717,213.374V232.8H361V213.374a7.082,7.082,0,0,1,.1-1.189,7.281,7.281,0,0,1,4.3-5.473,7.1,7.1,0,0,1,1.456-.448,7.468,7.468,0,0,1,1.388-.131h146.23A7.245,7.245,0,0,1,521.717,213.374Z" transform="translate(-352.8 -197.934)" fill="#dadaef"/>
          <g id="Grupo_72" data-name="Grupo 72" transform="translate(46.917 8.199)">
            <path id="Trazado_83" data-name="Trazado 83" d="M468.988,206.133l-5.962,5.962a7.058,7.058,0,0,0-2.066,4.992,7.062,7.062,0,0,1-7.06,7.058H397.091a7.062,7.062,0,0,1-7.06-7.058,7.059,7.059,0,0,0-2.066-4.992L382,206.133Z" transform="translate(-382.003 -206.133)" fill="#2e3062"/>
            <circle id="Elipse_6" data-name="Elipse 6" cx="2.934" cy="2.934" r="2.934" transform="translate(63.902 5.938)" fill="#524e82"/>
            <rect id="Rectángulo_8" data-name="Rectángulo 8" width="45.152" height="5.867" rx="1.403" transform="translate(14.796 5.938)" fill="#524e82"/>
          </g>
        </g>
      </g>
      <g id="Grupo_85" data-name="Grupo 85" transform="translate(8.201 74.299)">
        <g id="Grupo_76" data-name="Grupo 76" transform="translate(98.396 97.251)">
          <path id="Trazado_84" data-name="Trazado 84" d="M476.7,294.746v53.2c-.044,0-.087-.006-.129-.006-11.2-.479-19.415-1.46-22.261,11.82a22.52,22.52,0,0,1-1.268,4.033l-18.755-8.513-2.49-1.13-17.415-7.9a24.1,24.1,0,0,1,6.24-15.212c.129-.14.26-.278.389-.418a15.7,15.7,0,0,1,10.074-5.248,14.17,14.17,0,0,1,2.961.057c.28.033.549.063.813.087,16.453,1.528,8.023-13.916,16.65-22.552C460.22,294.217,469.909,298.717,476.7,294.746Z" transform="translate(-414.378 -294.746)" fill="#542bd8"/>
          <g id="Grupo_75" data-name="Grupo 75" transform="translate(17.415 16.737)">
            <path id="Trazado_85" data-name="Trazado 85" d="M468.728,303.825v3.49l-15.117,14.362-1.341,1.279-25.956,24.663-2.49-1.129,24.768-23.533,4.653-4.422Z" transform="translate(-423.825 -303.825)" fill="#3700b1"/>
          </g>
        </g>
        <g id="Grupo_80" data-name="Grupo 80" transform="translate(13.377 58.895)">
          <path id="Trazado_86" data-name="Trazado 86" d="M385.408,391.14c3.18-1.635,6.312-3.357,9.337-5.267-.632-15.853-.6-44.524,5.783-68.691,10.124-38.306-5.469-48.091-16.447-41.2-35.663,22.37.105,114.909.105,114.909Z" transform="translate(-368.258 -273.939)" fill="#542bd8"/>
          <g id="Grupo_79" data-name="Grupo 79" transform="translate(15.498 24.847)">
            <g id="Grupo_78" data-name="Grupo 78">
              <g id="Grupo_77" data-name="Grupo 77">
                <path id="Trazado_87" data-name="Trazado 87" d="M381.808,377.924q.794-.434,1.583-.878c-4.59-20.683-5.254-41.773-4.907-56.666A268.8,268.8,0,0,1,381,288.423a.87.87,0,0,0-1.718-.271,270.583,270.583,0,0,0-2.533,32.16C376.39,335.432,377.076,356.9,381.808,377.924Z" transform="translate(-376.665 -287.418)" fill="#3700b1"/>
              </g>
            </g>
          </g>
        </g>
        <g id="Grupo_82" data-name="Grupo 82" transform="translate(0 43.904)">
          <path id="Trazado_88" data-name="Trazado 88" d="M402.334,429.428l-5.244.356-2.778.183-7.879.529A423.164,423.164,0,0,1,361,390.777V265.807c7.326,3.5,14.213,13.188,17.582,31.349a142.116,142.116,0,0,1,2.153,24.191c.332,27.57,6.129,55.612,11.628,76.218C397.475,416.7,402.334,429.428,402.334,429.428Z" transform="translate(-361.001 -265.807)" fill="#6b5efd"/>
          <g id="Grupo_81" data-name="Grupo 81" transform="translate(0 61.841)">
            <path id="Trazado_89" data-name="Trazado 89" d="M397.089,401.49l-2.778.182c-15.851-28.455-25.677-59.8-31.257-81.938q-1.1-4.391-2.053-8.507V299.354c1.2,5.908,2.688,12.594,4.509,19.8C371.119,341.408,381.041,373.006,397.089,401.49Z" transform="translate(-361.001 -299.354)" fill="#542bd8"/>
          </g>
        </g>
        <g id="Grupo_84" data-name="Grupo 84" transform="translate(83.709)">
          <path id="Trazado_90" data-name="Trazado 90" d="M483.416,241.99V340.9c-11.536,4.787-19.269,9.6-15.767,25.629.107.485.2.97.284,1.46a29.94,29.94,0,0,1,.365,3.145c.029.428.054.855.063,1.277H408.885a33.745,33.745,0,0,1-.852-23.013c2.183-6.773,6.351-12.556,13.886-14.933,23.592-7.46,3.163-22.5,9.258-38.776,7.018-18.749,25.966-15.621,29.69-30.079C464.079,253.146,474.4,242.84,483.416,241.99Z" transform="translate(-406.411 -241.99)" fill="#6b5efd"/>
          <g id="Grupo_83" data-name="Grupo 83" transform="translate(29.265 32.043)">
            <path id="Trazado_91" data-name="Trazado 91" d="M426.117,357.749l38.861-95.935a1.776,1.776,0,1,0-3.292-1.331l-39.4,97.266Z" transform="translate(-422.286 -259.372)" fill="#542bd8"/>
          </g>
        </g>
      </g>
      <g id="Grupo_107" data-name="Grupo 107" transform="translate(8.201 74.435)">
        <g id="Grupo_106" data-name="Grupo 106">
          <path id="Trazado_92" data-name="Trazado 92" d="M509.276,389.835v46.189a36.743,36.743,0,0,1-19.1,5.315c-31.64-.146-54.511-53.8-83.936-42.435s-37.558-28.634-24.355-39.007,1.456-43.359,1.456-43.359S369.575,294.806,382,271.986s25.87-34.428,55.088-28.3,42.544,15.59,45.173,36.857S487.382,320.14,495.1,333c9.084,15.144-13.744,43.987,11.669,56.381C507.128,389.561,508.931,389.646,509.276,389.835Z" transform="translate(-348.56 -242.064)" fill="#2e3062"/>
          <path id="Trazado_93" data-name="Trazado 93" d="M399.136,312.863,392.341,409.3s-2.955,4.951-7.809,12.944H368.246A7.235,7.235,0,0,1,361,415V376.348C384.9,335.3,399.136,312.863,399.136,312.863Z" transform="translate(-361.001 -182.352)" fill="#f68601"/>
          <g id="Grupo_86" data-name="Grupo 86" transform="translate(12.251 127.54)">
            <path id="Trazado_94" data-name="Trazado 94" d="M507.309,423.6H369.852c-2.9-6.059-3.6-15.048,1.993-30.5,13.1-36.269,21.686-78.872,21.686-78.872l8.129-.42,8.712-.444,41.41-2.107,24.409,9.436,23.819,9.2S504.351,364.87,507.309,423.6Z" transform="translate(-367.647 -311.251)" fill="#fda803"/>
            <path id="Trazado_95" data-name="Trazado 95" d="M394,313.209c-2.988,13.121-9.418,39.659,10.262,40.172,23.658.616,47.331-22.689,52.605-32.693l-24.409-9.435Z" transform="translate(-348.319 -311.249)" fill="#f7ad89"/>
          </g>
          <g id="Grupo_87" data-name="Grupo 87" transform="translate(104.143 146.18)">
            <path id="Trazado_96" data-name="Trazado 96" d="M464.822,404.886q-1.421,5.306-2.953,10.185H417.5c9.89-19.935,23.332-49.792,40.47-93.708C457.966,321.363,480.34,347.163,464.822,404.886Z" transform="translate(-417.496 -321.363)" fill="#f68601"/>
          </g>
          <g id="Grupo_105" data-name="Grupo 105" transform="translate(30.757 21.738)">
            <g id="Grupo_94" data-name="Grupo 94">
              <g id="Grupo_91" data-name="Grupo 91" transform="translate(0 44.85)">
                <path id="Trazado_97" data-name="Trazado 97" d="M390.867,281.854s-7.663-8.008-12.063-.359,4.808,28.112,16.76,21.761Z" transform="translate(-377.686 -278.186)" fill="#fa8465"/>
                <path id="Trazado_98" data-name="Trazado 98" d="M386.371,292.222a2.284,2.284,0,1,1-2.49-2.057A2.285,2.285,0,0,1,386.371,292.222Z" transform="translate(-374.205 -268.092)" fill="#fff9ff"/>
                <g id="Grupo_88" data-name="Grupo 88" transform="translate(2.682 7.851)">
                  <path id="Trazado_99" data-name="Trazado 99" d="M390.994,293.387a1.055,1.055,0,0,1-1.082-.634c-2.553-6.347-9.925-8.314-10-8.332a.992.992,0,0,1-.732-1.231,1.074,1.074,0,0,1,1.3-.71c.343.087,8.467,2.232,11.407,9.54a1,1,0,0,1-.612,1.3A1.087,1.087,0,0,1,390.994,293.387Z" transform="translate(-379.141 -282.445)" fill="#fa664d"/>
                </g>
                <g id="Grupo_90" data-name="Grupo 90" transform="translate(5.884 11.199)">
                  <g id="Grupo_89" data-name="Grupo 89">
                    <path id="Trazado_100" data-name="Trazado 100" d="M382.027,289.251a1.08,1.08,0,0,1-.583-.105.974.974,0,0,1-.446-1.351,9.512,9.512,0,0,1,3.659-3.4,1.078,1.078,0,0,1,1.436.371.984.984,0,0,1-.406,1.371,7.538,7.538,0,0,0-2.819,2.572A1.073,1.073,0,0,1,382.027,289.251Z" transform="translate(-380.878 -284.261)" fill="#fa664d"/>
                  </g>
                </g>
              </g>
              <path id="Trazado_101" data-name="Trazado 101" d="M431.252,301.451,433.73,327.4s-11.173,10.458-20.5,12.165S399.6,330.5,399.6,330.5l-2.306-24.151Z" transform="translate(-361.151 -213.715)" fill="#f7ad89"/>
              <path id="Trazado_102" data-name="Trazado 102" d="M431.384,302.83l.988,10.351c-5.644,7.61-16.616,11.162-33.443,10.3l-1.506-15.75Z" transform="translate(-361.039 -212.552)" fill="#fa8465"/>
              <path id="Trazado_103" data-name="Trazado 103" d="M384.678,310.918c.538,2.478,1.135,4.994,1.829,7.49,4.592,16.587,17.005,33.8,30.776,35.569,29.731,3.827,39.633-20.185,42.677-37.491.336-1.923-.835-3.976-.638-6.233.463-5.348,2.015-11.519,1.936-17.452-.057-4.113-.206-8.159-.382-11.813a23.947,23.947,0,0,0-16.981-21.949c-13.886-4.044-34.6-6.317-52.768,6.806A24.159,24.159,0,0,0,381.34,287.3,181.243,181.243,0,0,0,384.678,310.918Z" transform="translate(-374.665 -252.143)" fill="#f7ad89"/>
              <g id="Grupo_92" data-name="Grupo 92" transform="translate(39.89 49.712)">
                <path id="Trazado_104" data-name="Trazado 104" d="M406.208,299.553a1.135,1.135,0,0,0-.028-2.262l-3.945-.282,3.989-14.755a1.135,1.135,0,0,0-2.192-.592l-4.708,17.415,6.693.477A1.3,1.3,0,0,0,406.208,299.553Z" transform="translate(-399.325 -280.824)" fill="#fa8465"/>
              </g>
              <path id="Trazado_105" data-name="Trazado 105" d="M393.871,283.136c-10.88,6.275-5.976,19.444-9.173,26.591-.206.465-.459.568-.752.369a178.43,178.43,0,0,1-3.438-24.077,24.485,24.485,0,0,1,10.384-21.905c19.186-13.44,41.01-11.191,55.632-7.114a24.377,24.377,0,0,1,17.822,22.327c.173,3.724.317,7.849.363,12.041-1.783,1.3-6.343,2.256-6.247,5.309.254,8.076.389,13.606-1.335,13.287-2.9-.544-5.587-10.1-2.955-16.69,0,0-3-3.984-13.993-7.056a205.683,205.683,0,0,1-27.922-10.449s-5.458-2.614-7.763-5.816A24.226,24.226,0,0,1,393.871,283.136Z" transform="translate(-375.364 -253.856)" fill="#2e3062"/>
              <path id="Trazado_106" data-name="Trazado 106" d="M396.481,283.712c.238,2.49-.852,4.633-2.435,4.784s-3.06-1.746-3.3-4.236.854-4.631,2.437-4.782S396.245,281.224,396.481,283.712Z" transform="translate(-366.697 -232.254)" fill="#2e3062"/>
              <path id="Trazado_107" data-name="Trazado 107" d="M414.793,282.012c.238,2.49-.852,4.631-2.435,4.782s-3.06-1.744-3.3-4.234.853-4.633,2.437-4.784S414.555,279.522,414.793,282.012Z" transform="translate(-351.252 -233.69)" fill="#2e3062"/>
              <path id="Trazado_108" data-name="Trazado 108" d="M390.536,276.02a55.4,55.4,0,0,1,11.833-2.155c1.311-.077,2.452.806,2.371,1.864l0,.026a1.843,1.843,0,0,1-1.952,1.508c-3.408.068-12.253.968-16.255,2.588a2.147,2.147,0,0,1,.7-1.867A6.963,6.963,0,0,1,390.536,276.02Z" transform="translate(-370.264 -236.985)" fill="#2e3062"/>
              <path id="Trazado_109" data-name="Trazado 109" d="M420.154,273.1a55.437,55.437,0,0,0-12.028-.041c-1.3.153-2.271,1.224-2.006,2.251l.007.024a1.843,1.843,0,0,0,2.186,1.143c3.368-.533,12.231-1.2,16.456-.31a2.144,2.144,0,0,0-1.014-1.716A6.947,6.947,0,0,0,420.154,273.1Z" transform="translate(-353.741 -237.923)" fill="#2e3062"/>
              <path id="Trazado_110" data-name="Trazado 110" d="M396.61,296.418c1.215,3.882,4.7,10.907,14.078,10.012,9.4-.9,11.405-7.812,11.873-12.489Z" transform="translate(-361.725 -220.05)" fill="#fff9ff"/>
              <g id="Grupo_93" data-name="Grupo 93" transform="translate(43.515 89.169)">
                <path id="Trazado_111" data-name="Trazado 111" d="M407.256,306.263a11.11,11.11,0,0,1-5.344-1.023,1.113,1.113,0,0,1,.983-2h0a8.947,8.947,0,0,0,4.149.806,9.467,9.467,0,0,0,4.142-1.6,1.113,1.113,0,0,1,1.327,1.788A11.613,11.613,0,0,1,407.256,306.263Z" transform="translate(-401.291 -302.228)" fill="#fa8465"/>
              </g>
            </g>
            <g id="Grupo_98" data-name="Grupo 98" transform="translate(83.273 35.717)">
              <path id="Trazado_112" data-name="Trazado 112" d="M422.859,279.271s7.027-10.406,12.382-3.9.684,27.681-11.278,23.763Z" transform="translate(-422.859 -273.232)" fill="#f7ad89"/>
              <path id="Trazado_113" data-name="Trazado 113" d="M429.483,288.106a2.284,2.284,0,1,1-2.492-2.057A2.285,2.285,0,0,1,429.483,288.106Z" transform="translate(-421.116 -262.431)" fill="#fff9ff"/>
              <g id="Grupo_95" data-name="Grupo 95" transform="translate(1.936 6.928)">
                <path id="Trazado_114" data-name="Trazado 114" d="M424.978,289.379a.978.978,0,0,0,.866-.8c1.174-6.511,7.5-9.711,7.564-9.741a.976.976,0,0,0-.861-1.751c-.3.146-7.268,3.646-8.622,11.145a.975.975,0,0,0,.787,1.134A1.074,1.074,0,0,0,424.978,289.379Z" transform="translate(-423.909 -276.99)" fill="#fa8465"/>
              </g>
              <g id="Grupo_97" data-name="Grupo 97" transform="translate(4.795 11.274)">
                <g id="Grupo_96" data-name="Grupo 96">
                  <path id="Trazado_115" data-name="Trazado 115" d="M430,283.562a.956.956,0,0,0,.511-.2.974.974,0,0,0,.162-1.368,8.9,8.9,0,0,0-3.923-2.59.975.975,0,0,0-.623,1.847,7.029,7.029,0,0,1,3.014,1.948A.971.971,0,0,0,430,283.562Z" transform="translate(-425.46 -279.348)" fill="#fa8465"/>
                </g>
              </g>
            </g>
            <g id="Grupo_104" data-name="Grupo 104" transform="translate(10.642 36.72)">
              <g id="Grupo_99" data-name="Grupo 99" transform="translate(37.355 2.508)">
                <path id="Trazado_116" data-name="Trazado 116" d="M403.753,282.331l.21,1.777a13.385,13.385,0,0,0,14.83,11.75l.433-.052a12.07,12.07,0,0,0,7.822-4.625,13.16,13.16,0,0,0,2.732-9.789l-.249-2.1a4.79,4.79,0,0,0-1.759-3.141,4.689,4.689,0,0,0-3.464-.981l-16.434,1.939a4.69,4.69,0,0,0-3.9,3.16,4.55,4.55,0,0,0-.229,1.939A.69.69,0,0,0,403.753,282.331Zm1.939-.229a2.753,2.753,0,0,1,2.411-3.056l16.434-1.937a2.75,2.75,0,0,1,3.056,2.411l.247,2.1a11.183,11.183,0,0,1-2.314,8.332,10.185,10.185,0,0,1-6.568,3.921l-.395.046A11.43,11.43,0,0,1,405.9,283.879Z" transform="translate(-403.723 -275.136)" fill="#fff9ff"/>
              </g>
              <g id="Grupo_100" data-name="Grupo 100" transform="translate(2.506 6.616)">
                <path id="Trazado_117" data-name="Trazado 117" d="M384.851,284.56l.21,1.777a13.385,13.385,0,0,0,14.83,11.75l.441-.053a12.044,12.044,0,0,0,7.814-4.623,13.158,13.158,0,0,0,2.738-9.79l-.247-2.1a.492.492,0,0,0-.017-.09,4.512,4.512,0,0,0-.607-1.744,4.693,4.693,0,0,0-4.6-2.288l-16.44,1.937a4.716,4.716,0,0,0-3.394,2.111,4.577,4.577,0,0,0-.695,1.838A4.275,4.275,0,0,0,384.851,284.56Zm1.939-.229a2.753,2.753,0,0,1,2.411-3.056l16.441-1.939a2.754,2.754,0,0,1,3.055,2.413l.249,2.1a11.208,11.208,0,0,1-2.313,8.332,10.183,10.183,0,0,1-6.57,3.919l-.4.048A11.441,11.441,0,0,1,387,286.108Z" transform="translate(-384.818 -277.365)" fill="#fff9ff"/>
              </g>
              <g id="Grupo_101" data-name="Grupo 101" transform="translate(60.707)">
                <path id="Trazado_118" data-name="Trazado 118" d="M417.088,277.3a23.548,23.548,0,0,1,11.77-3.521l-.5,2a22.131,22.131,0,0,0-10.012,3.049c-.476.291-.728.485-.741.492l-1.209-1.528A8.3,8.3,0,0,1,417.088,277.3Z" transform="translate(-416.391 -273.776)" fill="#fff9ff"/>
              </g>
              <g id="Grupo_102" data-name="Grupo 102" transform="translate(27.327 7.394)">
                <path id="Trazado_119" data-name="Trazado 119" d="M409,280.091l.42-1.908a20,20,0,0,0-5.94-.288,13.14,13.14,0,0,0-5.2,1.646l1.053,1.644a11.442,11.442,0,0,1,4.374-1.351A18.166,18.166,0,0,1,409,280.091Z" transform="translate(-398.283 -277.787)" fill="#fff9ff"/>
              </g>
              <g id="Grupo_103" data-name="Grupo 103" transform="translate(0 10.043)">
                <path id="Trazado_120" data-name="Trazado 120" d="M383.551,279.224a18.678,18.678,0,0,1,3.978.914l-.649,1.84c-.05-.017-.85-.262-3.421-.855Z" transform="translate(-383.459 -279.224)" fill="#fff9ff"/>
              </g>
            </g>
          </g>
        </g>
      </g>
      <rect id="Rectángulo_9" data-name="Rectángulo 9" width="37.914" height="160.715" rx="3.387" transform="translate(8.202 315.729) rotate(-90)" opacity="0.4"/>
      <g id="Grupo_109" data-name="Grupo 109" transform="translate(38.109 287.294)">
        <circle id="Elipse_7" data-name="Elipse 7" cx="11.608" cy="11.608" r="11.608" fill="#fff" opacity="0.8"/>
        <circle id="Elipse_8" data-name="Elipse 8" cx="11.608" cy="11.608" r="11.608" transform="translate(39.295)" fill="#f43853"/>
        <circle id="Elipse_9" data-name="Elipse 9" cx="11.608" cy="11.608" r="11.608" transform="translate(77.685)" fill="#fff" opacity="0.8"/>
        <g id="Grupo_108" data-name="Grupo 108" transform="translate(5.312 7.219)">
          <path id="Trazado_121" data-name="Trazado 121" d="M383.494,361.45a1.293,1.293,0,1,1-1.292,1.292A1.293,1.293,0,0,1,383.494,361.45Z" transform="translate(-378.339 -361.45)" fill="#454545"/>
          <path id="Trazado_122" data-name="Trazado 122" d="M392.7,367.323H380.106l2.921-3.208,2,2.022,3.725-3.462Z" transform="translate(-380.106 -360.416)" fill="#454545"/>
        </g>
        <path id="Trazado_123" data-name="Trazado 123" d="M407.8,364.386s-2.066-.114-2.326.4c-.383.769.05,2.468-2.415,2.325s-1.646-2.218-1.366-2.817.769-1.689,6.107-1.689,5.825,1.089,6.105,1.689,1.1,2.673-1.366,2.817-2.031-1.556-2.415-2.325C409.863,364.272,407.8,364.386,407.8,364.386Z" transform="translate(-356.892 -353.255)" fill="#fff"/>
        <rect id="Rectángulo_10" data-name="Rectángulo 10" width="11.384" height="7.653" transform="translate(83.601 7.388)" fill="#454545"/>
        <path id="Trazado_124" data-name="Trazado 124" d="M428.76,368.7v-3.41l-3.021.511Z" transform="translate(-336.308 -350.994)" fill="#454545"/>
        <rect id="Rectángulo_11" data-name="Rectángulo 11" width="8.537" height="1.296" transform="translate(85.024 9.303)" fill="#fff"/>
        <rect id="Rectángulo_12" data-name="Rectángulo 12" width="4.53" height="1.296" transform="translate(85.024 11.985)" fill="#fff"/>
      </g>
    </g>
    <g id="Grupo_119" data-name="Grupo 119" transform="translate(188.292 208.671)">
      <g id="Grupo_115" data-name="Grupo 115" transform="translate(0 259.478)">
        <g id="Grupo_111" data-name="Grupo 111">
          <path id="Trazado_125" data-name="Trazado 125" d="M112.88,294.983A1.682,1.682,0,0,1,111.2,293.3v-3.364a1.682,1.682,0,1,1,3.364,0V293.3A1.68,1.68,0,0,1,112.88,294.983Z" transform="translate(-111.197 -288.255)" fill="#1119db"/>
        </g>
        <g id="Grupo_112" data-name="Grupo 112" transform="translate(0 10.631)">
          <path id="Trazado_126" data-name="Trazado 126" d="M112.88,486.773a1.682,1.682,0,0,1-1.683-1.681V478.31a1.682,1.682,0,0,1,3.364,0v6.782A1.68,1.68,0,0,1,112.88,486.773Zm0-14.045a1.684,1.684,0,0,1-1.683-1.683v-6.782a1.682,1.682,0,0,1,3.364,0v6.782A1.682,1.682,0,0,1,112.88,472.728Zm0-14.047A1.684,1.684,0,0,1,111.2,457v-6.78a1.682,1.682,0,1,1,3.364,0V457A1.682,1.682,0,0,1,112.88,458.681Zm0-14.047a1.684,1.684,0,0,1-1.683-1.683v-6.78a1.682,1.682,0,1,1,3.364,0v6.78A1.682,1.682,0,0,1,112.88,444.634Zm0-14.047A1.684,1.684,0,0,1,111.2,428.9v-6.78a1.682,1.682,0,1,1,3.364,0v6.78A1.682,1.682,0,0,1,112.88,430.587Zm0-14.047a1.684,1.684,0,0,1-1.683-1.683v-6.78a1.682,1.682,0,1,1,3.364,0v6.78A1.682,1.682,0,0,1,112.88,416.541Zm0-14.047a1.684,1.684,0,0,1-1.683-1.683v-6.78a1.682,1.682,0,1,1,3.364,0v6.78A1.682,1.682,0,0,1,112.88,402.494Zm0-14.047a1.684,1.684,0,0,1-1.683-1.683v-6.78a1.682,1.682,0,1,1,3.364,0v6.78A1.682,1.682,0,0,1,112.88,388.447Zm0-14.047a1.684,1.684,0,0,1-1.683-1.683v-6.78a1.682,1.682,0,1,1,3.364,0v6.78A1.682,1.682,0,0,1,112.88,374.4Zm0-14.047a1.683,1.683,0,0,1-1.683-1.681V351.89a1.682,1.682,0,1,1,3.364,0v6.782A1.682,1.682,0,0,1,112.88,360.353Zm0-14.047a1.682,1.682,0,0,1-1.683-1.681v-6.782a1.682,1.682,0,1,1,3.364,0v6.782A1.681,1.681,0,0,1,112.88,346.307Zm0-14.047a1.682,1.682,0,0,1-1.683-1.681V323.8a1.682,1.682,0,0,1,3.364,0v6.782A1.68,1.68,0,0,1,112.88,332.26Zm0-14.045a1.684,1.684,0,0,1-1.683-1.683V309.75a1.682,1.682,0,0,1,3.364,0v6.782A1.682,1.682,0,0,1,112.88,318.215Zm0-14.049a1.682,1.682,0,0,1-1.683-1.681V295.7a1.682,1.682,0,0,1,3.364,0v6.782A1.68,1.68,0,0,1,112.88,304.166Z" transform="translate(-111.197 -294.022)" fill="#1119db"/>
        </g>
        <g id="Grupo_113" data-name="Grupo 113" transform="translate(0 207.284)">
          <path id="Trazado_127" data-name="Trazado 127" d="M116.244,407.429H112.88a1.683,1.683,0,0,1-1.683-1.681v-3.366a1.682,1.682,0,0,1,3.364,0v1.683h1.683a1.682,1.682,0,0,1,0,3.364Z" transform="translate(-111.197 -400.701)" fill="#1119db"/>
        </g>
        <g id="Grupo_114" data-name="Grupo 114" transform="translate(10.707 210.648)">
          <path id="Trazado_128" data-name="Trazado 128" d="M171.743,402.526h-6.852a1.682,1.682,0,1,0,0,3.364h6.852a1.682,1.682,0,1,0,0-3.364Z" transform="translate(-78.037 -402.526)" fill="#1119db"/>
          <path id="Trazado_129" data-name="Trazado 129" d="M164.043,402.526h-6.854a1.682,1.682,0,0,0,0,3.364h6.854a1.682,1.682,0,0,0,0-3.364Z" transform="translate(-84.531 -402.526)" fill="#1119db"/>
          <path id="Trazado_130" data-name="Trazado 130" d="M148.642,402.526h-6.854a1.682,1.682,0,0,0,0,3.364h6.854a1.682,1.682,0,0,0,0-3.364Z" transform="translate(-97.521 -402.526)" fill="#1119db"/>
          <path id="Trazado_131" data-name="Trazado 131" d="M125.54,402.526h-6.852a1.682,1.682,0,1,0,0,3.364h6.852a1.682,1.682,0,1,0,0-3.364Z" transform="translate(-117.005 -402.526)" fill="#1119db"/>
          <path id="Trazado_132" data-name="Trazado 132" d="M133.241,402.526h-6.854a1.682,1.682,0,0,0,0,3.364h6.854a1.682,1.682,0,0,0,0-3.364Z" transform="translate(-110.51 -402.526)" fill="#1119db"/>
          <path id="Trazado_133" data-name="Trazado 133" d="M140.941,402.526h-6.852a1.682,1.682,0,1,0,0,3.364h6.852a1.682,1.682,0,1,0,0-3.364Z" transform="translate(-104.016 -402.526)" fill="#1119db"/>
          <path id="Trazado_134" data-name="Trazado 134" d="M156.342,402.526H149.49a1.682,1.682,0,1,0,0,3.364h6.852a1.682,1.682,0,1,0,0-3.364Z" transform="translate(-91.026 -402.526)" fill="#1119db"/>
          <path id="Trazado_135" data-name="Trazado 135" d="M179.444,402.526H172.59a1.682,1.682,0,0,0,0,3.364h6.854a1.682,1.682,0,0,0,0-3.364Z" transform="translate(-71.542 -402.526)" fill="#1119db"/>
          <path id="Trazado_136" data-name="Trazado 136" d="M217.946,402.526h-6.852a1.682,1.682,0,1,0,0,3.364h6.852a1.682,1.682,0,1,0,0-3.364Z" transform="translate(-39.069 -402.526)" fill="#1119db"/>
          <path id="Trazado_137" data-name="Trazado 137" d="M219.2,402.526h-.409a1.682,1.682,0,0,0,0,3.364h.409Z" transform="translate(-32.574 -402.526)" fill="#1119db"/>
          <path id="Trazado_138" data-name="Trazado 138" d="M210.246,402.526h-6.854a1.682,1.682,0,0,0,0,3.364h6.854a1.682,1.682,0,0,0,0-3.364Z" transform="translate(-45.563 -402.526)" fill="#1119db"/>
          <path id="Trazado_139" data-name="Trazado 139" d="M202.545,402.526h-6.852a1.682,1.682,0,1,0,0,3.364h6.852a1.682,1.682,0,1,0,0-3.364Z" transform="translate(-52.058 -402.526)" fill="#1119db"/>
          <path id="Trazado_140" data-name="Trazado 140" d="M187.144,402.526h-6.852a1.682,1.682,0,1,0,0,3.364h6.852a1.682,1.682,0,1,0,0-3.364Z" transform="translate(-65.048 -402.526)" fill="#1119db"/>
          <path id="Trazado_141" data-name="Trazado 141" d="M194.845,402.526h-6.854a1.682,1.682,0,0,0,0,3.364h6.854a1.682,1.682,0,0,0,0-3.364Z" transform="translate(-58.552 -402.526)" fill="#1119db"/>
        </g>
      </g>
      <g id="Grupo_116" data-name="Grupo 116" transform="translate(439.85 0)">
        <path id="Trazado_142" data-name="Trazado 142" d="M455.059,249.165a1.682,1.682,0,0,1-1.681-1.683v-6.728a1.682,1.682,0,1,1,3.364,0v6.728A1.684,1.684,0,0,1,455.059,249.165Zm0-13.94a1.68,1.68,0,0,1-1.681-1.681v-6.73a1.682,1.682,0,0,1,3.364,0v6.73A1.682,1.682,0,0,1,455.059,235.225Zm0-13.938a1.682,1.682,0,0,1-1.681-1.683v-6.728a1.682,1.682,0,1,1,3.364,0V219.6A1.684,1.684,0,0,1,455.059,221.287Zm0-13.94a1.68,1.68,0,0,1-1.681-1.681v-6.73a1.682,1.682,0,0,1,3.364,0v6.73A1.682,1.682,0,0,1,455.059,207.347Zm0-13.938a1.682,1.682,0,0,1-1.681-1.683V185a1.682,1.682,0,0,1,3.364,0v6.73A1.684,1.684,0,0,1,455.059,193.409Zm0-13.94a1.682,1.682,0,0,1-1.681-1.683v-6.728a1.682,1.682,0,1,1,3.364,0v6.728A1.684,1.684,0,0,1,455.059,179.469Zm0-13.94a1.68,1.68,0,0,1-1.681-1.681v-6.73a1.682,1.682,0,0,1,3.364,0v6.73A1.682,1.682,0,0,1,455.059,165.529Zm0-13.938a1.679,1.679,0,0,1-1.386-.73h-4.612a1.683,1.683,0,0,1,0-3.366h6a1.684,1.684,0,0,1,1.683,1.683v.73A1.684,1.684,0,0,1,455.059,151.591Zm-13.208-.73h-6.728a1.683,1.683,0,1,1,0-3.366h6.728a1.683,1.683,0,1,1,0,3.366Zm-13.94,0h-6.728a1.683,1.683,0,1,1,0-3.366h6.728a1.683,1.683,0,1,1,0,3.366Zm-13.938,0h-6.73a1.683,1.683,0,0,1,0-3.366h6.73a1.683,1.683,0,0,1,0,3.366Zm-13.94,0H393.3a1.683,1.683,0,0,1,0-3.366h6.728a1.683,1.683,0,0,1,0,3.366Zm-13.938,0h-6.73a1.683,1.683,0,0,1,0-3.366h6.73a1.683,1.683,0,0,1,0,3.366Zm-13.94,0h-6.728a1.683,1.683,0,1,1,0-3.366h6.728a1.683,1.683,0,1,1,0,3.366Zm-13.94,0h-6.728a1.683,1.683,0,1,1,0-3.366h6.728a1.683,1.683,0,0,1,0,3.366Z" transform="translate(-349.804 -147.495)" fill="#1119db"/>
      </g>
      <g id="Grupo_117" data-name="Grupo 117" transform="translate(90.934 0)">
        <path id="Trazado_143" data-name="Trazado 143" d="M196.815,150.861h-6.728a1.683,1.683,0,0,1,0-3.366h6.728a1.683,1.683,0,1,1,0,3.366Zm-13.94,0h-6.728a1.683,1.683,0,0,1,0-3.366h6.728a1.683,1.683,0,1,1,0,3.366Zm-13.938,0h-6.73a1.683,1.683,0,0,1,0-3.366h6.73a1.683,1.683,0,0,1,0,3.366Z" transform="translate(-160.526 -147.495)" fill="#1119db"/>
      </g>
      <g id="Grupo_118" data-name="Grupo 118" transform="translate(395.526 420.744)">
        <path id="Trazado_144" data-name="Trazado 144" d="M473.562,427.33h-6.728a1.683,1.683,0,0,1,0-3.366h6.728a1.683,1.683,0,1,1,0,3.366Zm-13.938,0h-6.73a1.683,1.683,0,0,1,0-3.366h6.73a1.683,1.683,0,0,1,0,3.366Zm-13.94,0h-6.728a1.683,1.683,0,0,1,0-3.366h6.728a1.683,1.683,0,0,1,0,3.366Zm-13.94,0h-6.728a1.683,1.683,0,1,1,0-3.366h6.728a1.683,1.683,0,0,1,0,3.366Zm-13.938,0h-6.73a1.683,1.683,0,0,1,0-3.366h6.73a1.683,1.683,0,0,1,0,3.366Zm-13.94,0h-6.728a1.683,1.683,0,1,1,0-3.366h6.728a1.683,1.683,0,1,1,0,3.366Zm-13.938,0H383.2a1.683,1.683,0,0,1,0-3.366h6.73a1.683,1.683,0,0,1,0,3.366Zm-13.94,0H369.26a1.683,1.683,0,0,1,0-3.366h6.728a1.683,1.683,0,1,1,0,3.366Zm-13.94,0H355.32a1.683,1.683,0,1,1,0-3.366h6.728a1.683,1.683,0,0,1,0,3.366Zm-13.938,0h-6.73a1.683,1.683,0,0,1,0-3.366h6.73a1.683,1.683,0,0,1,0,3.366Zm-13.94,0h-6.729a1.683,1.683,0,0,1,0-3.366h6.729a1.683,1.683,0,0,1,0,3.366ZM475.339,421.9a1.68,1.68,0,0,1-1.681-1.681v-6.73a1.682,1.682,0,0,1,3.364,0v6.73A1.682,1.682,0,0,1,475.339,421.9Zm0-13.938a1.682,1.682,0,0,1-1.681-1.683v-6.728a1.682,1.682,0,1,1,3.364,0v6.728A1.684,1.684,0,0,1,475.339,407.958Zm0-13.94a1.682,1.682,0,0,1-1.681-1.681v-6.73a1.682,1.682,0,0,1,3.364,0v6.73A1.683,1.683,0,0,1,475.339,394.018Zm0-13.938a1.682,1.682,0,0,1-1.681-1.683v-.977a1.682,1.682,0,1,1,3.364,0v.977A1.684,1.684,0,0,1,475.339,380.08Z" transform="translate(-325.759 -375.737)" fill="#1119db"/>
      </g>
    </g>
    <g id="Grupo_147" data-name="Grupo 147" transform="translate(23.06 141.595)">
      <g id="Grupo_129" data-name="Grupo 129" transform="translate(0 256.122)">
        <g id="Grupo_126" data-name="Grupo 126" transform="translate(0 53.223)">
          <g id="Grupo_120" data-name="Grupo 120" transform="translate(0 24.962)">
            <path id="Trazado_145" data-name="Trazado 145" d="M24.782,296.464H22.636a1.071,1.071,0,0,1-.929-1.607L22.78,293a1.072,1.072,0,1,1,1.858,1.071l-.144.251h.288a1.072,1.072,0,1,1,0,2.144Z" transform="translate(-21.563 -292.46)" fill="#ff495a"/>
          </g>
          <g id="Grupo_121" data-name="Grupo 121" transform="translate(2.978 5.158)">
            <path id="Trazado_146" data-name="Trazado 146" d="M24.25,300.367a1.059,1.059,0,0,1-.535-.144,1.072,1.072,0,0,1-.393-1.466l1.9-3.3a1.073,1.073,0,0,1,1.858,1.073l-1.9,3.3A1.073,1.073,0,0,1,24.25,300.367Zm3.812-6.6a1.073,1.073,0,0,1-.929-1.609l1.906-3.3a1.073,1.073,0,0,1,1.858,1.073l-1.906,3.3A1.07,1.07,0,0,1,28.062,293.765Zm3.81-6.6a1.059,1.059,0,0,1-.535-.144,1.072,1.072,0,0,1-.393-1.465l1.9-3.3a1.073,1.073,0,1,1,1.858,1.075l-1.9,3.3A1.073,1.073,0,0,1,31.873,287.164Z" transform="translate(-23.179 -281.717)" fill="#ff495a"/>
          </g>
          <g id="Grupo_122" data-name="Grupo 122" transform="translate(14.412)">
            <path id="Trazado_147" data-name="Trazado 147" d="M32.6,282.923a1.073,1.073,0,0,1-.931-.536l-.144-.249-.144.249a1.073,1.073,0,0,1-1.858-1.073l1.073-1.858a1.073,1.073,0,0,1,1.858,0l1.073,1.858a1.073,1.073,0,0,1-.927,1.609Z" transform="translate(-29.381 -278.919)" fill="#ff495a"/>
          </g>
          <g id="Grupo_123" data-name="Grupo 123" transform="translate(18.463 5.158)">
            <path id="Trazado_148" data-name="Trazado 148" d="M42.181,300.367a1.073,1.073,0,0,1-.931-.536l-1.9-3.3a1.073,1.073,0,0,1,1.858-1.073l1.906,3.3a1.073,1.073,0,0,1-.929,1.609Zm-3.81-6.6a1.071,1.071,0,0,1-.931-.536l-1.906-3.3a1.073,1.073,0,0,1,1.858-1.073l1.906,3.3a1.073,1.073,0,0,1-.927,1.609Zm-3.812-6.6a1.068,1.068,0,0,1-.929-.536l-1.906-3.3a1.073,1.073,0,1,1,1.858-1.075l1.906,3.3a1.073,1.073,0,0,1-.929,1.609Z" transform="translate(-31.579 -281.717)" fill="#ff495a"/>
          </g>
          <g id="Grupo_124" data-name="Grupo 124" transform="translate(28.824 24.962)">
            <path id="Trazado_149" data-name="Trazado 149" d="M40.418,296.464H38.272a1.072,1.072,0,1,1,0-2.144h.288l-.144-.251A1.072,1.072,0,1,1,40.274,293l1.073,1.858a1.071,1.071,0,0,1-.929,1.607Z" transform="translate(-37.199 -292.46)" fill="#ff495a"/>
          </g>
          <g id="Grupo_125" data-name="Grupo 125" transform="translate(5.956 26.822)">
            <path id="Trazado_150" data-name="Trazado 150" d="M44.924,295.613H41.112a1.072,1.072,0,1,1,0-2.144h3.812a1.072,1.072,0,1,1,0,2.144Zm-7.623,0H33.489a1.072,1.072,0,1,1,0-2.144H37.3a1.072,1.072,0,1,1,0,2.144Zm-7.622,0H25.867a1.072,1.072,0,1,1,0-2.144h3.812a1.072,1.072,0,1,1,0,2.144Z" transform="translate(-24.794 -293.469)" fill="#ff495a"/>
          </g>
        </g>
        <g id="Grupo_127" data-name="Grupo 127" transform="translate(42.229 90.89)">
          <path id="Trazado_151" data-name="Trazado 151" d="M58.427,331.385a1.075,1.075,0,0,1-.153-.009,16,16,0,0,1-4.4-1.29,1.073,1.073,0,1,1,.894-1.95,13.858,13.858,0,0,0,3.808,1.115,1.073,1.073,0,0,1-.151,2.135Zm4.273,0a1.073,1.073,0,0,1-.149-2.135,13.865,13.865,0,0,0,3.807-1.115,1.072,1.072,0,1,1,.892,1.95,15.973,15.973,0,0,1-4.4,1.29A1.076,1.076,0,0,1,62.7,331.385Zm7.7-3.515a1.074,1.074,0,0,1-.7-1.884,14.042,14.042,0,0,0,2.6-3,1.073,1.073,0,0,1,1.8,1.161,16.153,16.153,0,0,1-3,3.46A1.065,1.065,0,0,1,70.4,327.869Zm-19.673,0a1.073,1.073,0,0,1-.7-.262,16.158,16.158,0,0,1-3-3.462,1.073,1.073,0,0,1,1.8-1.161,13.939,13.939,0,0,0,2.6,3,1.073,1.073,0,0,1-.7,1.884Zm24.252-7.117a1.076,1.076,0,0,1-1.03-1.375,13.979,13.979,0,0,0,.562-3.93,1.073,1.073,0,1,1,2.146,0,16.05,16.05,0,0,1-.649,4.533A1.072,1.072,0,0,1,74.979,320.75Zm-28.831,0a1.073,1.073,0,0,1-1.029-.771,16.059,16.059,0,0,1-.649-4.533,1.073,1.073,0,1,1,2.146,0,13.961,13.961,0,0,0,.562,3.93,1.076,1.076,0,0,1-1.03,1.375Zm28.831-8.461a1.073,1.073,0,0,1-1.029-.77,13.875,13.875,0,0,0-1.65-3.609,1.073,1.073,0,1,1,1.8-1.163,16.029,16.029,0,0,1,1.906,4.168,1.073,1.073,0,0,1-.728,1.331A1.018,1.018,0,0,1,74.979,312.287Zm-28.829,0a1.061,1.061,0,0,1-.3-.042,1.073,1.073,0,0,1-.728-1.333,15.989,15.989,0,0,1,1.906-4.166,1.073,1.073,0,1,1,1.8,1.161,13.875,13.875,0,0,0-1.652,3.609A1.074,1.074,0,0,1,46.15,312.283Zm24.25-7.117a1.063,1.063,0,0,1-.7-.262,13.956,13.956,0,0,0-3.338-2.149,1.073,1.073,0,0,1,.892-1.952,16.11,16.11,0,0,1,3.853,2.481,1.072,1.072,0,0,1-.7,1.882Zm-19.671,0a1.071,1.071,0,0,1-.7-1.882A15.994,15.994,0,0,1,53.88,300.8a1.072,1.072,0,1,1,.892,1.95,13.968,13.968,0,0,0-3.34,2.15A1.063,1.063,0,0,1,50.729,305.164ZM62.7,301.649a1.1,1.1,0,0,1-.153-.011,14.192,14.192,0,0,0-3.973,0,1.073,1.073,0,0,1-.3-2.125,16.34,16.34,0,0,1,4.577,0,1.073,1.073,0,0,1-.149,2.135Z" transform="translate(-44.471 -299.352)" fill="#6b5efd"/>
        </g>
        <g id="Grupo_128" data-name="Grupo 128" transform="translate(14.176)">
          <path id="Trazado_152" data-name="Trazado 152" d="M43.209,282.08a1.071,1.071,0,0,1-.153-.011,16.047,16.047,0,0,1-4.4-1.289,1.073,1.073,0,0,1,.892-1.952,13.858,13.858,0,0,0,3.808,1.117,1.073,1.073,0,0,1-.149,2.135Zm4.273,0a1.073,1.073,0,0,1-.151-2.135,13.857,13.857,0,0,0,3.808-1.117,1.073,1.073,0,0,1,.892,1.952,16.034,16.034,0,0,1-4.4,1.289A1.09,1.09,0,0,1,47.482,282.08Zm7.7-3.517a1.074,1.074,0,0,1-.7-1.884,14,14,0,0,0,2.6-3,1.073,1.073,0,1,1,1.8,1.163,16.1,16.1,0,0,1-3,3.46A1.069,1.069,0,0,1,55.181,278.563Zm-19.671,0a1.062,1.062,0,0,1-.7-.264,16.1,16.1,0,0,1-3-3.46,1.073,1.073,0,0,1,1.8-1.161,13.983,13.983,0,0,0,2.6,3,1.074,1.074,0,0,1-.7,1.884Zm24.252-7.119a1.018,1.018,0,0,1-.3-.044,1.072,1.072,0,0,1-.728-1.331,13.96,13.96,0,0,0,.562-3.93,1.072,1.072,0,1,1,2.144,0,16.128,16.128,0,0,1-.647,4.535A1.073,1.073,0,0,1,59.761,271.443Zm-28.833,0a1.075,1.075,0,0,1-1.029-.772,16.115,16.115,0,0,1-.647-4.533,1.073,1.073,0,1,1,2.146,0,13.958,13.958,0,0,0,.56,3.93,1.076,1.076,0,0,1-1.03,1.375Zm28.833-8.461a1.076,1.076,0,0,1-1.03-.772,13.81,13.81,0,0,0-1.65-3.609,1.073,1.073,0,0,1,1.8-1.161,16,16,0,0,1,1.9,4.168,1.074,1.074,0,0,1-1.029,1.375Zm-28.831,0A1.074,1.074,0,0,1,29.9,261.6a16.03,16.03,0,0,1,1.906-4.168,1.072,1.072,0,1,1,1.8,1.161,13.853,13.853,0,0,0-1.65,3.611A1.077,1.077,0,0,1,30.931,262.978Zm24.252-7.117a1.073,1.073,0,0,1-.7-.262,14,14,0,0,0-3.338-2.151,1.072,1.072,0,0,1,.892-1.95,16.176,16.176,0,0,1,3.853,2.479,1.074,1.074,0,0,1-.7,1.884Zm-19.671,0a1.074,1.074,0,0,1-.7-1.884A16.121,16.121,0,0,1,38.66,251.5a1.073,1.073,0,0,1,.892,1.952,13.935,13.935,0,0,0-3.338,2.149A1.073,1.073,0,0,1,35.511,255.859Zm11.975-3.517a1.421,1.421,0,0,1-.153-.009,14.2,14.2,0,0,0-3.973,0,1.073,1.073,0,1,1-.3-2.124,16.412,16.412,0,0,1,4.577,0,1.073,1.073,0,0,1-.149,2.135Z" transform="translate(-29.253 -250.047)" fill="#fda803"/>
        </g>
      </g>
      <g id="Grupo_140" data-name="Grupo 140" transform="translate(673.822)">
        <g id="Grupo_137" data-name="Grupo 137" transform="translate(59.138 6.913)">
          <g id="Grupo_136" data-name="Grupo 136">
            <g id="Grupo_130" data-name="Grupo 130" transform="translate(28.825 24.963)">
              <path id="Trazado_153" data-name="Trazado 153" d="M435.884,132.4h2.146a1.073,1.073,0,0,0,.929-1.609l-1.073-1.858a1.073,1.073,0,1,0-1.858,1.073l.144.249h-.288a1.073,1.073,0,1,0,0,2.146Z" transform="translate(-434.811 -128.4)" fill="#fda803"/>
            </g>
            <g id="Grupo_131" data-name="Grupo 131" transform="translate(18.464 5.159)">
              <path id="Trazado_154" data-name="Trazado 154" d="M438.862,135.769l-1.906-3.3a1.073,1.073,0,1,1,1.858-1.073l1.906,3.3a1.073,1.073,0,1,1-1.858,1.073Zm-3.812-6.6-1.9-3.3A1.073,1.073,0,1,1,435,124.795l1.9,3.3a1.073,1.073,0,1,1-1.858,1.073Zm-3.81-6.6-1.906-3.3a1.073,1.073,0,1,1,1.858-1.073l1.906,3.3a1.073,1.073,0,1,1-1.858,1.073Z" transform="translate(-429.19 -117.657)" fill="#fda803"/>
            </g>
            <g id="Grupo_132" data-name="Grupo 132" transform="translate(14.412)">
              <path id="Trazado_155" data-name="Trazado 155" d="M428.065,118.862a1.073,1.073,0,0,0,.931-.536l.144-.249.142.249a1.074,1.074,0,0,0,1.86-1.073l-1.073-1.858a1.074,1.074,0,0,0-1.86,0l-1.073,1.858a1.073,1.073,0,0,0,.929,1.609Z" transform="translate(-426.992 -114.858)" fill="#fda803"/>
            </g>
            <g id="Grupo_133" data-name="Grupo 133" transform="translate(2.979 5.159)">
              <path id="Trazado_156" data-name="Trazado 156" d="M421.326,136.161a1.072,1.072,0,0,1-.393-1.466l1.906-3.3a1.073,1.073,0,0,1,1.858,1.073l-1.906,3.3a1.068,1.068,0,0,1-1.466.393Zm3.812-6.6a1.073,1.073,0,0,1-.394-1.466l1.906-3.3a1.073,1.073,0,1,1,1.858,1.073l-1.9,3.3a1.073,1.073,0,0,1-.931.536A1.059,1.059,0,0,1,425.139,129.56Zm3.81-6.6a1.072,1.072,0,0,1-.393-1.466l1.906-3.3a1.073,1.073,0,0,1,1.858,1.073l-1.906,3.3a1.073,1.073,0,0,1-1.465.393Z" transform="translate(-420.79 -117.657)" fill="#fda803"/>
            </g>
            <g id="Grupo_134" data-name="Grupo 134" transform="translate(0 24.963)">
              <path id="Trazado_157" data-name="Trazado 157" d="M420.247,132.4h2.146a1.073,1.073,0,1,0,0-2.146h-.288l.144-.249a1.073,1.073,0,1,0-1.858-1.073l-1.073,1.858a1.073,1.073,0,0,0,.929,1.609Z" transform="translate(-419.174 -128.4)" fill="#fda803"/>
            </g>
            <g id="Grupo_135" data-name="Grupo 135" transform="translate(5.958 26.822)">
              <path id="Trazado_158" data-name="Trazado 158" d="M422.406,130.481a1.072,1.072,0,0,1,1.073-1.073h3.81a1.073,1.073,0,1,1,0,2.146h-3.81A1.073,1.073,0,0,1,422.406,130.481Zm7.623,0a1.072,1.072,0,0,1,1.073-1.073h3.81a1.073,1.073,0,0,1,0,2.146H431.1A1.073,1.073,0,0,1,430.028,130.481Zm7.622,0a1.072,1.072,0,0,1,1.073-1.073h3.81a1.073,1.073,0,1,1,0,2.146h-3.81A1.073,1.073,0,0,1,437.651,130.481Z" transform="translate(-422.406 -129.408)" fill="#fda803"/>
            </g>
          </g>
        </g>
        <g id="Grupo_138" data-name="Grupo 138">
          <path id="Trazado_159" data-name="Trazado 159" d="M404.261,142.219a1.073,1.073,0,0,1,.911-1.213,13.858,13.858,0,0,0,3.808-1.117,1.072,1.072,0,0,1,.892,1.95,15.969,15.969,0,0,1-4.4,1.29,1.046,1.046,0,0,1-.151.011A1.074,1.074,0,0,1,404.261,142.219Zm-3.364.911a16.049,16.049,0,0,1-4.4-1.289,1.073,1.073,0,0,1,.892-1.952,13.859,13.859,0,0,0,3.809,1.117,1.073,1.073,0,1,1-.3,2.124Zm-8.249-3.768a16.157,16.157,0,0,1-3-3.462,1.073,1.073,0,0,1,1.8-1.161,13.939,13.939,0,0,0,2.6,3,1.073,1.073,0,0,1-1.4,1.622Zm19.564-.109a1.072,1.072,0,0,1,.107-1.513,14.045,14.045,0,0,0,2.6-3,1.073,1.073,0,0,1,1.8,1.161,16.145,16.145,0,0,1-3,3.46,1.07,1.07,0,0,1-1.513-.107Zm-24.471-7.519a16.138,16.138,0,0,1-.647-4.535,1.073,1.073,0,1,1,2.146,0,13.959,13.959,0,0,0,.56,3.93,1.073,1.073,0,0,1-2.059.6Zm29.559.726a1.073,1.073,0,0,1-.728-1.331,13.96,13.96,0,0,0,.56-3.93,1.073,1.073,0,1,1,2.146,0,16.113,16.113,0,0,1-.647,4.533,1.069,1.069,0,0,1-1.331.728ZM388.468,124a1.072,1.072,0,0,1-.728-1.331,16.056,16.056,0,0,1,1.9-4.168,1.073,1.073,0,0,1,1.8,1.161,13.871,13.871,0,0,0-1.65,3.609,1.076,1.076,0,0,1-1.029.772A1.063,1.063,0,0,1,388.468,124Zm28.1-.732a13.876,13.876,0,0,0-1.652-3.609,1.073,1.073,0,0,1,1.8-1.161,16,16,0,0,1,1.906,4.168,1.073,1.073,0,1,1-2.059.6Zm-24.033-6.716a1.072,1.072,0,0,1,.107-1.513,16.126,16.126,0,0,1,3.851-2.479,1.072,1.072,0,1,1,.892,1.95,14,14,0,0,0-3.338,2.151,1.071,1.071,0,0,1-1.512-.109Zm19.778.107a13.843,13.843,0,0,0-3.338-2.149,1.073,1.073,0,0,1,.892-1.952,16.121,16.121,0,0,1,3.853,2.479,1.074,1.074,0,0,1-1.406,1.622Zm-12.332-4.177a1.073,1.073,0,0,1,.911-1.213,16.424,16.424,0,0,1,4.579,0,1.073,1.073,0,0,1-.3,2.124,14.28,14.28,0,0,0-3.974,0,1.043,1.043,0,0,1-.151.011A1.071,1.071,0,0,1,399.984,112.481Z" transform="translate(-387.093 -111.108)" fill="#766aff"/>
        </g>
        <g id="Grupo_139" data-name="Grupo 139" transform="translate(65.548 68.823)">
          <path id="Trazado_160" data-name="Trazado 160" d="M439.819,179.555a1.072,1.072,0,0,1,.911-1.213,13.856,13.856,0,0,0,3.808-1.117,1.072,1.072,0,1,1,.892,1.95,15.984,15.984,0,0,1-4.4,1.29,1.07,1.07,0,0,1-1.213-.911Zm-3.366.911a15.972,15.972,0,0,1-4.4-1.29,1.072,1.072,0,1,1,.892-1.95,13.791,13.791,0,0,0,3.808,1.115,1.074,1.074,0,0,1-.151,2.137A1.093,1.093,0,0,1,436.453,180.465Zm-8.247-3.77a16.053,16.053,0,0,1-3-3.46,1.072,1.072,0,0,1,1.8-1.161,14,14,0,0,0,2.6,3,1.072,1.072,0,1,1-1.4,1.62Zm19.564-.107a1.072,1.072,0,0,1,.107-1.513,14.027,14.027,0,0,0,2.6-3,1.073,1.073,0,1,1,1.8,1.161,16.142,16.142,0,0,1-3,3.46,1.073,1.073,0,0,1-1.512-.107ZM423.3,169.067a16.111,16.111,0,0,1-.647-4.533,1.072,1.072,0,1,1,2.144,0,13.971,13.971,0,0,0,.562,3.93,1.073,1.073,0,1,1-2.059.6Zm29.559.728a1.072,1.072,0,0,1-.728-1.331,13.981,13.981,0,0,0,.56-3.932,1.073,1.073,0,0,1,2.146,0,16.125,16.125,0,0,1-.647,4.533,1.074,1.074,0,0,1-1.029.771A1.061,1.061,0,0,1,452.857,169.8Zm-28.833-8.461A1.073,1.073,0,0,1,423.3,160a15.981,15.981,0,0,1,1.9-4.166,1.073,1.073,0,1,1,1.8,1.161,13.783,13.783,0,0,0-1.65,3.609,1.078,1.078,0,0,1-1.333.728Zm28.1-.732a13.874,13.874,0,0,0-1.65-3.609,1.072,1.072,0,1,1,1.8-1.161A16.009,16.009,0,0,1,454.186,160a1.073,1.073,0,1,1-2.059.6Zm-24.033-6.716a1.075,1.075,0,0,1,.107-1.513,16.118,16.118,0,0,1,3.853-2.479,1.072,1.072,0,1,1,.892,1.95,14,14,0,0,0-3.338,2.149,1.07,1.07,0,0,1-1.513-.107Zm19.78.105a13.933,13.933,0,0,0-3.338-2.148,1.073,1.073,0,0,1,.892-1.952,16.116,16.116,0,0,1,3.853,2.479,1.073,1.073,0,0,1-1.406,1.62Zm-12.332-4.175a1.073,1.073,0,0,1,.91-1.213,16.339,16.339,0,0,1,4.577,0,1.073,1.073,0,1,1-.3,2.124,14.192,14.192,0,0,0-3.973,0,1.07,1.07,0,0,1-1.213-.911Z" transform="translate(-422.651 -148.443)" fill="#ff495a"/>
        </g>
      </g>
      <g id="Grupo_142" data-name="Grupo 142" transform="translate(437.926 244.594)">
        <path id="Trazado_161" data-name="Trazado 161" d="M244.981,327.515l23.87-2.562A37.5,37.5,0,1,0,249.59,308.03l-7.2,17.324A1.866,1.866,0,0,0,244.981,327.515Z" transform="translate(-242.852 -252.473)" fill="#ff495a"/>
        <g id="Grupo_141" data-name="Grupo 141" transform="translate(17.575 32.438)">
          <circle id="Elipse_10" data-name="Elipse 10" cx="5.283" cy="5.283" r="5.283" transform="translate(0 0.001)" fill="#e21c47"/>
          <circle id="Elipse_11" data-name="Elipse 11" cx="5.283" cy="5.283" r="5.283" transform="translate(17.542 0.001)" fill="#e21c47"/>
          <path id="Trazado_162" data-name="Trazado 162" d="M281.984,275.353a5.283,5.283,0,1,1-5.283-5.283A5.283,5.283,0,0,1,281.984,275.353Z" transform="translate(-236.334 -270.07)" fill="#e21c47"/>
        </g>
      </g>
    </g>
    <g id="Grupo_183" data-name="Grupo 183" transform="translate(312.928 125.016)">
      <g id="Grupo_151" data-name="Grupo 151">
        <rect id="Rectángulo_14" data-name="Rectángulo 14" width="316.897" height="212.906" rx="3.299" fill="#2e3062"/>
        <path id="Trazado_165" data-name="Trazado 165" d="M483.456,112.905V296.445a6.173,6.173,0,0,1-6.175,6.175H189.535a5.916,5.916,0,0,1-2.142-.393,6.149,6.149,0,0,1-4.024-5.783V112.905a6.171,6.171,0,0,1,6.166-6.175H477.28a6.1,6.1,0,0,1,2.332.459A6.173,6.173,0,0,1,483.456,112.905Z" transform="translate(-174.962 -98.222)" fill="#fff9ff"/>
        <g id="Grupo_150" data-name="Grupo 150" transform="translate(8.405 8.508)">
          <path id="Trazado_166" data-name="Trazado 166" d="M483.457,112.9v9.138H183.368V112.9a6.171,6.171,0,0,1,6.172-6.172H477.285A6.172,6.172,0,0,1,483.457,112.9Z" transform="translate(-183.368 -106.73)" fill="#dadaef"/>
          <path id="Trazado_167" data-name="Trazado 167" d="M205.436,111.873h0a2.025,2.025,0,0,0,2.024,2.026H410.149a2.024,2.024,0,0,0,2.024-2.026h0a2.024,2.024,0,0,0-2.024-2.024H207.46A2.025,2.025,0,0,0,205.436,111.873Z" transform="translate(-164.756 -104.099)" fill="#fff9ff"/>
          <g id="Grupo_148" data-name="Grupo 148" transform="translate(13.854 5.714)">
            <path id="Trazado_168" data-name="Trazado 168" d="M194.6,111.889v1.5a.56.56,0,0,1-.839.485l-1.3-.75-1.3-.75a.559.559,0,0,1,0-.968l1.3-.75,1.3-.75a.559.559,0,0,1,.839.483Z" transform="translate(-190.883 -109.83)" fill="#2e3062"/>
            <path id="Trazado_169" data-name="Trazado 169" d="M196.566,111.889v1.5a.56.56,0,0,0,.839.485l1.3-.75,1.3-.75a.559.559,0,0,0,0-.968l-1.3-.75-1.3-.75a.559.559,0,0,0-.839.483Z" transform="translate(-186.091 -109.83)" fill="#2e3062"/>
          </g>
          <g id="Grupo_149" data-name="Grupo 149" transform="translate(259.457 4.657)">
            <circle id="Elipse_12" data-name="Elipse 12" cx="2.998" cy="2.998" r="2.998" transform="translate(11.093)" fill="#6b5efd"/>
            <circle id="Elipse_13" data-name="Elipse 13" cx="2.998" cy="2.998" r="2.998" fill="#fda803"/>
            <circle id="Elipse_14" data-name="Elipse 14" cx="2.998" cy="2.998" r="2.998" transform="translate(22.185)" fill="#ff495a"/>
          </g>
        </g>
      </g>
      <g id="Grupo_165" data-name="Grupo 165" transform="translate(11.745 54.129)">
        <g id="Grupo_153" data-name="Grupo 153" transform="translate(194.747 104.048)">
          <path id="Trazado_170" data-name="Trazado 170" d="M364.8,234.192a3.317,3.317,0,0,0,2.407-1l.009-.011a7.711,7.711,0,0,0,2.343-5.045v-.074c-.041-12.526,15.348-11.693,20.289-27.006s-14.583-16.6-25.736-7.149c-8.015,6.8-17.64-2.7-29.294,5.232-10.119,6.881-4.481,23.826-21.079,18.528-5.3-1.694-10.045-.061-14.049,2.944a23.768,23.768,0,0,0-8.865,13.577l.007.006Z" transform="translate(-290.825 -187.921)" fill="#f68601"/>
          <g id="Grupo_152" data-name="Grupo 152" transform="translate(32.356 17.041)">
            <path id="Trazado_171" data-name="Trazado 171" d="M313,226.4l41.951-26.928a1.25,1.25,0,0,0-1.351-2.1L308.377,226.4Z" transform="translate(-308.377 -197.166)" fill="#e65913"/>
          </g>
        </g>
        <g id="Grupo_156" data-name="Grupo 156" transform="translate(61.614 12.069)">
          <path id="Trazado_172" data-name="Trazado 172" d="M249.048,254.67c2.872-2.129,5.683-4.338,8.356-6.716-3.206-15.54-7.844-43.833-5.477-68.717,3.753-39.442-13.225-46.557-22.936-37.976C197.448,169.138,247.8,254.62,247.8,254.62Z" transform="translate(-218.604 -138.025)" fill="#f68601"/>
          <g id="Grupo_155" data-name="Grupo 155" transform="translate(16.479 25.219)">
            <g id="Grupo_154" data-name="Grupo 154">
              <path id="Trazado_173" data-name="Trazado 173" d="M244.654,240.743q.713-.559,1.418-1.124c-7.894-19.66-11.982-40.361-14.063-55.111a268.279,268.279,0,0,1-2.725-31.941.87.87,0,0,0-1.74.013,269.86,269.86,0,0,0,2.736,32.142C232.391,199.7,236.563,220.773,244.654,240.743Z" transform="translate(-227.543 -151.706)" fill="#e65913"/>
            </g>
          </g>
        </g>
        <g id="Grupo_159" data-name="Grupo 159" transform="translate(0 83.924)">
          <path id="Trazado_174" data-name="Trazado 174" d="M287.4,239.5c-.007-2.505-.077-5.01-.258-7.512-14.277-6.922-39.543-20.473-57.837-37.506-29-27-44.983-17.864-44.091-4.937,1.985,28.77,48.815,43.517,78.122,49.955Z" transform="translate(-185.18 -177.005)" fill="#f68601"/>
          <g id="Grupo_158" data-name="Grupo 158" transform="translate(21.527 20.071)">
            <g id="Grupo_157" data-name="Grupo 157">
              <path id="Trazado_175" data-name="Trazado 175" d="M277.55,229.578q-.006-.907-.026-1.81c-20.4-5.713-39.311-15.077-52.277-22.408a268.314,268.314,0,0,1-26.993-17.291.87.87,0,0,0-1.051,1.388,270.83,270.83,0,0,0,27.161,17.4C237.529,214.306,256.784,223.832,277.55,229.578Z" transform="translate(-196.858 -187.893)" fill="#e65913"/>
            </g>
          </g>
        </g>
        <g id="Grupo_162" data-name="Grupo 162" transform="translate(2.672)">
          <path id="Trazado_176" data-name="Trazado 176" d="M290.934,277.9l2.933-1.088s-35.7-46.692-51.429-97.485c-16.961-54.8-43.613-54.845-51.807-37.967-23.013,47.4,59.761,118.223,82.607,136.54Z" transform="translate(-186.63 -131.478)" fill="#fda803"/>
          <g id="Grupo_161" data-name="Grupo 161" transform="translate(24.772 35.28)">
            <g id="Grupo_160" data-name="Grupo 160">
              <path id="Trazado_177" data-name="Trazado 177" d="M273.272,261.76h3.584c-23.127-22.6-41.351-49.693-52.93-69.216a389.438,389.438,0,0,1-21.439-41.161,1.259,1.259,0,0,0-2.317.986,391.614,391.614,0,0,0,21.566,41.425C233.091,212.945,250.8,239.341,273.272,261.76Z" transform="translate(-200.068 -150.617)" fill="#f68601"/>
            </g>
          </g>
        </g>
        <g id="Grupo_164" data-name="Grupo 164" transform="translate(169.701 19.792)">
          <path id="Trazado_178" data-name="Trazado 178" d="M339.189,272.692a31.79,31.79,0,0,0-.713-5.882c-4.061-18.589,6.985-22.1,21.551-27.965s16.294-23.312,5.982-37.8,8.218-26.143,1.394-47.954-30.523-7.3-35.709,12.8c-3.726,14.46-22.674,11.331-29.69,30.081-6.094,16.277,14.332,31.31-9.259,38.772-7.536,2.38-11.7,8.164-13.883,14.933a33.754,33.754,0,0,0,.848,23.013Z" transform="translate(-277.238 -142.215)" fill="#fda803"/>
          <g id="Grupo_163" data-name="Grupo 163" transform="translate(29.262 32.1)">
            <path id="Trazado_179" data-name="Trazado 179" d="M296.943,258.005,335.8,162.07a1.776,1.776,0,0,0-3.292-1.333l-39.4,97.268Z" transform="translate(-293.112 -159.628)" fill="#f68601"/>
          </g>
        </g>
      </g>
      <g id="Grupo_180" data-name="Grupo 180" transform="translate(71.199 29.733)">
        <g id="Grupo_179" data-name="Grupo 179">
          <g id="Grupo_178" data-name="Grupo 178">
            <path id="Trazado_180" data-name="Trazado 180" d="M242.56,229.478l-2.417-36.026a330.436,330.436,0,0,0-22.711,36.026Z" transform="translate(-217.432 -54.813)" fill="#542bd8"/>
            <path id="Trazado_181" data-name="Trazado 181" d="M323.944,229.859A345.664,345.664,0,0,0,302.389,193l-4,36.859Z" transform="translate(-149.15 -55.195)" fill="#542bd8"/>
            <g id="Grupo_167" data-name="Grupo 167" transform="translate(22.711 123.666)">
              <path id="Trazado_182" data-name="Trazado 182" d="M356.486,236.328l3.794-36.859a177.019,177.019,0,0,0-55.909-13.678c-28.114-2.03-45.871,2.607-74.619,14.511l2.417,36.026Z" transform="translate(-229.752 -185.33)" fill="#6b5efd"/>
              <g id="Grupo_166" data-name="Grupo 166" transform="translate(30.079 16.757)">
                <path id="Trazado_183" data-name="Trazado 183" d="M254.145,218.971c26.224-3.075,50.625-21.087,51.734-21.914a1.464,1.464,0,0,0-1.751-2.347c-.287.214-29,21.4-56.615,21.771a1.465,1.465,0,0,0,.039,2.929A64.117,64.117,0,0,0,254.145,218.971Z" transform="translate(-246.069 -194.42)" fill="#542bd8"/>
              </g>
            </g>
            <g id="Grupo_177" data-name="Grupo 177" transform="translate(30.871)">
              <path id="Trazado_184" data-name="Trazado 184" d="M325.327,125.87s16.9,26.182,15.052,53.455,2.49,58.755-21.913,57.371-67.932,9.785-81.768-11.457S325.327,125.87,325.327,125.87Z" transform="translate(-233.138 -111.813)" fill="#2e3062"/>
              <path id="Trazado_185" data-name="Trazado 185" d="M308.956,152.192s4.387,39.532-14.371,50.417-32.333-1.268-32.333-1.268S301.79,146.239,308.956,152.192Z" transform="translate(-210.503 -89.992)" fill="#000b29"/>
              <g id="Grupo_176" data-name="Grupo 176" transform="translate(7.167 19.658)">
                <g id="Grupo_170" data-name="Grupo 170" transform="translate(0 37.863)">
                  <path id="Trazado_186" data-name="Trazado 186" d="M251.433,153.942s-6.736-8.979-11.742-1.554,2.072,29.36,14.334,24.007Z" transform="translate(-238.067 -149.448)" fill="#fa8465"/>
                  <g id="Grupo_168" data-name="Grupo 168" transform="translate(2.629 7.863)">
                    <path id="Trazado_187" data-name="Trazado 187" d="M250.144,166.019a1.04,1.04,0,0,1-1-.758c-1.9-6.771-8.915-9.516-8.987-9.543a1.036,1.036,0,0,1,.734-1.937c.328.123,8.059,3.125,10.249,10.922a1.038,1.038,0,0,1-1,1.316Z" transform="translate(-239.493 -153.713)" fill="#fa664d"/>
                  </g>
                  <g id="Grupo_169" data-name="Grupo 169" transform="translate(5.164 11.934)">
                    <path id="Trazado_188" data-name="Trazado 188" d="M241.9,160.745a1.021,1.021,0,0,1-.56-.164,1.036,1.036,0,0,1-.31-1.432,9.439,9.439,0,0,1,3.888-3.136,1.036,1.036,0,1,1,.846,1.891,7.494,7.494,0,0,0-2.992,2.367A1.036,1.036,0,0,1,241.9,160.745Z" transform="translate(-240.868 -155.922)" fill="#fa664d"/>
                  </g>
                </g>
                <g id="Grupo_173" data-name="Grupo 173" transform="translate(80.192 37.863)">
                  <path id="Trazado_189" data-name="Trazado 189" d="M284.159,153.942s6.736-8.979,11.744-1.554-2.074,29.36-14.334,24.007Z" transform="translate(-281.569 -149.448)" fill="#fa8465"/>
                  <g id="Grupo_171" data-name="Grupo 171" transform="translate(1.639 7.863)">
                    <path id="Trazado_190" data-name="Trazado 190" d="M283.5,166.019a1.038,1.038,0,0,0,1-.758c1.9-6.771,8.917-9.516,8.987-9.543a1.036,1.036,0,0,0-.734-1.937c-.328.123-8.059,3.125-10.249,10.922a1.038,1.038,0,0,0,.719,1.277A1.057,1.057,0,0,0,283.5,166.019Z" transform="translate(-282.458 -153.713)" fill="#fa664d"/>
                  </g>
                  <g id="Grupo_172" data-name="Grupo 172" transform="translate(5.279 11.934)">
                    <path id="Trazado_191" data-name="Trazado 191" d="M288.911,160.745a1.021,1.021,0,0,0,.56-.164,1.037,1.037,0,0,0,.312-1.432,9.453,9.453,0,0,0-3.89-3.136,1.036,1.036,0,1,0-.846,1.891,7.492,7.492,0,0,1,2.992,2.367A1.036,1.036,0,0,0,288.911,160.745Z" transform="translate(-284.433 -155.922)" fill="#fa664d"/>
                  </g>
                </g>
                <path id="Trazado_192" data-name="Trazado 192" d="M287.734,174.158v21.813s-6.5,11.108-15.3,11.864-16.6-9.564-16.6-9.564v-22.58Z" transform="translate(-223.081 -90.744)" fill="#f7ad89"/>
                <path id="Trazado_193" data-name="Trazado 193" d="M287.734,174.158v9.678c-5.9,6.551-16.382,8.872-31.9,6.583l0-14.727Z" transform="translate(-223.081 -90.744)" fill="#fa8465"/>
                <path id="Trazado_194" data-name="Trazado 194" d="M321.44,156.3a212.124,212.124,0,0,1-2.83,27.553c-.4,2.114-.859,4.1-1.368,5.886-4.59,16.073-16.073,43.637-48.216,32.155-14.2-5.068-20.777-20.88-23.708-36.962a155.351,155.351,0,0,1-2.146-29.843,22.771,22.771,0,0,1,11.554-19.378c18.972-10.756,38.994-6.747,52.174-1.679A22.7,22.7,0,0,1,321.44,156.3Z" transform="translate(-233.788 -128.908)" fill="#f7ad89"/>
                <path id="Trazado_195" data-name="Trazado 195" d="M258.92,155.642c0,2.328-1.2,4.216-2.68,4.216s-2.68-1.888-2.68-4.216,1.2-4.216,2.68-4.216S258.92,153.314,258.92,155.642Z" transform="translate(-225.001 -109.917)" fill="#2e3062"/>
                <path id="Trazado_196" data-name="Trazado 196" d="M276.875,155.642c0,2.328-1.2,4.216-2.68,4.216s-2.68-1.888-2.68-4.216,1.2-4.216,2.68-4.216S276.875,153.314,276.875,155.642Z" transform="translate(-209.858 -109.917)" fill="#2e3062"/>
                <path id="Trazado_197" data-name="Trazado 197" d="M254.108,146.889a44.819,44.819,0,0,1,11.466-1.718,1.992,1.992,0,0,1,1.983,2.336l-.005.031a1.984,1.984,0,0,1-2.05,1.628c-3.228-.149-11.7.3-15.7,1.925a3,3,0,0,1,.912-2.133A6.925,6.925,0,0,1,254.108,146.889Z" transform="translate(-228.179 -115.192)" fill="#2e3062"/>
                <path id="Trazado_198" data-name="Trazado 198" d="M281.794,146.936a44.817,44.817,0,0,0-11.466-1.718,1.992,1.992,0,0,0-1.983,2.336l.007.031a1.982,1.982,0,0,0,2.048,1.628c3.228-.149,11.7.3,15.7,1.925a3,3,0,0,0-.912-2.133A6.9,6.9,0,0,0,281.794,146.936Z" transform="translate(-212.557 -115.153)" fill="#2e3062"/>
                <g id="Grupo_174" data-name="Grupo 174" transform="translate(44.581 42.602)">
                  <path id="Trazado_199" data-name="Trazado 199" d="M266.1,172.291a4.363,4.363,0,0,1-2.253-.538,3.163,3.163,0,0,1-1.506-2.529c-.395-3.809.581-15.748.621-16.253a1.037,1.037,0,0,1,2.066.17c-.011.122-1,12.251-.627,15.87a1.126,1.126,0,0,0,.509.964c.973.582,3.22-.013,4.157-.391a1.036,1.036,0,0,1,.783,1.917A11.017,11.017,0,0,1,266.1,172.291Z" transform="translate(-262.251 -152.019)" fill="#fa8465"/>
                </g>
                <path id="Trazado_200" data-name="Trazado 200" d="M257.2,166.565c.783,3.941,3.386,11.193,12.157,11.193,8.793,0,11.26-6.627,12.107-11.193Z" transform="translate(-221.928 -97.148)" fill="#fff9ff"/>
                <g id="Grupo_175" data-name="Grupo 175" transform="translate(41.956 83.319)">
                  <path id="Trazado_201" data-name="Trazado 201" d="M266.178,177.444a10.365,10.365,0,0,1-4.861-1.421,1.036,1.036,0,0,1,1.089-1.762h0a8.369,8.369,0,0,0,3.772,1.112,8.817,8.817,0,0,0,3.98-1.117,1.036,1.036,0,0,1,1.073,1.773A10.824,10.824,0,0,1,266.178,177.444Z" transform="translate(-260.827 -174.107)" fill="#fa8465"/>
                </g>
              </g>
              <path id="Trazado_202" data-name="Trazado 202" d="M326.793,163.608a3.42,3.42,0,0,1-2.494,1.91,65.979,65.979,0,0,1-.374,7.67c-1.279,14.978-5.058,17.606-5.912,13.9-.562-2.459-.529-16.565-.258-21.162a49.219,49.219,0,0,1-5.488-.688L308.792,150.7l-1.215,14.36c-5.211,1.812-17.369-1.091-17.369-1.091l-4.078-14.333-2.524,13.791c-7.814,3.807-17.582,1.272-17.582,1.272l-2.245-14.874L258.6,164.7s-16.674,5.982-16.854,0c-.111-3.482,2.439-13.284,4.592-20.878A31.412,31.412,0,0,1,261.481,124.6c20.683-11.1,42.553-5.2,50.056-.715C327.446,133.38,326.793,163.608,326.793,163.608Z" transform="translate(-227.802 -118.244)" fill="#2e3062"/>
              <path id="Trazado_203" data-name="Trazado 203" d="M257.3,126.47s-13.728,16.325-18.242,45.484-10.769,50.7,6.8,60.329c19.017,10.421,17.37-10.952,17.1-16.76s-16.449-21.684-5.654-66.4C260.789,134.686,257.3,126.47,257.3,126.47Z" transform="translate(-234.179 -111.307)" fill="#2e3062"/>
              <path id="Trazado_204" data-name="Trazado 204" d="M244.983,159.156v.035c.007.216.022,1.377.105,3.189.042,1.126.111,2.494.216,4.05.645,9.824,2.557,26.79,8.17,32.674,2.216,2.326,6.489,3.493,11.518,3.967v-7.72a30.546,30.546,0,0,1-12.637-11.733,72.136,72.136,0,0,1-6.988-21.549Z" transform="translate(-225.067 -83.739)" fill="#000b29"/>
              <path id="Trazado_205" data-name="Trazado 205" d="M287.972,165.444a2.428,2.428,0,1,1-2.428-2.428A2.427,2.427,0,0,1,287.972,165.444Z" transform="translate(-192.905 -80.483)" fill="#fff9ff"/>
            </g>
          </g>
        </g>
      </g>
      <rect id="Rectángulo_15" data-name="Rectángulo 15" width="37.914" height="300.802" rx="3.387" transform="translate(8.407 204.398) rotate(-90)" opacity="0.4"/>
      <g id="Grupo_182" data-name="Grupo 182" transform="translate(107.641 174.189)">
        <circle id="Elipse_15" data-name="Elipse 15" cx="11.608" cy="11.608" r="11.608" fill="#fff" opacity="0.8"/>
        <circle id="Elipse_16" data-name="Elipse 16" cx="11.608" cy="11.608" r="11.608" transform="translate(39.295)" fill="#f43853"/>
        <circle id="Elipse_17" data-name="Elipse 17" cx="11.608" cy="11.608" r="11.608" transform="translate(77.685)" fill="#fff" opacity="0.8"/>
        <g id="Grupo_181" data-name="Grupo 181" transform="translate(5.312 7.218)">
          <path id="Trazado_206" data-name="Trazado 206" d="M243.472,200.523a1.294,1.294,0,1,1-1.294,1.294A1.294,1.294,0,0,1,243.472,200.523Z" transform="translate(-238.315 -200.523)" fill="#454545"/>
          <path id="Trazado_207" data-name="Trazado 207" d="M252.675,206.4H240.083L243,203.189l2,2.022,3.725-3.462Z" transform="translate(-240.083 -199.489)" fill="#454545"/>
        </g>
        <path id="Trazado_208" data-name="Trazado 208" d="M267.772,203.461s-2.066-.116-2.324.4c-.385.769.048,2.468-2.417,2.325s-1.646-2.218-1.366-2.817.769-1.69,6.107-1.69,5.825,1.091,6.107,1.69,1.1,2.673-1.368,2.817-2.03-1.556-2.415-2.325C269.839,203.345,267.772,203.461,267.772,203.461Z" transform="translate(-216.869 -192.33)" fill="#fff"/>
        <rect id="Rectángulo_16" data-name="Rectángulo 16" width="11.384" height="7.653" transform="translate(83.601 7.388)" fill="#454545"/>
        <path id="Trazado_209" data-name="Trazado 209" d="M288.737,207.772v-3.41l-3.021.511Z" transform="translate(-196.284 -190.068)" fill="#454545"/>
        <rect id="Rectángulo_17" data-name="Rectángulo 17" width="8.537" height="1.296" transform="translate(85.024 9.303)" fill="#fff"/>
        <rect id="Rectángulo_18" data-name="Rectángulo 18" width="4.53" height="1.296" transform="translate(85.024 11.985)" fill="#fff"/>
      </g>
    </g>
    <g id="Grupo_196" data-name="Grupo 196" transform="translate(92.558 499.304)">
      <g id="Grupo_185" data-name="Grupo 185" transform="translate(27.647 123.611)">
        <g id="Grupo_184" data-name="Grupo 184">
          <rect id="Rectángulo_19" data-name="Rectángulo 19" width="61.351" height="66.49" fill="#ff495a"/>
        </g>
        <rect id="Rectángulo_20" data-name="Rectángulo 20" width="61.351" height="16.448" transform="translate(0 50.041)" fill="#e21c47"/>
      </g>
      <g id="Grupo_195" data-name="Grupo 195">
        <g id="Grupo_188" data-name="Grupo 188" transform="translate(18.893)">
          <g id="Grupo_186" data-name="Grupo 186">
            <path id="Trazado_210" data-name="Trazado 210" d="M102.229,428.766h12.648c.723-3.7,8.135-43.239,1.421-77.117-7.036-35.576-28.527-56.7-41.868-41.5s3.335,44.837,15.933,66.294C102.264,396.715,102.264,425.64,102.229,428.766Z" transform="translate(-69.512 -305.156)" fill="#fda803"/>
          </g>
          <g id="Grupo_187" data-name="Grupo 187" transform="translate(15.717 24.448)">
            <path id="Trazado_211" data-name="Trazado 211" d="M99.709,417.581h3.338c3.375-55.4-21.647-97.924-21.911-98.351a1.666,1.666,0,1,0-2.857,1.712C78.532,321.369,103.088,363.163,99.709,417.581Z" transform="translate(-78.038 -318.418)" fill="#f68601"/>
          </g>
        </g>
        <g id="Grupo_191" data-name="Grupo 191" transform="translate(67.204 13.992)">
          <g id="Grupo_189" data-name="Grupo 189">
            <path id="Trazado_212" data-name="Trazado 212" d="M138.55,312.746c-28.569,0-44.754,87.064-42.647,109.618h12.163c.994-5.727,5.735-20.995,27.216-55.721C145.321,350.422,168.011,312.746,138.55,312.746Z" transform="translate(-95.72 -312.746)" fill="#fda803"/>
          </g>
          <g id="Grupo_190" data-name="Grupo 190" transform="translate(5.194 23.994)">
            <path id="Trazado_213" data-name="Trazado 213" d="M131.16,325.981a1.671,1.671,0,0,0-2.278.623c-.264.47-24.525,43.716-30.344,84.782h3.372c5.827-40.247,29.613-82.679,29.885-83.138A1.673,1.673,0,0,0,131.16,325.981Z" transform="translate(-98.537 -325.762)" fill="#f68601"/>
          </g>
        </g>
        <g id="Grupo_194" data-name="Grupo 194" transform="translate(0 46.572)">
          <g id="Grupo_192" data-name="Grupo 192">
            <path id="Trazado_214" data-name="Trazado 214" d="M108.99,407.458c.477-16.093-21.968-81.523-41.136-76.795-20.936,5.169,1.9,35.965,10.461,47.416,13.649,18.237,18.952,26.049,20.95,29.378Z" transform="translate(-59.263 -330.42)" fill="#fda803"/>
          </g>
          <g id="Grupo_193" data-name="Grupo 193" transform="translate(12.245 16.436)">
            <path id="Trazado_215" data-name="Trazado 215" d="M99.762,399.939c-6.5-27.085-29.8-58.5-30.851-59.929A1.668,1.668,0,1,0,66.232,342c.26.348,23.417,31.613,30.068,57.94Z" transform="translate(-65.906 -339.336)" fill="#f68601"/>
          </g>
        </g>
      </g>
    </g>
  </g>
</svg>
